<?xml version="1.0" ?><!DOCTYPE svg  PUBLIC '-//W3C//DTD SVG 1.1//EN'  'http://www.w3.org/Graphics/SVG/1.1/DTD/svg11.dtd'><svg height="422.000" viewBox="-11.000 -11.000 423.000 422.000" width="423.000" xmlns="http://www.w3.org/2000/svg"><rect fill="#007fff" height="400.0" stroke="#000" stroke-width="0.0" width="400.0" x="0.0" y="0.0"/><rect fill="#000" height="400.0" stroke="#000" stroke-width="0.0" width="0.0" x="400.0" y="0.0"/><rect fill="#000" height="35.0" stroke="#000" stroke-width="6.0" width="35.0" x="40.0" y="42.0"/><rect fill="#000" height="35.0" stroke="#000" stroke-width="6.0" width="35.0" x="75.0" y="42.0"/><rect fill="#000" height="35.0" stroke="#000" stroke-width="6.0" width="35.0" x="110.0" y="42.0"/><rect fill="#49fb32" height="35.0" stroke="#000" stroke-width="6.0" width="35.0" x="145.0" y="42.0"/><rect fill="#49fb32" height="35.0" stroke="#000" stroke-width="6.0" width="35.0" x="180.0" y="42.0"/><rect fill="#49fb32" height="35.0" stroke="#000" stroke-width="6.0" width="35.0" x="215.0" y="42.0"/><rect fill="#000" height="35.0" stroke="#000" stroke-width="6.0" width="35.0" x="250.0" y="42.0"/><rect fill="#000" height="35.0" stroke="#000" stroke-width="6.0" width="35.0" x="285.0" y="42.0"/><rect fill="#000" height="35.0" stroke="#000" stroke-width="6.0" width="35.0" x="320.0" y="42.0"/><rect fill="#000" height="35.0" stroke="#000" stroke-width="6.0" width="35.0" x="40.0" y="77.0"/><rect fill="#000" height="35.0" stroke="#000" stroke-width="6.0" width="35.0" x="75.0" y="77.0"/><rect fill="#000" height="35.0" stroke="#000" stroke-width="6.0" width="35.0" x="110.0" y="77.0"/><rect fill="#49fb32" height="35.0" stroke="#000" stroke-width="6.0" width="35.0" x="145.0" y="77.0"/><rect fill="#49fb32" height="35.0" stroke="#000" stroke-width="6.0" width="35.0" x="180.0" y="77.0"/><rect fill="#49fb32" height="35.0" stroke="#000" stroke-width="6.0" width="35.0" x="215.0" y="77.0"/><rect fill="#000" height="35.0" stroke="#000" stroke-width="6.0" width="35.0" x="250.0" y="77.0"/><rect fill="#000" height="35.0" stroke="#000" stroke-width="6.0" width="35.0" x="285.0" y="77.0"/><rect fill="#000" height="35.0" stroke="#000" stroke-width="6.0" width="35.0" x="320.0" y="77.0"/><rect fill="#000" height="35.0" stroke="#000" stroke-width="6.0" width="35.0" x="40.0" y="112.0"/><rect fill="#000" height="35.0" stroke="#000" stroke-width="6.0" width="35.0" x="75.0" y="112.0"/><rect fill="#000" height="35.0" stroke="#000" stroke-width="6.0" width="35.0" x="110.0" y="112.0"/><rect fill="#49fb32" height="35.0" stroke="#000" stroke-width="6.0" width="35.0" x="145.0" y="112.0"/><rect fill="#49fb32" height="35.0" stroke="#000" stroke-width="6.0" width="35.0" x="180.0" y="112.0"/><rect fill="#49fb32" height="35.0" stroke="#000" stroke-width="6.0" width="35.0" x="215.0" y="112.0"/><rect fill="#000" height="35.0" stroke="#000" stroke-width="6.0" width="35.0" x="250.0" y="112.0"/><rect fill="#000" height="35.0" stroke="#000" stroke-width="6.0" width="35.0" x="285.0" y="112.0"/><rect fill="#000" height="35.0" stroke="#000" stroke-width="6.0" width="35.0" x="320.0" y="112.0"/><rect fill="#49fb32" height="35.0" stroke="#000" stroke-width="6.0" width="35.0" x="40.0" y="147.0"/><rect fill="#49fb32" height="35.0" stroke="#000" stroke-width="6.0" width="35.0" x="75.0" y="147.0"/><rect fill="#49fb32" height="35.0" stroke="#000" stroke-width="6.0" width="35.0" x="110.0" y="147.0"/><rect fill="#49fb32" height="35.0" stroke="#000" stroke-width="6.0" width="35.0" x="145.0" y="147.0"/><rect fill="#49fb32" height="35.0" stroke="#000" stroke-width="6.0" width="35.0" x="180.0" y="147.0"/><rect fill="#49fb32" height="35.0" stroke="#000" stroke-width="6.0" width="35.0" x="215.0" y="147.0"/><rect fill="#49fb32" height="35.0" stroke="#000" stroke-width="6.0" width="35.0" x="250.0" y="147.0"/><rect fill="#49fb32" height="35.0" stroke="#000" stroke-width="6.0" width="35.0" x="285.0" y="147.0"/><rect fill="#49fb32" height="35.0" stroke="#000" stroke-width="6.0" width="35.0" x="320.0" y="147.0"/><rect fill="#49fb32" height="35.0" stroke="#000" stroke-width="6.0" width="35.0" x="40.0" y="182.0"/><rect fill="#49fb32" height="35.0" stroke="#000" stroke-width="6.0" width="35.0" x="75.0" y="182.0"/><rect fill="#49fb32" height="35.0" stroke="#000" stroke-width="6.0" width="35.0" x="110.0" y="182.0"/><rect fill="#49fb32" height="35.0" stroke="#000" stroke-width="6.0" width="35.0" x="145.0" y="182.0"/><rect fill="#49fb32" height="35.0" stroke="#000" stroke-width="6.0" width="35.0" x="180.0" y="182.0"/><rect fill="#49fb32" height="35.0" stroke="#000" stroke-width="6.0" width="35.0" x="215.0" y="182.0"/><rect fill="#49fb32" height="35.0" stroke="#000" stroke-width="6.0" width="35.0" x="250.0" y="182.0"/><rect fill="#49fb32" height="35.0" stroke="#000" stroke-width="6.0" width="35.0" x="285.0" y="182.0"/><rect fill="#49fb32" height="35.0" stroke="#000" stroke-width="6.0" width="35.0" x="320.0" y="182.0"/><rect fill="#49fb32" height="35.0" stroke="#000" stroke-width="6.0" width="35.0" x="40.0" y="217.0"/><rect fill="#49fb32" height="35.0" stroke="#000" stroke-width="6.0" width="35.0" x="75.0" y="217.0"/><rect fill="#49fb32" height="35.0" stroke="#000" stroke-width="6.0" width="35.0" x="110.0" y="217.0"/><rect fill="#49fb32" height="35.0" stroke="#000" stroke-width="6.0" width="35.0" x="145.0" y="217.0"/><rect fill="#49fb32" height="35.0" stroke="#000" stroke-width="6.0" width="35.0" x="180.0" y="217.0"/><rect fill="#49fb32" height="35.0" stroke="#000" stroke-width="6.0" width="35.0" x="215.0" y="217.0"/><rect fill="#49fb32" height="35.0" stroke="#000" stroke-width="6.0" width="35.0" x="250.0" y="217.0"/><rect fill="#49fb32" height="35.0" stroke="#000" stroke-width="6.0" width="35.0" x="285.0" y="217.0"/><rect fill="#49fb32" height="35.0" stroke="#000" stroke-width="6.0" width="35.0" x="320.0" y="217.0"/><rect fill="#000" height="35.0" stroke="#000" stroke-width="6.0" width="35.0" x="40.0" y="252.0"/><rect fill="#000" height="35.0" stroke="#000" stroke-width="6.0" width="35.0" x="75.0" y="252.0"/><rect fill="#000" height="35.0" stroke="#000" stroke-width="6.0" width="35.0" x="110.0" y="252.0"/><rect fill="#49fb32" height="35.0" stroke="#000" stroke-width="6.0" width="35.0" x="145.0" y="252.0"/><rect fill="#49fb32" height="35.0" stroke="#000" stroke-width="6.0" width="35.0" x="180.0" y="252.0"/><rect fill="#49fb32" height="35.0" stroke="#000" stroke-width="6.0" width="35.0" x="215.0" y="252.0"/><rect fill="#000" height="35.0" stroke="#000" stroke-width="6.0" width="35.0" x="250.0" y="252.0"/><rect fill="#000" height="35.0" stroke="#000" stroke-width="6.0" width="35.0" x="285.0" y="252.0"/><rect fill="#000" height="35.0" stroke="#000" stroke-width="6.0" width="35.0" x="320.0" y="252.0"/><rect fill="#000" height="35.0" stroke="#000" stroke-width="6.0" width="35.0" x="40.0" y="287.0"/><rect fill="#000" height="35.0" stroke="#000" stroke-width="6.0" width="35.0" x="75.0" y="287.0"/><rect fill="#000" height="35.0" stroke="#000" stroke-width="6.0" width="35.0" x="110.0" y="287.0"/><rect fill="#49fb32" height="35.0" stroke="#000" stroke-width="6.0" width="35.0" x="145.0" y="287.0"/><rect fill="#49fb32" height="35.0" stroke="#000" stroke-width="6.0" width="35.0" x="180.0" y="287.0"/><rect fill="#49fb32" height="35.0" stroke="#000" stroke-width="6.0" width="35.0" x="215.0" y="287.0"/><rect fill="#000" height="35.0" stroke="#000" stroke-width="6.0" width="35.0" x="250.0" y="287.0"/><rect fill="#000" height="35.0" stroke="#000" stroke-width="6.0" width="35.0" x="285.0" y="287.0"/><rect fill="#000" height="35.0" stroke="#000" stroke-width="6.0" width="35.0" x="320.0" y="287.0"/><rect fill="#000" height="35.0" stroke="#000" stroke-width="6.0" width="35.0" x="40.0" y="322.0"/><rect fill="#000" height="35.0" stroke="#000" stroke-width="6.0" width="35.0" x="75.0" y="322.0"/><rect fill="#000" height="35.0" stroke="#000" stroke-width="6.0" width="35.0" x="110.0" y="322.0"/><rect fill="#49fb32" height="35.0" stroke="#000" stroke-width="6.0" width="35.0" x="145.0" y="322.0"/><rect fill="#49fb32" height="35.0" stroke="#000" stroke-width="6.0" width="35.0" x="180.0" y="322.0"/><rect fill="#49fb32" height="35.0" stroke="#000" stroke-width="6.0" width="35.0" x="215.0" y="322.0"/><rect fill="#000" height="35.0" stroke="#000" stroke-width="6.0" width="35.0" x="250.0" y="322.0"/><rect fill="#000" height="35.0" stroke="#000" stroke-width="6.0" width="35.0" x="285.0" y="322.0"/><rect fill="#000" height="35.0" stroke="#000" stroke-width="6.0" width="35.0" x="320.0" y="322.0"/><rect fill="#000" height="35.0" stroke="#000" stroke-width="6.0" width="35.0" x="145.0" y="42.0"/><rect fill="#000" height="35.0" stroke="#000" stroke-width="6.0" width="35.0" x="180.0" y="42.0"/><rect fill="#000" height="35.0" stroke="#000" stroke-width="6.0" width="35.0" x="145.0" y="77.0"/><rect fill="#000" height="35.0" stroke="#000" stroke-width="6.0" width="35.0" x="145.0" y="112.0"/><rect fill="#000" height="35.0" stroke="#000" stroke-width="6.0" width="35.0" x="145.0" y="147.0"/><rect fill="#e5dcef" height="35.0" stroke="#000" stroke-width="0.0" width="35.0" x="145.0" y="42.0"/><rect fill="#49fb32" height="21.0" stroke="#000" stroke-width="0.0" width="21.0" x="152.0" y="49.0"/><rect fill="#e5dcef" height="35.0" stroke="#000" stroke-width="0.0" width="35.0" x="180.0" y="42.0"/><rect fill="#49fb32" height="21.0" stroke="#000" stroke-width="0.0" width="21.0" x="187.0" y="49.0"/><rect fill="#e5dcef" height="35.0" stroke="#000" stroke-width="0.0" width="35.0" x="145.0" y="77.0"/><rect fill="#49fb32" height="21.0" stroke="#000" stroke-width="0.0" width="21.0" x="152.0" y="84.0"/><rect fill="#e5dcef" height="35.0" stroke="#000" stroke-width="0.0" width="35.0" x="145.0" y="112.0"/><rect fill="#49fb32" height="21.0" stroke="#000" stroke-width="0.0" width="21.0" x="152.0" y="119.0"/><rect fill="#e5dcef" height="35.0" stroke="#000" stroke-width="0.0" width="35.0" x="145.0" y="147.0"/><rect fill="#49fb32" height="21.0" stroke="#000" stroke-width="0.0" width="21.0" x="152.0" y="154.0"/><rect fill="#000" height="35.0" stroke="#000" stroke-width="6.0" width="35.0" x="215.0" y="42.0"/><rect fill="#000" height="35.0" stroke="#000" stroke-width="6.0" width="35.0" x="180.0" y="77.0"/><rect fill="#000" height="35.0" stroke="#000" stroke-width="6.0" width="35.0" x="215.0" y="77.0"/><rect fill="#000" height="35.0" stroke="#000" stroke-width="6.0" width="35.0" x="180.0" y="112.0"/><rect fill="#000" height="35.0" stroke="#000" stroke-width="6.0" width="35.0" x="180.0" y="147.0"/><rect fill="#15f3b7" height="35.0" stroke="#000" stroke-width="0.0" width="35.0" x="215.0" y="42.0"/><rect fill="#49fb32" height="21.0" stroke="#000" stroke-width="0.0" width="21.0" x="222.0" y="49.0"/><rect fill="#15f3b7" height="35.0" stroke="#000" stroke-width="0.0" width="35.0" x="180.0" y="77.0"/><rect fill="#49fb32" height="21.0" stroke="#000" stroke-width="0.0" width="21.0" x="187.0" y="84.0"/><rect fill="#15f3b7" height="35.0" stroke="#000" stroke-width="0.0" width="35.0" x="215.0" y="77.0"/><rect fill="#49fb32" height="21.0" stroke="#000" stroke-width="0.0" width="21.0" x="222.0" y="84.0"/><rect fill="#15f3b7" height="35.0" stroke="#000" stroke-width="0.0" width="35.0" x="180.0" y="112.0"/><rect fill="#49fb32" height="21.0" stroke="#000" stroke-width="0.0" width="21.0" x="187.0" y="119.0"/><rect fill="#15f3b7" height="35.0" stroke="#000" stroke-width="0.0" width="35.0" x="180.0" y="147.0"/><rect fill="#49fb32" height="21.0" stroke="#000" stroke-width="0.0" width="21.0" x="187.0" y="154.0"/><rect fill="#000" height="35.0" stroke="#000" stroke-width="6.0" width="35.0" x="40.0" y="147.0"/><rect fill="#000" height="35.0" stroke="#000" stroke-width="6.0" width="35.0" x="75.0" y="147.0"/><rect fill="#000" height="35.0" stroke="#000" stroke-width="6.0" width="35.0" x="40.0" y="182.0"/><rect fill="#000" height="35.0" stroke="#000" stroke-width="6.0" width="35.0" x="75.0" y="182.0"/><rect fill="#000" height="35.0" stroke="#000" stroke-width="6.0" width="35.0" x="40.0" y="217.0"/><rect fill="#0607f5" height="35.0" stroke="#000" stroke-width="0.0" width="35.0" x="40.0" y="147.0"/><rect fill="#49fb32" height="21.0" stroke="#000" stroke-width="0.0" width="21.0" x="47.0" y="154.0"/><rect fill="#0607f5" height="35.0" stroke="#000" stroke-width="0.0" width="35.0" x="75.0" y="147.0"/><rect fill="#49fb32" height="21.0" stroke="#000" stroke-width="0.0" width="21.0" x="82.0" y="154.0"/><rect fill="#0607f5" height="35.0" stroke="#000" stroke-width="0.0" width="35.0" x="40.0" y="182.0"/><rect fill="#49fb32" height="21.0" stroke="#000" stroke-width="0.0" width="21.0" x="47.0" y="189.0"/><rect fill="#0607f5" height="35.0" stroke="#000" stroke-width="0.0" width="35.0" x="75.0" y="182.0"/><rect fill="#49fb32" height="21.0" stroke="#000" stroke-width="0.0" width="21.0" x="82.0" y="189.0"/><rect fill="#0607f5" height="35.0" stroke="#000" stroke-width="0.0" width="35.0" x="40.0" y="217.0"/><rect fill="#49fb32" height="21.0" stroke="#000" stroke-width="0.0" width="21.0" x="47.0" y="224.0"/><rect fill="#000" height="35.0" stroke="#000" stroke-width="6.0" width="35.0" x="215.0" y="112.0"/><rect fill="#000" height="35.0" stroke="#000" stroke-width="6.0" width="35.0" x="215.0" y="147.0"/><rect fill="#000" height="35.0" stroke="#000" stroke-width="6.0" width="35.0" x="250.0" y="147.0"/><rect fill="#000" height="35.0" stroke="#000" stroke-width="6.0" width="35.0" x="285.0" y="147.0"/><rect fill="#000" height="35.0" stroke="#000" stroke-width="6.0" width="35.0" x="285.0" y="182.0"/><rect fill="#a1c7d1" height="35.0" stroke="#000" stroke-width="0.0" width="35.0" x="215.0" y="112.0"/><rect fill="#49fb32" height="21.0" stroke="#000" stroke-width="0.0" width="21.0" x="222.0" y="119.0"/><rect fill="#a1c7d1" height="35.0" stroke="#000" stroke-width="0.0" width="35.0" x="215.0" y="147.0"/><rect fill="#49fb32" height="21.0" stroke="#000" stroke-width="0.0" width="21.0" x="222.0" y="154.0"/><rect fill="#a1c7d1" height="35.0" stroke="#000" stroke-width="0.0" width="35.0" x="250.0" y="147.0"/><rect fill="#49fb32" height="21.0" stroke="#000" stroke-width="0.0" width="21.0" x="257.0" y="154.0"/><rect fill="#a1c7d1" height="35.0" stroke="#000" stroke-width="0.0" width="35.0" x="285.0" y="147.0"/><rect fill="#49fb32" height="21.0" stroke="#000" stroke-width="0.0" width="21.0" x="292.0" y="154.0"/><rect fill="#a1c7d1" height="35.0" stroke="#000" stroke-width="0.0" width="35.0" x="285.0" y="182.0"/><rect fill="#49fb32" height="21.0" stroke="#000" stroke-width="0.0" width="21.0" x="292.0" y="189.0"/><rect fill="#000" height="35.0" stroke="#000" stroke-width="6.0" width="35.0" x="145.0" y="182.0"/><rect fill="#000" height="35.0" stroke="#000" stroke-width="6.0" width="35.0" x="180.0" y="182.0"/><rect fill="#000" height="35.0" stroke="#000" stroke-width="6.0" width="35.0" x="215.0" y="182.0"/><rect fill="#000" height="35.0" stroke="#000" stroke-width="6.0" width="35.0" x="250.0" y="182.0"/><rect fill="#000" height="35.0" stroke="#000" stroke-width="6.0" width="35.0" x="215.0" y="217.0"/><rect fill="#aa5784" height="35.0" stroke="#000" stroke-width="0.0" width="35.0" x="145.0" y="182.0"/><rect fill="#49fb32" height="21.0" stroke="#000" stroke-width="0.0" width="21.0" x="152.0" y="189.0"/><rect fill="#aa5784" height="35.0" stroke="#000" stroke-width="0.0" width="35.0" x="180.0" y="182.0"/><rect fill="#49fb32" height="21.0" stroke="#000" stroke-width="0.0" width="21.0" x="187.0" y="189.0"/><rect fill="#aa5784" height="35.0" stroke="#000" stroke-width="0.0" width="35.0" x="215.0" y="182.0"/><rect fill="#49fb32" height="21.0" stroke="#000" stroke-width="0.0" width="21.0" x="222.0" y="189.0"/><rect fill="#aa5784" height="35.0" stroke="#000" stroke-width="0.0" width="35.0" x="250.0" y="182.0"/><rect fill="#49fb32" height="21.0" stroke="#000" stroke-width="0.0" width="21.0" x="257.0" y="189.0"/><rect fill="#aa5784" height="35.0" stroke="#000" stroke-width="0.0" width="35.0" x="215.0" y="217.0"/><rect fill="#49fb32" height="21.0" stroke="#000" stroke-width="0.0" width="21.0" x="222.0" y="224.0"/><rect fill="#000" height="35.0" stroke="#000" stroke-width="6.0" width="35.0" x="110.0" y="147.0"/><rect fill="#000" height="35.0" stroke="#000" stroke-width="6.0" width="35.0" x="110.0" y="182.0"/><rect fill="#000" height="35.0" stroke="#000" stroke-width="6.0" width="35.0" x="75.0" y="217.0"/><rect fill="#000" height="35.0" stroke="#000" stroke-width="6.0" width="35.0" x="110.0" y="217.0"/><rect fill="#000" height="35.0" stroke="#000" stroke-width="6.0" width="35.0" x="145.0" y="217.0"/><rect fill="#dfb9a6" height="35.0" stroke="#000" stroke-width="0.0" width="35.0" x="110.0" y="147.0"/><rect fill="#49fb32" height="21.0" stroke="#000" stroke-width="0.0" width="21.0" x="117.0" y="154.0"/><rect fill="#dfb9a6" height="35.0" stroke="#000" stroke-width="0.0" width="35.0" x="110.0" y="182.0"/><rect fill="#49fb32" height="21.0" stroke="#000" stroke-width="0.0" width="21.0" x="117.0" y="189.0"/><rect fill="#dfb9a6" height="35.0" stroke="#000" stroke-width="0.0" width="35.0" x="75.0" y="217.0"/><rect fill="#49fb32" height="21.0" stroke="#000" stroke-width="0.0" width="21.0" x="82.0" y="224.0"/><rect fill="#dfb9a6" height="35.0" stroke="#000" stroke-width="0.0" width="35.0" x="110.0" y="217.0"/><rect fill="#49fb32" height="21.0" stroke="#000" stroke-width="0.0" width="21.0" x="117.0" y="224.0"/><rect fill="#dfb9a6" height="35.0" stroke="#000" stroke-width="0.0" width="35.0" x="145.0" y="217.0"/><rect fill="#49fb32" height="21.0" stroke="#000" stroke-width="0.0" width="21.0" x="152.0" y="224.0"/><rect fill="#000" height="35.0" stroke="#000" stroke-width="6.0" width="35.0" x="320.0" y="147.0"/><rect fill="#000" height="35.0" stroke="#000" stroke-width="6.0" width="35.0" x="320.0" y="182.0"/><rect fill="#000" height="35.0" stroke="#000" stroke-width="6.0" width="35.0" x="250.0" y="217.0"/><rect fill="#000" height="35.0" stroke="#000" stroke-width="6.0" width="35.0" x="285.0" y="217.0"/><rect fill="#000" height="35.0" stroke="#000" stroke-width="6.0" width="35.0" x="320.0" y="217.0"/><rect fill="#f87b9c" height="35.0" stroke="#000" stroke-width="0.0" width="35.0" x="320.0" y="147.0"/><rect fill="#49fb32" height="21.0" stroke="#000" stroke-width="0.0" width="21.0" x="327.0" y="154.0"/><rect fill="#f87b9c" height="35.0" stroke="#000" stroke-width="0.0" width="35.0" x="320.0" y="182.0"/><rect fill="#49fb32" height="21.0" stroke="#000" stroke-width="0.0" width="21.0" x="327.0" y="189.0"/><rect fill="#f87b9c" height="35.0" stroke="#000" stroke-width="0.0" width="35.0" x="250.0" y="217.0"/><rect fill="#49fb32" height="21.0" stroke="#000" stroke-width="0.0" width="21.0" x="257.0" y="224.0"/><rect fill="#f87b9c" height="35.0" stroke="#000" stroke-width="0.0" width="35.0" x="285.0" y="217.0"/><rect fill="#49fb32" height="21.0" stroke="#000" stroke-width="0.0" width="21.0" x="292.0" y="224.0"/><rect fill="#f87b9c" height="35.0" stroke="#000" stroke-width="0.0" width="35.0" x="320.0" y="217.0"/><rect fill="#49fb32" height="21.0" stroke="#000" stroke-width="0.0" width="21.0" x="327.0" y="224.0"/><rect fill="#000" height="35.0" stroke="#000" stroke-width="6.0" width="35.0" x="180.0" y="217.0"/><rect fill="#000" height="35.0" stroke="#000" stroke-width="6.0" width="35.0" x="145.0" y="252.0"/><rect fill="#000" height="35.0" stroke="#000" stroke-width="6.0" width="35.0" x="180.0" y="252.0"/><rect fill="#000" height="35.0" stroke="#000" stroke-width="6.0" width="35.0" x="215.0" y="252.0"/><rect fill="#000" height="35.0" stroke="#000" stroke-width="6.0" width="35.0" x="180.0" y="287.0"/><rect fill="#9d442e" height="35.0" stroke="#000" stroke-width="0.0" width="35.0" x="180.0" y="217.0"/><rect fill="#49fb32" height="21.0" stroke="#000" stroke-width="0.0" width="21.0" x="187.0" y="224.0"/><rect fill="#9d442e" height="35.0" stroke="#000" stroke-width="0.0" width="35.0" x="145.0" y="252.0"/><rect fill="#49fb32" height="21.0" stroke="#000" stroke-width="0.0" width="21.0" x="152.0" y="259.0"/><rect fill="#9d442e" height="35.0" stroke="#000" stroke-width="0.0" width="35.0" x="180.0" y="252.0"/><rect fill="#49fb32" height="21.0" stroke="#000" stroke-width="0.0" width="21.0" x="187.0" y="259.0"/><rect fill="#9d442e" height="35.0" stroke="#000" stroke-width="0.0" width="35.0" x="215.0" y="252.0"/><rect fill="#49fb32" height="21.0" stroke="#000" stroke-width="0.0" width="21.0" x="222.0" y="259.0"/><rect fill="#9d442e" height="35.0" stroke="#000" stroke-width="0.0" width="35.0" x="180.0" y="287.0"/><rect fill="#49fb32" height="21.0" stroke="#000" stroke-width="0.0" width="21.0" x="187.0" y="294.0"/><rect fill="#000" height="35.0" stroke="#000" stroke-width="6.0" width="35.0" x="145.0" y="287.0"/><rect fill="#000" height="35.0" stroke="#000" stroke-width="6.0" width="35.0" x="215.0" y="287.0"/><rect fill="#000" height="35.0" stroke="#000" stroke-width="6.0" width="35.0" x="145.0" y="322.0"/><rect fill="#000" height="35.0" stroke="#000" stroke-width="6.0" width="35.0" x="180.0" y="322.0"/><rect fill="#000" height="35.0" stroke="#000" stroke-width="6.0" width="35.0" x="215.0" y="322.0"/><rect fill="#6666df" height="35.0" stroke="#000" stroke-width="0.0" width="35.0" x="145.0" y="287.0"/><rect fill="#49fb32" height="21.0" stroke="#000" stroke-width="0.0" width="21.0" x="152.0" y="294.0"/><rect fill="#6666df" height="35.0" stroke="#000" stroke-width="0.0" width="35.0" x="215.0" y="287.0"/><rect fill="#49fb32" height="21.0" stroke="#000" stroke-width="0.0" width="21.0" x="222.0" y="294.0"/><rect fill="#6666df" height="35.0" stroke="#000" stroke-width="0.0" width="35.0" x="145.0" y="322.0"/><rect fill="#49fb32" height="21.0" stroke="#000" stroke-width="0.0" width="21.0" x="152.0" y="329.0"/><rect fill="#6666df" height="35.0" stroke="#000" stroke-width="0.0" width="35.0" x="180.0" y="322.0"/><rect fill="#49fb32" height="21.0" stroke="#000" stroke-width="0.0" width="21.0" x="187.0" y="329.0"/><rect fill="#6666df" height="35.0" stroke="#000" stroke-width="0.0" width="35.0" x="215.0" y="322.0"/><rect fill="#49fb32" height="21.0" stroke="#000" stroke-width="0.0" width="21.0" x="222.0" y="329.0"/></svg>