<?xml version="1.0" ?><!DOCTYPE svg  PUBLIC '-//W3C//DTD SVG 1.1//EN'  'http://www.w3.org/Graphics/SVG/1.1/DTD/svg11.dtd'><svg height="422.000" viewBox="-11.000 -11.000 423.000 422.000" width="423.000" xmlns="http://www.w3.org/2000/svg"><rect fill="#007fff" height="400.0" stroke="#000" stroke-width="0.0" width="400.0" x="0.0" y="0.0"/><rect fill="#000" height="400.0" stroke="#000" stroke-width="0.0" width="0.0" x="400.0" y="0.0"/><rect fill="#b2757b" height="40.0" stroke="#000" stroke-width="6.0" width="40.0" x="40.0" y="40.0"/><rect fill="#b2757b" height="40.0" stroke="#000" stroke-width="6.0" width="40.0" x="80.0" y="40.0"/><rect fill="#b2757b" height="40.0" stroke="#000" stroke-width="6.0" width="40.0" x="120.0" y="40.0"/><rect fill="#b2757b" height="40.0" stroke="#000" stroke-width="6.0" width="40.0" x="160.0" y="40.0"/><rect fill="#b2757b" height="40.0" stroke="#000" stroke-width="6.0" width="40.0" x="200.0" y="40.0"/><rect fill="#b2757b" height="40.0" stroke="#000" stroke-width="6.0" width="40.0" x="240.0" y="40.0"/><rect fill="#b2757b" height="40.0" stroke="#000" stroke-width="6.0" width="40.0" x="280.0" y="40.0"/><rect fill="#b2757b" height="40.0" stroke="#000" stroke-width="6.0" width="40.0" x="320.0" y="40.0"/><rect fill="#b2757b" height="40.0" stroke="#000" stroke-width="6.0" width="40.0" x="40.0" y="80.0"/><rect fill="#b2757b" height="40.0" stroke="#000" stroke-width="6.0" width="40.0" x="80.0" y="80.0"/><rect fill="#b2757b" height="40.0" stroke="#000" stroke-width="6.0" width="40.0" x="120.0" y="80.0"/><rect fill="#b2757b" height="40.0" stroke="#000" stroke-width="6.0" width="40.0" x="160.0" y="80.0"/><rect fill="#b2757b" height="40.0" stroke="#000" stroke-width="6.0" width="40.0" x="200.0" y="80.0"/><rect fill="#b2757b" height="40.0" stroke="#000" stroke-width="6.0" width="40.0" x="240.0" y="80.0"/><rect fill="#b2757b" height="40.0" stroke="#000" stroke-width="6.0" width="40.0" x="280.0" y="80.0"/><rect fill="#b2757b" height="40.0" stroke="#000" stroke-width="6.0" width="40.0" x="320.0" y="80.0"/><rect fill="#b2757b" height="40.0" stroke="#000" stroke-width="6.0" width="40.0" x="40.0" y="120.0"/><rect fill="#b2757b" height="40.0" stroke="#000" stroke-width="6.0" width="40.0" x="80.0" y="120.0"/><rect fill="#b2757b" height="40.0" stroke="#000" stroke-width="6.0" width="40.0" x="120.0" y="120.0"/><rect fill="#b2757b" height="40.0" stroke="#000" stroke-width="6.0" width="40.0" x="160.0" y="120.0"/><rect fill="#b2757b" height="40.0" stroke="#000" stroke-width="6.0" width="40.0" x="200.0" y="120.0"/><rect fill="#b2757b" height="40.0" stroke="#000" stroke-width="6.0" width="40.0" x="240.0" y="120.0"/><rect fill="#b2757b" height="40.0" stroke="#000" stroke-width="6.0" width="40.0" x="280.0" y="120.0"/><rect fill="#b2757b" height="40.0" stroke="#000" stroke-width="6.0" width="40.0" x="320.0" y="120.0"/><rect fill="#b2757b" height="40.0" stroke="#000" stroke-width="6.0" width="40.0" x="40.0" y="160.0"/><rect fill="#b2757b" height="40.0" stroke="#000" stroke-width="6.0" width="40.0" x="80.0" y="160.0"/><rect fill="#b2757b" height="40.0" stroke="#000" stroke-width="6.0" width="40.0" x="120.0" y="160.0"/><rect fill="#000" height="40.0" stroke="#000" stroke-width="6.0" width="40.0" x="160.0" y="160.0"/><rect fill="#000" height="40.0" stroke="#000" stroke-width="6.0" width="40.0" x="200.0" y="160.0"/><rect fill="#b2757b" height="40.0" stroke="#000" stroke-width="6.0" width="40.0" x="240.0" y="160.0"/><rect fill="#b2757b" height="40.0" stroke="#000" stroke-width="6.0" width="40.0" x="280.0" y="160.0"/><rect fill="#b2757b" height="40.0" stroke="#000" stroke-width="6.0" width="40.0" x="320.0" y="160.0"/><rect fill="#b2757b" height="40.0" stroke="#000" stroke-width="6.0" width="40.0" x="40.0" y="200.0"/><rect fill="#b2757b" height="40.0" stroke="#000" stroke-width="6.0" width="40.0" x="80.0" y="200.0"/><rect fill="#b2757b" height="40.0" stroke="#000" stroke-width="6.0" width="40.0" x="120.0" y="200.0"/><rect fill="#000" height="40.0" stroke="#000" stroke-width="6.0" width="40.0" x="160.0" y="200.0"/><rect fill="#000" height="40.0" stroke="#000" stroke-width="6.0" width="40.0" x="200.0" y="200.0"/><rect fill="#b2757b" height="40.0" stroke="#000" stroke-width="6.0" width="40.0" x="240.0" y="200.0"/><rect fill="#b2757b" height="40.0" stroke="#000" stroke-width="6.0" width="40.0" x="280.0" y="200.0"/><rect fill="#b2757b" height="40.0" stroke="#000" stroke-width="6.0" width="40.0" x="320.0" y="200.0"/><rect fill="#b2757b" height="40.0" stroke="#000" stroke-width="6.0" width="40.0" x="40.0" y="240.0"/><rect fill="#b2757b" height="40.0" stroke="#000" stroke-width="6.0" width="40.0" x="80.0" y="240.0"/><rect fill="#b2757b" height="40.0" stroke="#000" stroke-width="6.0" width="40.0" x="120.0" y="240.0"/><rect fill="#b2757b" height="40.0" stroke="#000" stroke-width="6.0" width="40.0" x="160.0" y="240.0"/><rect fill="#b2757b" height="40.0" stroke="#000" stroke-width="6.0" width="40.0" x="200.0" y="240.0"/><rect fill="#b2757b" height="40.0" stroke="#000" stroke-width="6.0" width="40.0" x="240.0" y="240.0"/><rect fill="#b2757b" height="40.0" stroke="#000" stroke-width="6.0" width="40.0" x="280.0" y="240.0"/><rect fill="#b2757b" height="40.0" stroke="#000" stroke-width="6.0" width="40.0" x="320.0" y="240.0"/><rect fill="#b2757b" height="40.0" stroke="#000" stroke-width="6.0" width="40.0" x="40.0" y="280.0"/><rect fill="#b2757b" height="40.0" stroke="#000" stroke-width="6.0" width="40.0" x="80.0" y="280.0"/><rect fill="#b2757b" height="40.0" stroke="#000" stroke-width="6.0" width="40.0" x="120.0" y="280.0"/><rect fill="#b2757b" height="40.0" stroke="#000" stroke-width="6.0" width="40.0" x="160.0" y="280.0"/><rect fill="#b2757b" height="40.0" stroke="#000" stroke-width="6.0" width="40.0" x="200.0" y="280.0"/><rect fill="#b2757b" height="40.0" stroke="#000" stroke-width="6.0" width="40.0" x="240.0" y="280.0"/><rect fill="#b2757b" height="40.0" stroke="#000" stroke-width="6.0" width="40.0" x="280.0" y="280.0"/><rect fill="#b2757b" height="40.0" stroke="#000" stroke-width="6.0" width="40.0" x="320.0" y="280.0"/><rect fill="#b2757b" height="40.0" stroke="#000" stroke-width="6.0" width="40.0" x="40.0" y="320.0"/><rect fill="#b2757b" height="40.0" stroke="#000" stroke-width="6.0" width="40.0" x="80.0" y="320.0"/><rect fill="#b2757b" height="40.0" stroke="#000" stroke-width="6.0" width="40.0" x="120.0" y="320.0"/><rect fill="#b2757b" height="40.0" stroke="#000" stroke-width="6.0" width="40.0" x="160.0" y="320.0"/><rect fill="#b2757b" height="40.0" stroke="#000" stroke-width="6.0" width="40.0" x="200.0" y="320.0"/><rect fill="#b2757b" height="40.0" stroke="#000" stroke-width="6.0" width="40.0" x="240.0" y="320.0"/><rect fill="#b2757b" height="40.0" stroke="#000" stroke-width="6.0" width="40.0" x="280.0" y="320.0"/><rect fill="#b2757b" height="40.0" stroke="#000" stroke-width="6.0" width="40.0" x="320.0" y="320.0"/><rect fill="#000" height="40.0" stroke="#000" stroke-width="6.0" width="40.0" x="280.0" y="160.0"/><rect fill="#000" height="40.0" stroke="#000" stroke-width="6.0" width="40.0" x="280.0" y="200.0"/><rect fill="#000" height="40.0" stroke="#000" stroke-width="6.0" width="40.0" x="280.0" y="240.0"/><rect fill="#000" height="40.0" stroke="#000" stroke-width="6.0" width="40.0" x="320.0" y="240.0"/><rect fill="#000" height="40.0" stroke="#000" stroke-width="6.0" width="40.0" x="280.0" y="280.0"/><rect fill="#95f666" height="40.0" stroke="#000" stroke-width="0.0" width="40.0" x="280.0" y="160.0"/><rect fill="#b2757b" height="24.0" stroke="#000" stroke-width="0.0" width="24.0" x="288.0" y="168.0"/><rect fill="#95f666" height="40.0" stroke="#000" stroke-width="0.0" width="40.0" x="280.0" y="200.0"/><rect fill="#b2757b" height="24.0" stroke="#000" stroke-width="0.0" width="24.0" x="288.0" y="208.0"/><rect fill="#95f666" height="40.0" stroke="#000" stroke-width="0.0" width="40.0" x="280.0" y="240.0"/><rect fill="#b2757b" height="24.0" stroke="#000" stroke-width="0.0" width="24.0" x="288.0" y="248.0"/><rect fill="#95f666" height="40.0" stroke="#000" stroke-width="0.0" width="40.0" x="320.0" y="240.0"/><rect fill="#b2757b" height="24.0" stroke="#000" stroke-width="0.0" width="24.0" x="328.0" y="248.0"/><rect fill="#95f666" height="40.0" stroke="#000" stroke-width="0.0" width="40.0" x="280.0" y="280.0"/><rect fill="#b2757b" height="24.0" stroke="#000" stroke-width="0.0" width="24.0" x="288.0" y="288.0"/><rect fill="#000" height="40.0" stroke="#000" stroke-width="6.0" width="40.0" x="200.0" y="120.0"/><rect fill="#000" height="40.0" stroke="#000" stroke-width="6.0" width="40.0" x="240.0" y="120.0"/><rect fill="#000" height="40.0" stroke="#000" stroke-width="6.0" width="40.0" x="280.0" y="120.0"/><rect fill="#000" height="40.0" stroke="#000" stroke-width="6.0" width="40.0" x="240.0" y="160.0"/><rect fill="#000" height="40.0" stroke="#000" stroke-width="6.0" width="40.0" x="240.0" y="200.0"/><rect fill="#d376be" height="40.0" stroke="#000" stroke-width="0.0" width="40.0" x="200.0" y="120.0"/><rect fill="#b2757b" height="24.0" stroke="#000" stroke-width="0.0" width="24.0" x="208.0" y="128.0"/><rect fill="#d376be" height="40.0" stroke="#000" stroke-width="0.0" width="40.0" x="240.0" y="120.0"/><rect fill="#b2757b" height="24.0" stroke="#000" stroke-width="0.0" width="24.0" x="248.0" y="128.0"/><rect fill="#d376be" height="40.0" stroke="#000" stroke-width="0.0" width="40.0" x="280.0" y="120.0"/><rect fill="#b2757b" height="24.0" stroke="#000" stroke-width="0.0" width="24.0" x="288.0" y="128.0"/><rect fill="#d376be" height="40.0" stroke="#000" stroke-width="0.0" width="40.0" x="240.0" y="160.0"/><rect fill="#b2757b" height="24.0" stroke="#000" stroke-width="0.0" width="24.0" x="248.0" y="168.0"/><rect fill="#d376be" height="40.0" stroke="#000" stroke-width="0.0" width="40.0" x="240.0" y="200.0"/><rect fill="#b2757b" height="24.0" stroke="#000" stroke-width="0.0" width="24.0" x="248.0" y="208.0"/><rect fill="#000" height="40.0" stroke="#000" stroke-width="6.0" width="40.0" x="40.0" y="40.0"/><rect fill="#000" height="40.0" stroke="#000" stroke-width="6.0" width="40.0" x="80.0" y="40.0"/><rect fill="#000" height="40.0" stroke="#000" stroke-width="6.0" width="40.0" x="120.0" y="40.0"/><rect fill="#000" height="40.0" stroke="#000" stroke-width="6.0" width="40.0" x="40.0" y="80.0"/><rect fill="#000" height="40.0" stroke="#000" stroke-width="6.0" width="40.0" x="40.0" y="120.0"/><rect fill="#25ec84" height="40.0" stroke="#000" stroke-width="0.0" width="40.0" x="40.0" y="40.0"/><rect fill="#b2757b" height="24.0" stroke="#000" stroke-width="0.0" width="24.0" x="48.0" y="48.0"/><rect fill="#25ec84" height="40.0" stroke="#000" stroke-width="0.0" width="40.0" x="80.0" y="40.0"/><rect fill="#b2757b" height="24.0" stroke="#000" stroke-width="0.0" width="24.0" x="88.0" y="48.0"/><rect fill="#25ec84" height="40.0" stroke="#000" stroke-width="0.0" width="40.0" x="120.0" y="40.0"/><rect fill="#b2757b" height="24.0" stroke="#000" stroke-width="0.0" width="24.0" x="128.0" y="48.0"/><rect fill="#25ec84" height="40.0" stroke="#000" stroke-width="0.0" width="40.0" x="40.0" y="80.0"/><rect fill="#b2757b" height="24.0" stroke="#000" stroke-width="0.0" width="24.0" x="48.0" y="88.0"/><rect fill="#25ec84" height="40.0" stroke="#000" stroke-width="0.0" width="40.0" x="40.0" y="120.0"/><rect fill="#b2757b" height="24.0" stroke="#000" stroke-width="0.0" width="24.0" x="48.0" y="128.0"/><rect fill="#000" height="40.0" stroke="#000" stroke-width="6.0" width="40.0" x="80.0" y="240.0"/><rect fill="#000" height="40.0" stroke="#000" stroke-width="6.0" width="40.0" x="120.0" y="240.0"/><rect fill="#000" height="40.0" stroke="#000" stroke-width="6.0" width="40.0" x="40.0" y="280.0"/><rect fill="#000" height="40.0" stroke="#000" stroke-width="6.0" width="40.0" x="80.0" y="280.0"/><rect fill="#000" height="40.0" stroke="#000" stroke-width="6.0" width="40.0" x="40.0" y="320.0"/><rect fill="#1b5b2a" height="40.0" stroke="#000" stroke-width="0.0" width="40.0" x="80.0" y="240.0"/><rect fill="#b2757b" height="24.0" stroke="#000" stroke-width="0.0" width="24.0" x="88.0" y="248.0"/><rect fill="#1b5b2a" height="40.0" stroke="#000" stroke-width="0.0" width="40.0" x="120.0" y="240.0"/><rect fill="#b2757b" height="24.0" stroke="#000" stroke-width="0.0" width="24.0" x="128.0" y="248.0"/><rect fill="#1b5b2a" height="40.0" stroke="#000" stroke-width="0.0" width="40.0" x="40.0" y="280.0"/><rect fill="#b2757b" height="24.0" stroke="#000" stroke-width="0.0" width="24.0" x="48.0" y="288.0"/><rect fill="#1b5b2a" height="40.0" stroke="#000" stroke-width="0.0" width="40.0" x="80.0" y="280.0"/><rect fill="#b2757b" height="24.0" stroke="#000" stroke-width="0.0" width="24.0" x="88.0" y="288.0"/><rect fill="#1b5b2a" height="40.0" stroke="#000" stroke-width="0.0" width="40.0" x="40.0" y="320.0"/><rect fill="#b2757b" height="24.0" stroke="#000" stroke-width="0.0" width="24.0" x="48.0" y="328.0"/><rect fill="#000" height="40.0" stroke="#000" stroke-width="6.0" width="40.0" x="160.0" y="40.0"/><rect fill="#000" height="40.0" stroke="#000" stroke-width="6.0" width="40.0" x="120.0" y="80.0"/><rect fill="#000" height="40.0" stroke="#000" stroke-width="6.0" width="40.0" x="160.0" y="80.0"/><rect fill="#000" height="40.0" stroke="#000" stroke-width="6.0" width="40.0" x="200.0" y="80.0"/><rect fill="#000" height="40.0" stroke="#000" stroke-width="6.0" width="40.0" x="160.0" y="120.0"/><rect fill="#47e8e2" height="40.0" stroke="#000" stroke-width="0.0" width="40.0" x="160.0" y="40.0"/><rect fill="#b2757b" height="24.0" stroke="#000" stroke-width="0.0" width="24.0" x="168.0" y="48.0"/><rect fill="#47e8e2" height="40.0" stroke="#000" stroke-width="0.0" width="40.0" x="120.0" y="80.0"/><rect fill="#b2757b" height="24.0" stroke="#000" stroke-width="0.0" width="24.0" x="128.0" y="88.0"/><rect fill="#47e8e2" height="40.0" stroke="#000" stroke-width="0.0" width="40.0" x="160.0" y="80.0"/><rect fill="#b2757b" height="24.0" stroke="#000" stroke-width="0.0" width="24.0" x="168.0" y="88.0"/><rect fill="#47e8e2" height="40.0" stroke="#000" stroke-width="0.0" width="40.0" x="200.0" y="80.0"/><rect fill="#b2757b" height="24.0" stroke="#000" stroke-width="0.0" width="24.0" x="208.0" y="88.0"/><rect fill="#47e8e2" height="40.0" stroke="#000" stroke-width="0.0" width="40.0" x="160.0" y="120.0"/><rect fill="#b2757b" height="24.0" stroke="#000" stroke-width="0.0" width="24.0" x="168.0" y="128.0"/><rect fill="#000" height="40.0" stroke="#000" stroke-width="6.0" width="40.0" x="240.0" y="280.0"/><rect fill="#000" height="40.0" stroke="#000" stroke-width="6.0" width="40.0" x="320.0" y="280.0"/><rect fill="#000" height="40.0" stroke="#000" stroke-width="6.0" width="40.0" x="240.0" y="320.0"/><rect fill="#000" height="40.0" stroke="#000" stroke-width="6.0" width="40.0" x="280.0" y="320.0"/><rect fill="#000" height="40.0" stroke="#000" stroke-width="6.0" width="40.0" x="320.0" y="320.0"/><rect fill="#2c0235" height="40.0" stroke="#000" stroke-width="0.0" width="40.0" x="240.0" y="280.0"/><rect fill="#b2757b" height="24.0" stroke="#000" stroke-width="0.0" width="24.0" x="248.0" y="288.0"/><rect fill="#2c0235" height="40.0" stroke="#000" stroke-width="0.0" width="40.0" x="320.0" y="280.0"/><rect fill="#b2757b" height="24.0" stroke="#000" stroke-width="0.0" width="24.0" x="328.0" y="288.0"/><rect fill="#2c0235" height="40.0" stroke="#000" stroke-width="0.0" width="40.0" x="240.0" y="320.0"/><rect fill="#b2757b" height="24.0" stroke="#000" stroke-width="0.0" width="24.0" x="248.0" y="328.0"/><rect fill="#2c0235" height="40.0" stroke="#000" stroke-width="0.0" width="40.0" x="280.0" y="320.0"/><rect fill="#b2757b" height="24.0" stroke="#000" stroke-width="0.0" width="24.0" x="288.0" y="328.0"/><rect fill="#2c0235" height="40.0" stroke="#000" stroke-width="0.0" width="40.0" x="320.0" y="320.0"/><rect fill="#b2757b" height="24.0" stroke="#000" stroke-width="0.0" width="24.0" x="328.0" y="328.0"/><rect fill="#000" height="40.0" stroke="#000" stroke-width="6.0" width="40.0" x="320.0" y="40.0"/><rect fill="#000" height="40.0" stroke="#000" stroke-width="6.0" width="40.0" x="320.0" y="80.0"/><rect fill="#000" height="40.0" stroke="#000" stroke-width="6.0" width="40.0" x="320.0" y="120.0"/><rect fill="#000" height="40.0" stroke="#000" stroke-width="6.0" width="40.0" x="320.0" y="160.0"/><rect fill="#000" height="40.0" stroke="#000" stroke-width="6.0" width="40.0" x="320.0" y="200.0"/><rect fill="#7fc583" height="40.0" stroke="#000" stroke-width="0.0" width="40.0" x="320.0" y="40.0"/><rect fill="#b2757b" height="24.0" stroke="#000" stroke-width="0.0" width="24.0" x="328.0" y="48.0"/><rect fill="#7fc583" height="40.0" stroke="#000" stroke-width="0.0" width="40.0" x="320.0" y="80.0"/><rect fill="#b2757b" height="24.0" stroke="#000" stroke-width="0.0" width="24.0" x="328.0" y="88.0"/><rect fill="#7fc583" height="40.0" stroke="#000" stroke-width="0.0" width="40.0" x="320.0" y="120.0"/><rect fill="#b2757b" height="24.0" stroke="#000" stroke-width="0.0" width="24.0" x="328.0" y="128.0"/><rect fill="#7fc583" height="40.0" stroke="#000" stroke-width="0.0" width="40.0" x="320.0" y="160.0"/><rect fill="#b2757b" height="24.0" stroke="#000" stroke-width="0.0" width="24.0" x="328.0" y="168.0"/><rect fill="#7fc583" height="40.0" stroke="#000" stroke-width="0.0" width="40.0" x="320.0" y="200.0"/><rect fill="#b2757b" height="24.0" stroke="#000" stroke-width="0.0" width="24.0" x="328.0" y="208.0"/><rect fill="#000" height="40.0" stroke="#000" stroke-width="6.0" width="40.0" x="200.0" y="280.0"/><rect fill="#000" height="40.0" stroke="#000" stroke-width="6.0" width="40.0" x="80.0" y="320.0"/><rect fill="#000" height="40.0" stroke="#000" stroke-width="6.0" width="40.0" x="120.0" y="320.0"/><rect fill="#000" height="40.0" stroke="#000" stroke-width="6.0" width="40.0" x="160.0" y="320.0"/><rect fill="#000" height="40.0" stroke="#000" stroke-width="6.0" width="40.0" x="200.0" y="320.0"/><rect fill="#d916cc" height="40.0" stroke="#000" stroke-width="0.0" width="40.0" x="200.0" y="280.0"/><rect fill="#b2757b" height="24.0" stroke="#000" stroke-width="0.0" width="24.0" x="208.0" y="288.0"/><rect fill="#d916cc" height="40.0" stroke="#000" stroke-width="0.0" width="40.0" x="80.0" y="320.0"/><rect fill="#b2757b" height="24.0" stroke="#000" stroke-width="0.0" width="24.0" x="88.0" y="328.0"/><rect fill="#d916cc" height="40.0" stroke="#000" stroke-width="0.0" width="40.0" x="120.0" y="320.0"/><rect fill="#b2757b" height="24.0" stroke="#000" stroke-width="0.0" width="24.0" x="128.0" y="328.0"/><rect fill="#d916cc" height="40.0" stroke="#000" stroke-width="0.0" width="40.0" x="160.0" y="320.0"/><rect fill="#b2757b" height="24.0" stroke="#000" stroke-width="0.0" width="24.0" x="168.0" y="328.0"/><rect fill="#d916cc" height="40.0" stroke="#000" stroke-width="0.0" width="40.0" x="200.0" y="320.0"/><rect fill="#b2757b" height="24.0" stroke="#000" stroke-width="0.0" width="24.0" x="208.0" y="328.0"/><rect fill="#000" height="40.0" stroke="#000" stroke-width="6.0" width="40.0" x="160.0" y="240.0"/><rect fill="#000" height="40.0" stroke="#000" stroke-width="6.0" width="40.0" x="200.0" y="240.0"/><rect fill="#000" height="40.0" stroke="#000" stroke-width="6.0" width="40.0" x="240.0" y="240.0"/><rect fill="#000" height="40.0" stroke="#000" stroke-width="6.0" width="40.0" x="120.0" y="280.0"/><rect fill="#000" height="40.0" stroke="#000" stroke-width="6.0" width="40.0" x="160.0" y="280.0"/><rect fill="#70e372" height="40.0" stroke="#000" stroke-width="0.0" width="40.0" x="160.0" y="240.0"/><rect fill="#b2757b" height="24.0" stroke="#000" stroke-width="0.0" width="24.0" x="168.0" y="248.0"/><rect fill="#70e372" height="40.0" stroke="#000" stroke-width="0.0" width="40.0" x="200.0" y="240.0"/><rect fill="#b2757b" height="24.0" stroke="#000" stroke-width="0.0" width="24.0" x="208.0" y="248.0"/><rect fill="#70e372" height="40.0" stroke="#000" stroke-width="0.0" width="40.0" x="240.0" y="240.0"/><rect fill="#b2757b" height="24.0" stroke="#000" stroke-width="0.0" width="24.0" x="248.0" y="248.0"/><rect fill="#70e372" height="40.0" stroke="#000" stroke-width="0.0" width="40.0" x="120.0" y="280.0"/><rect fill="#b2757b" height="24.0" stroke="#000" stroke-width="0.0" width="24.0" x="128.0" y="288.0"/><rect fill="#70e372" height="40.0" stroke="#000" stroke-width="0.0" width="40.0" x="160.0" y="280.0"/><rect fill="#b2757b" height="24.0" stroke="#000" stroke-width="0.0" width="24.0" x="168.0" y="288.0"/><rect fill="#000" height="40.0" stroke="#000" stroke-width="6.0" width="40.0" x="80.0" y="80.0"/><rect fill="#000" height="40.0" stroke="#000" stroke-width="6.0" width="40.0" x="80.0" y="120.0"/><rect fill="#000" height="40.0" stroke="#000" stroke-width="6.0" width="40.0" x="120.0" y="120.0"/><rect fill="#000" height="40.0" stroke="#000" stroke-width="6.0" width="40.0" x="40.0" y="160.0"/><rect fill="#000" height="40.0" stroke="#000" stroke-width="6.0" width="40.0" x="80.0" y="160.0"/><rect fill="#fae040" height="40.0" stroke="#000" stroke-width="0.0" width="40.0" x="80.0" y="80.0"/><rect fill="#b2757b" height="24.0" stroke="#000" stroke-width="0.0" width="24.0" x="88.0" y="88.0"/><rect fill="#fae040" height="40.0" stroke="#000" stroke-width="0.0" width="40.0" x="80.0" y="120.0"/><rect fill="#b2757b" height="24.0" stroke="#000" stroke-width="0.0" width="24.0" x="88.0" y="128.0"/><rect fill="#fae040" height="40.0" stroke="#000" stroke-width="0.0" width="40.0" x="120.0" y="120.0"/><rect fill="#b2757b" height="24.0" stroke="#000" stroke-width="0.0" width="24.0" x="128.0" y="128.0"/><rect fill="#fae040" height="40.0" stroke="#000" stroke-width="0.0" width="40.0" x="40.0" y="160.0"/><rect fill="#b2757b" height="24.0" stroke="#000" stroke-width="0.0" width="24.0" x="48.0" y="168.0"/><rect fill="#fae040" height="40.0" stroke="#000" stroke-width="0.0" width="40.0" x="80.0" y="160.0"/><rect fill="#b2757b" height="24.0" stroke="#000" stroke-width="0.0" width="24.0" x="88.0" y="168.0"/><rect fill="#000" height="40.0" stroke="#000" stroke-width="6.0" width="40.0" x="200.0" y="40.0"/><rect fill="#000" height="40.0" stroke="#000" stroke-width="6.0" width="40.0" x="240.0" y="40.0"/><rect fill="#000" height="40.0" stroke="#000" stroke-width="6.0" width="40.0" x="280.0" y="40.0"/><rect fill="#000" height="40.0" stroke="#000" stroke-width="6.0" width="40.0" x="240.0" y="80.0"/><rect fill="#000" height="40.0" stroke="#000" stroke-width="6.0" width="40.0" x="280.0" y="80.0"/><rect fill="#67a124" height="40.0" stroke="#000" stroke-width="0.0" width="40.0" x="200.0" y="40.0"/><rect fill="#b2757b" height="24.0" stroke="#000" stroke-width="0.0" width="24.0" x="208.0" y="48.0"/><rect fill="#67a124" height="40.0" stroke="#000" stroke-width="0.0" width="40.0" x="240.0" y="40.0"/><rect fill="#b2757b" height="24.0" stroke="#000" stroke-width="0.0" width="24.0" x="248.0" y="48.0"/><rect fill="#67a124" height="40.0" stroke="#000" stroke-width="0.0" width="40.0" x="280.0" y="40.0"/><rect fill="#b2757b" height="24.0" stroke="#000" stroke-width="0.0" width="24.0" x="288.0" y="48.0"/><rect fill="#67a124" height="40.0" stroke="#000" stroke-width="0.0" width="40.0" x="240.0" y="80.0"/><rect fill="#b2757b" height="24.0" stroke="#000" stroke-width="0.0" width="24.0" x="248.0" y="88.0"/><rect fill="#67a124" height="40.0" stroke="#000" stroke-width="0.0" width="40.0" x="280.0" y="80.0"/><rect fill="#b2757b" height="24.0" stroke="#000" stroke-width="0.0" width="24.0" x="288.0" y="88.0"/><rect fill="#000" height="40.0" stroke="#000" stroke-width="6.0" width="40.0" x="120.0" y="160.0"/><rect fill="#000" height="40.0" stroke="#000" stroke-width="6.0" width="40.0" x="40.0" y="200.0"/><rect fill="#000" height="40.0" stroke="#000" stroke-width="6.0" width="40.0" x="80.0" y="200.0"/><rect fill="#000" height="40.0" stroke="#000" stroke-width="6.0" width="40.0" x="120.0" y="200.0"/><rect fill="#000" height="40.0" stroke="#000" stroke-width="6.0" width="40.0" x="40.0" y="240.0"/><rect fill="#9a03fb" height="40.0" stroke="#000" stroke-width="0.0" width="40.0" x="120.0" y="160.0"/><rect fill="#b2757b" height="24.0" stroke="#000" stroke-width="0.0" width="24.0" x="128.0" y="168.0"/><rect fill="#9a03fb" height="40.0" stroke="#000" stroke-width="0.0" width="40.0" x="40.0" y="200.0"/><rect fill="#b2757b" height="24.0" stroke="#000" stroke-width="0.0" width="24.0" x="48.0" y="208.0"/><rect fill="#9a03fb" height="40.0" stroke="#000" stroke-width="0.0" width="40.0" x="80.0" y="200.0"/><rect fill="#b2757b" height="24.0" stroke="#000" stroke-width="0.0" width="24.0" x="88.0" y="208.0"/><rect fill="#9a03fb" height="40.0" stroke="#000" stroke-width="0.0" width="40.0" x="120.0" y="200.0"/><rect fill="#b2757b" height="24.0" stroke="#000" stroke-width="0.0" width="24.0" x="128.0" y="208.0"/><rect fill="#9a03fb" height="40.0" stroke="#000" stroke-width="0.0" width="40.0" x="40.0" y="240.0"/><rect fill="#b2757b" height="24.0" stroke="#000" stroke-width="0.0" width="24.0" x="48.0" y="248.0"/></svg>