<?xml version="1.0" ?><!DOCTYPE svg  PUBLIC '-//W3C//DTD SVG 1.1//EN'  'http://www.w3.org/Graphics/SVG/1.1/DTD/svg11.dtd'><svg height="422.000" viewBox="-11.000 -11.000 423.000 422.000" width="423.000" xmlns="http://www.w3.org/2000/svg"><rect fill="#007fff" height="400.0" stroke="#000" stroke-width="0.0" width="400.0" x="0.0" y="0.0"/><rect fill="#000" height="400.0" stroke="#000" stroke-width="0.0" width="0.0" x="400.0" y="0.0"/><rect fill="#eae439" height="40.0" stroke="#000" stroke-width="6.0" width="40.0" x="40.0" y="140.0"/><rect fill="#eae439" height="40.0" stroke="#000" stroke-width="6.0" width="40.0" x="80.0" y="140.0"/><rect fill="#eae439" height="40.0" stroke="#000" stroke-width="6.0" width="40.0" x="120.0" y="140.0"/><rect fill="#eae439" height="40.0" stroke="#000" stroke-width="6.0" width="40.0" x="160.0" y="140.0"/><rect fill="#eae439" height="40.0" stroke="#000" stroke-width="6.0" width="40.0" x="200.0" y="140.0"/><rect fill="#eae439" height="40.0" stroke="#000" stroke-width="6.0" width="40.0" x="240.0" y="140.0"/><rect fill="#eae439" height="40.0" stroke="#000" stroke-width="6.0" width="40.0" x="280.0" y="140.0"/><rect fill="#000" height="40.0" stroke="#000" stroke-width="6.0" width="40.0" x="320.0" y="140.0"/><rect fill="#eae439" height="40.0" stroke="#000" stroke-width="6.0" width="40.0" x="40.0" y="180.0"/><rect fill="#eae439" height="40.0" stroke="#000" stroke-width="6.0" width="40.0" x="80.0" y="180.0"/><rect fill="#eae439" height="40.0" stroke="#000" stroke-width="6.0" width="40.0" x="120.0" y="180.0"/><rect fill="#eae439" height="40.0" stroke="#000" stroke-width="6.0" width="40.0" x="160.0" y="180.0"/><rect fill="#eae439" height="40.0" stroke="#000" stroke-width="6.0" width="40.0" x="200.0" y="180.0"/><rect fill="#eae439" height="40.0" stroke="#000" stroke-width="6.0" width="40.0" x="240.0" y="180.0"/><rect fill="#000" height="40.0" stroke="#000" stroke-width="6.0" width="40.0" x="280.0" y="180.0"/><rect fill="#eae439" height="40.0" stroke="#000" stroke-width="6.0" width="40.0" x="320.0" y="180.0"/><rect fill="#eae439" height="40.0" stroke="#000" stroke-width="6.0" width="40.0" x="40.0" y="220.0"/><rect fill="#eae439" height="40.0" stroke="#000" stroke-width="6.0" width="40.0" x="80.0" y="220.0"/><rect fill="#eae439" height="40.0" stroke="#000" stroke-width="6.0" width="40.0" x="120.0" y="220.0"/><rect fill="#eae439" height="40.0" stroke="#000" stroke-width="6.0" width="40.0" x="160.0" y="220.0"/><rect fill="#eae439" height="40.0" stroke="#000" stroke-width="6.0" width="40.0" x="200.0" y="220.0"/><rect fill="#eae439" height="40.0" stroke="#000" stroke-width="6.0" width="40.0" x="240.0" y="220.0"/><rect fill="#eae439" height="40.0" stroke="#000" stroke-width="6.0" width="40.0" x="280.0" y="220.0"/><rect fill="#eae439" height="40.0" stroke="#000" stroke-width="6.0" width="40.0" x="320.0" y="220.0"/><rect fill="#000" height="40.0" stroke="#000" stroke-width="6.0" width="40.0" x="120.0" y="140.0"/><rect fill="#000" height="40.0" stroke="#000" stroke-width="6.0" width="40.0" x="160.0" y="140.0"/><rect fill="#000" height="40.0" stroke="#000" stroke-width="6.0" width="40.0" x="80.0" y="180.0"/><rect fill="#000" height="40.0" stroke="#000" stroke-width="6.0" width="40.0" x="120.0" y="180.0"/><rect fill="#000" height="40.0" stroke="#000" stroke-width="6.0" width="40.0" x="160.0" y="180.0"/><rect fill="#000" height="40.0" stroke="#000" stroke-width="6.0" width="40.0" x="80.0" y="220.0"/><rect fill="#000" height="40.0" stroke="#000" stroke-width="6.0" width="40.0" x="120.0" y="220.0"/><rect fill="#000" height="40.0" stroke="#000" stroke-width="6.0" width="40.0" x="160.0" y="220.0"/><rect fill="#d5bf05" height="40.0" stroke="#000" stroke-width="0.0" width="40.0" x="120.0" y="140.0"/><rect fill="#eae439" height="24.0" stroke="#000" stroke-width="0.0" width="24.0" x="128.0" y="148.0"/><rect fill="#d5bf05" height="40.0" stroke="#000" stroke-width="0.0" width="40.0" x="160.0" y="140.0"/><rect fill="#eae439" height="24.0" stroke="#000" stroke-width="0.0" width="24.0" x="168.0" y="148.0"/><rect fill="#d5bf05" height="40.0" stroke="#000" stroke-width="0.0" width="40.0" x="80.0" y="180.0"/><rect fill="#eae439" height="24.0" stroke="#000" stroke-width="0.0" width="24.0" x="88.0" y="188.0"/><rect fill="#d5bf05" height="40.0" stroke="#000" stroke-width="0.0" width="40.0" x="120.0" y="180.0"/><rect fill="#eae439" height="24.0" stroke="#000" stroke-width="0.0" width="24.0" x="128.0" y="188.0"/><rect fill="#d5bf05" height="40.0" stroke="#000" stroke-width="0.0" width="40.0" x="160.0" y="180.0"/><rect fill="#eae439" height="24.0" stroke="#000" stroke-width="0.0" width="24.0" x="168.0" y="188.0"/><rect fill="#d5bf05" height="40.0" stroke="#000" stroke-width="0.0" width="40.0" x="80.0" y="220.0"/><rect fill="#eae439" height="24.0" stroke="#000" stroke-width="0.0" width="24.0" x="88.0" y="228.0"/><rect fill="#d5bf05" height="40.0" stroke="#000" stroke-width="0.0" width="40.0" x="120.0" y="220.0"/><rect fill="#eae439" height="24.0" stroke="#000" stroke-width="0.0" width="24.0" x="128.0" y="228.0"/><rect fill="#d5bf05" height="40.0" stroke="#000" stroke-width="0.0" width="40.0" x="160.0" y="220.0"/><rect fill="#eae439" height="24.0" stroke="#000" stroke-width="0.0" width="24.0" x="168.0" y="228.0"/><rect fill="#000" height="40.0" stroke="#000" stroke-width="6.0" width="40.0" x="320.0" y="180.0"/><rect fill="#000" height="40.0" stroke="#000" stroke-width="6.0" width="40.0" x="280.0" y="220.0"/><rect fill="#000" height="40.0" stroke="#000" stroke-width="6.0" width="40.0" x="320.0" y="220.0"/><rect fill="#26ee13" height="40.0" stroke="#000" stroke-width="0.0" width="40.0" x="320.0" y="180.0"/><rect fill="#eae439" height="24.0" stroke="#000" stroke-width="0.0" width="24.0" x="328.0" y="188.0"/><rect fill="#26ee13" height="40.0" stroke="#000" stroke-width="0.0" width="40.0" x="280.0" y="220.0"/><rect fill="#eae439" height="24.0" stroke="#000" stroke-width="0.0" width="24.0" x="288.0" y="228.0"/><rect fill="#26ee13" height="40.0" stroke="#000" stroke-width="0.0" width="40.0" x="320.0" y="220.0"/><rect fill="#eae439" height="24.0" stroke="#000" stroke-width="0.0" width="24.0" x="328.0" y="228.0"/><rect fill="#000" height="40.0" stroke="#000" stroke-width="6.0" width="40.0" x="200.0" y="180.0"/><rect fill="#000" height="40.0" stroke="#000" stroke-width="6.0" width="40.0" x="200.0" y="220.0"/><rect fill="#000" height="40.0" stroke="#000" stroke-width="6.0" width="40.0" x="240.0" y="220.0"/><rect fill="#36c224" height="40.0" stroke="#000" stroke-width="0.0" width="40.0" x="200.0" y="180.0"/><rect fill="#eae439" height="24.0" stroke="#000" stroke-width="0.0" width="24.0" x="208.0" y="188.0"/><rect fill="#36c224" height="40.0" stroke="#000" stroke-width="0.0" width="40.0" x="200.0" y="220.0"/><rect fill="#eae439" height="24.0" stroke="#000" stroke-width="0.0" width="24.0" x="208.0" y="228.0"/><rect fill="#36c224" height="40.0" stroke="#000" stroke-width="0.0" width="40.0" x="240.0" y="220.0"/><rect fill="#eae439" height="24.0" stroke="#000" stroke-width="0.0" width="24.0" x="248.0" y="228.0"/><rect fill="#000" height="40.0" stroke="#000" stroke-width="6.0" width="40.0" x="200.0" y="140.0"/><rect fill="#000" height="40.0" stroke="#000" stroke-width="6.0" width="40.0" x="240.0" y="140.0"/><rect fill="#000" height="40.0" stroke="#000" stroke-width="6.0" width="40.0" x="280.0" y="140.0"/><rect fill="#000" height="40.0" stroke="#000" stroke-width="6.0" width="40.0" x="240.0" y="180.0"/><rect fill="#1a00d4" height="40.0" stroke="#000" stroke-width="0.0" width="40.0" x="200.0" y="140.0"/><rect fill="#eae439" height="24.0" stroke="#000" stroke-width="0.0" width="24.0" x="208.0" y="148.0"/><rect fill="#1a00d4" height="40.0" stroke="#000" stroke-width="0.0" width="40.0" x="240.0" y="140.0"/><rect fill="#eae439" height="24.0" stroke="#000" stroke-width="0.0" width="24.0" x="248.0" y="148.0"/><rect fill="#1a00d4" height="40.0" stroke="#000" stroke-width="0.0" width="40.0" x="280.0" y="140.0"/><rect fill="#eae439" height="24.0" stroke="#000" stroke-width="0.0" width="24.0" x="288.0" y="148.0"/><rect fill="#1a00d4" height="40.0" stroke="#000" stroke-width="0.0" width="40.0" x="240.0" y="180.0"/><rect fill="#eae439" height="24.0" stroke="#000" stroke-width="0.0" width="24.0" x="248.0" y="188.0"/><rect fill="#000" height="40.0" stroke="#000" stroke-width="6.0" width="40.0" x="40.0" y="140.0"/><rect fill="#000" height="40.0" stroke="#000" stroke-width="6.0" width="40.0" x="80.0" y="140.0"/><rect fill="#8c3384" height="40.0" stroke="#000" stroke-width="0.0" width="40.0" x="40.0" y="140.0"/><rect fill="#eae439" height="24.0" stroke="#000" stroke-width="0.0" width="24.0" x="48.0" y="148.0"/><rect fill="#8c3384" height="40.0" stroke="#000" stroke-width="0.0" width="40.0" x="80.0" y="140.0"/><rect fill="#eae439" height="24.0" stroke="#000" stroke-width="0.0" width="24.0" x="88.0" y="148.0"/><rect fill="#000" height="40.0" stroke="#000" stroke-width="6.0" width="40.0" x="40.0" y="180.0"/><rect fill="#000" height="40.0" stroke="#000" stroke-width="6.0" width="40.0" x="40.0" y="220.0"/><rect fill="#e4083d" height="40.0" stroke="#000" stroke-width="0.0" width="40.0" x="40.0" y="180.0"/><rect fill="#eae439" height="24.0" stroke="#000" stroke-width="0.0" width="24.0" x="48.0" y="188.0"/><rect fill="#e4083d" height="40.0" stroke="#000" stroke-width="0.0" width="40.0" x="40.0" y="220.0"/><rect fill="#eae439" height="24.0" stroke="#000" stroke-width="0.0" width="24.0" x="48.0" y="228.0"/></svg>