<?xml version="1.0" ?><!DOCTYPE svg  PUBLIC '-//W3C//DTD SVG 1.1//EN'  'http://www.w3.org/Graphics/SVG/1.1/DTD/svg11.dtd'><svg height="422.000" viewBox="-11.000 -11.000 423.000 422.000" width="423.000" xmlns="http://www.w3.org/2000/svg"><rect fill="#007fff" height="400.0" stroke="#000" stroke-width="0.0" width="400.0" x="0.0" y="0.0"/><rect fill="#000" height="400.0" stroke="#000" stroke-width="0.0" width="0.0" x="400.0" y="0.0"/><rect fill="#000" height="29.0" stroke="#000" stroke-width="6.0" width="29.0" x="40.0" y="98.0"/><rect fill="#8ee259" height="29.0" stroke="#000" stroke-width="6.0" width="29.0" x="69.0" y="98.0"/><rect fill="#8ee259" height="29.0" stroke="#000" stroke-width="6.0" width="29.0" x="98.0" y="98.0"/><rect fill="#8ee259" height="29.0" stroke="#000" stroke-width="6.0" width="29.0" x="127.0" y="98.0"/><rect fill="#8ee259" height="29.0" stroke="#000" stroke-width="6.0" width="29.0" x="156.0" y="98.0"/><rect fill="#8ee259" height="29.0" stroke="#000" stroke-width="6.0" width="29.0" x="185.0" y="98.0"/><rect fill="#8ee259" height="29.0" stroke="#000" stroke-width="6.0" width="29.0" x="214.0" y="98.0"/><rect fill="#8ee259" height="29.0" stroke="#000" stroke-width="6.0" width="29.0" x="243.0" y="98.0"/><rect fill="#8ee259" height="29.0" stroke="#000" stroke-width="6.0" width="29.0" x="272.0" y="98.0"/><rect fill="#8ee259" height="29.0" stroke="#000" stroke-width="6.0" width="29.0" x="301.0" y="98.0"/><rect fill="#000" height="29.0" stroke="#000" stroke-width="6.0" width="29.0" x="330.0" y="98.0"/><rect fill="#8ee259" height="29.0" stroke="#000" stroke-width="6.0" width="29.0" x="40.0" y="127.0"/><rect fill="#8ee259" height="29.0" stroke="#000" stroke-width="6.0" width="29.0" x="69.0" y="127.0"/><rect fill="#8ee259" height="29.0" stroke="#000" stroke-width="6.0" width="29.0" x="98.0" y="127.0"/><rect fill="#000" height="29.0" stroke="#000" stroke-width="6.0" width="29.0" x="127.0" y="127.0"/><rect fill="#8ee259" height="29.0" stroke="#000" stroke-width="6.0" width="29.0" x="156.0" y="127.0"/><rect fill="#000" height="29.0" stroke="#000" stroke-width="6.0" width="29.0" x="185.0" y="127.0"/><rect fill="#8ee259" height="29.0" stroke="#000" stroke-width="6.0" width="29.0" x="214.0" y="127.0"/><rect fill="#000" height="29.0" stroke="#000" stroke-width="6.0" width="29.0" x="243.0" y="127.0"/><rect fill="#8ee259" height="29.0" stroke="#000" stroke-width="6.0" width="29.0" x="272.0" y="127.0"/><rect fill="#8ee259" height="29.0" stroke="#000" stroke-width="6.0" width="29.0" x="301.0" y="127.0"/><rect fill="#8ee259" height="29.0" stroke="#000" stroke-width="6.0" width="29.0" x="330.0" y="127.0"/><rect fill="#8ee259" height="29.0" stroke="#000" stroke-width="6.0" width="29.0" x="40.0" y="156.0"/><rect fill="#000" height="29.0" stroke="#000" stroke-width="6.0" width="29.0" x="69.0" y="156.0"/><rect fill="#8ee259" height="29.0" stroke="#000" stroke-width="6.0" width="29.0" x="98.0" y="156.0"/><rect fill="#8ee259" height="29.0" stroke="#000" stroke-width="6.0" width="29.0" x="127.0" y="156.0"/><rect fill="#8ee259" height="29.0" stroke="#000" stroke-width="6.0" width="29.0" x="156.0" y="156.0"/><rect fill="#8ee259" height="29.0" stroke="#000" stroke-width="6.0" width="29.0" x="185.0" y="156.0"/><rect fill="#8ee259" height="29.0" stroke="#000" stroke-width="6.0" width="29.0" x="214.0" y="156.0"/><rect fill="#8ee259" height="29.0" stroke="#000" stroke-width="6.0" width="29.0" x="243.0" y="156.0"/><rect fill="#8ee259" height="29.0" stroke="#000" stroke-width="6.0" width="29.0" x="272.0" y="156.0"/><rect fill="#000" height="29.0" stroke="#000" stroke-width="6.0" width="29.0" x="301.0" y="156.0"/><rect fill="#8ee259" height="29.0" stroke="#000" stroke-width="6.0" width="29.0" x="330.0" y="156.0"/><rect fill="#8ee259" height="29.0" stroke="#000" stroke-width="6.0" width="29.0" x="40.0" y="185.0"/><rect fill="#8ee259" height="29.0" stroke="#000" stroke-width="6.0" width="29.0" x="69.0" y="185.0"/><rect fill="#8ee259" height="29.0" stroke="#000" stroke-width="6.0" width="29.0" x="98.0" y="185.0"/><rect fill="#000" height="29.0" stroke="#000" stroke-width="6.0" width="29.0" x="127.0" y="185.0"/><rect fill="#8ee259" height="29.0" stroke="#000" stroke-width="6.0" width="29.0" x="156.0" y="185.0"/><rect fill="#000" height="29.0" stroke="#000" stroke-width="6.0" width="29.0" x="185.0" y="185.0"/><rect fill="#8ee259" height="29.0" stroke="#000" stroke-width="6.0" width="29.0" x="214.0" y="185.0"/><rect fill="#000" height="29.0" stroke="#000" stroke-width="6.0" width="29.0" x="243.0" y="185.0"/><rect fill="#8ee259" height="29.0" stroke="#000" stroke-width="6.0" width="29.0" x="272.0" y="185.0"/><rect fill="#8ee259" height="29.0" stroke="#000" stroke-width="6.0" width="29.0" x="301.0" y="185.0"/><rect fill="#8ee259" height="29.0" stroke="#000" stroke-width="6.0" width="29.0" x="330.0" y="185.0"/><rect fill="#8ee259" height="29.0" stroke="#000" stroke-width="6.0" width="29.0" x="40.0" y="214.0"/><rect fill="#000" height="29.0" stroke="#000" stroke-width="6.0" width="29.0" x="69.0" y="214.0"/><rect fill="#8ee259" height="29.0" stroke="#000" stroke-width="6.0" width="29.0" x="98.0" y="214.0"/><rect fill="#8ee259" height="29.0" stroke="#000" stroke-width="6.0" width="29.0" x="127.0" y="214.0"/><rect fill="#8ee259" height="29.0" stroke="#000" stroke-width="6.0" width="29.0" x="156.0" y="214.0"/><rect fill="#8ee259" height="29.0" stroke="#000" stroke-width="6.0" width="29.0" x="185.0" y="214.0"/><rect fill="#8ee259" height="29.0" stroke="#000" stroke-width="6.0" width="29.0" x="214.0" y="214.0"/><rect fill="#8ee259" height="29.0" stroke="#000" stroke-width="6.0" width="29.0" x="243.0" y="214.0"/><rect fill="#8ee259" height="29.0" stroke="#000" stroke-width="6.0" width="29.0" x="272.0" y="214.0"/><rect fill="#000" height="29.0" stroke="#000" stroke-width="6.0" width="29.0" x="301.0" y="214.0"/><rect fill="#8ee259" height="29.0" stroke="#000" stroke-width="6.0" width="29.0" x="330.0" y="214.0"/><rect fill="#8ee259" height="29.0" stroke="#000" stroke-width="6.0" width="29.0" x="40.0" y="243.0"/><rect fill="#8ee259" height="29.0" stroke="#000" stroke-width="6.0" width="29.0" x="69.0" y="243.0"/><rect fill="#8ee259" height="29.0" stroke="#000" stroke-width="6.0" width="29.0" x="98.0" y="243.0"/><rect fill="#000" height="29.0" stroke="#000" stroke-width="6.0" width="29.0" x="127.0" y="243.0"/><rect fill="#8ee259" height="29.0" stroke="#000" stroke-width="6.0" width="29.0" x="156.0" y="243.0"/><rect fill="#000" height="29.0" stroke="#000" stroke-width="6.0" width="29.0" x="185.0" y="243.0"/><rect fill="#8ee259" height="29.0" stroke="#000" stroke-width="6.0" width="29.0" x="214.0" y="243.0"/><rect fill="#000" height="29.0" stroke="#000" stroke-width="6.0" width="29.0" x="243.0" y="243.0"/><rect fill="#8ee259" height="29.0" stroke="#000" stroke-width="6.0" width="29.0" x="272.0" y="243.0"/><rect fill="#8ee259" height="29.0" stroke="#000" stroke-width="6.0" width="29.0" x="301.0" y="243.0"/><rect fill="#8ee259" height="29.0" stroke="#000" stroke-width="6.0" width="29.0" x="330.0" y="243.0"/><rect fill="#000" height="29.0" stroke="#000" stroke-width="6.0" width="29.0" x="40.0" y="272.0"/><rect fill="#8ee259" height="29.0" stroke="#000" stroke-width="6.0" width="29.0" x="69.0" y="272.0"/><rect fill="#8ee259" height="29.0" stroke="#000" stroke-width="6.0" width="29.0" x="98.0" y="272.0"/><rect fill="#8ee259" height="29.0" stroke="#000" stroke-width="6.0" width="29.0" x="127.0" y="272.0"/><rect fill="#8ee259" height="29.0" stroke="#000" stroke-width="6.0" width="29.0" x="156.0" y="272.0"/><rect fill="#8ee259" height="29.0" stroke="#000" stroke-width="6.0" width="29.0" x="185.0" y="272.0"/><rect fill="#8ee259" height="29.0" stroke="#000" stroke-width="6.0" width="29.0" x="214.0" y="272.0"/><rect fill="#8ee259" height="29.0" stroke="#000" stroke-width="6.0" width="29.0" x="243.0" y="272.0"/><rect fill="#8ee259" height="29.0" stroke="#000" stroke-width="6.0" width="29.0" x="272.0" y="272.0"/><rect fill="#8ee259" height="29.0" stroke="#000" stroke-width="6.0" width="29.0" x="301.0" y="272.0"/><rect fill="#000" height="29.0" stroke="#000" stroke-width="6.0" width="29.0" x="330.0" y="272.0"/><rect fill="#000" height="29.0" stroke="#000" stroke-width="6.0" width="29.0" x="156.0" y="214.0"/><rect fill="#000" height="29.0" stroke="#000" stroke-width="6.0" width="29.0" x="185.0" y="214.0"/><rect fill="#000" height="29.0" stroke="#000" stroke-width="6.0" width="29.0" x="214.0" y="214.0"/><rect fill="#000" height="29.0" stroke="#000" stroke-width="6.0" width="29.0" x="243.0" y="214.0"/><rect fill="#000" height="29.0" stroke="#000" stroke-width="6.0" width="29.0" x="272.0" y="214.0"/><rect fill="#21442a" height="29.0" stroke="#000" stroke-width="0.0" width="29.0" x="156.0" y="214.0"/><rect fill="#8ee259" height="19.0" stroke="#000" stroke-width="0.0" width="19.0" x="161.0" y="219.0"/><rect fill="#21442a" height="29.0" stroke="#000" stroke-width="0.0" width="29.0" x="185.0" y="214.0"/><rect fill="#8ee259" height="19.0" stroke="#000" stroke-width="0.0" width="19.0" x="190.0" y="219.0"/><rect fill="#21442a" height="29.0" stroke="#000" stroke-width="0.0" width="29.0" x="214.0" y="214.0"/><rect fill="#8ee259" height="19.0" stroke="#000" stroke-width="0.0" width="19.0" x="219.0" y="219.0"/><rect fill="#21442a" height="29.0" stroke="#000" stroke-width="0.0" width="29.0" x="243.0" y="214.0"/><rect fill="#8ee259" height="19.0" stroke="#000" stroke-width="0.0" width="19.0" x="248.0" y="219.0"/><rect fill="#21442a" height="29.0" stroke="#000" stroke-width="0.0" width="29.0" x="272.0" y="214.0"/><rect fill="#8ee259" height="19.0" stroke="#000" stroke-width="0.0" width="19.0" x="277.0" y="219.0"/><rect fill="#000" height="29.0" stroke="#000" stroke-width="6.0" width="29.0" x="40.0" y="127.0"/><rect fill="#000" height="29.0" stroke="#000" stroke-width="6.0" width="29.0" x="69.0" y="127.0"/><rect fill="#000" height="29.0" stroke="#000" stroke-width="6.0" width="29.0" x="40.0" y="156.0"/><rect fill="#000" height="29.0" stroke="#000" stroke-width="6.0" width="29.0" x="40.0" y="185.0"/><rect fill="#000" height="29.0" stroke="#000" stroke-width="6.0" width="29.0" x="40.0" y="214.0"/><rect fill="#7e9160" height="29.0" stroke="#000" stroke-width="0.0" width="29.0" x="40.0" y="127.0"/><rect fill="#8ee259" height="19.0" stroke="#000" stroke-width="0.0" width="19.0" x="45.0" y="132.0"/><rect fill="#7e9160" height="29.0" stroke="#000" stroke-width="0.0" width="29.0" x="69.0" y="127.0"/><rect fill="#8ee259" height="19.0" stroke="#000" stroke-width="0.0" width="19.0" x="74.0" y="132.0"/><rect fill="#7e9160" height="29.0" stroke="#000" stroke-width="0.0" width="29.0" x="40.0" y="156.0"/><rect fill="#8ee259" height="19.0" stroke="#000" stroke-width="0.0" width="19.0" x="45.0" y="161.0"/><rect fill="#7e9160" height="29.0" stroke="#000" stroke-width="0.0" width="29.0" x="40.0" y="185.0"/><rect fill="#8ee259" height="19.0" stroke="#000" stroke-width="0.0" width="19.0" x="45.0" y="190.0"/><rect fill="#7e9160" height="29.0" stroke="#000" stroke-width="0.0" width="29.0" x="40.0" y="214.0"/><rect fill="#8ee259" height="19.0" stroke="#000" stroke-width="0.0" width="19.0" x="45.0" y="219.0"/><rect fill="#000" height="29.0" stroke="#000" stroke-width="6.0" width="29.0" x="40.0" y="243.0"/><rect fill="#000" height="29.0" stroke="#000" stroke-width="6.0" width="29.0" x="69.0" y="243.0"/><rect fill="#000" height="29.0" stroke="#000" stroke-width="6.0" width="29.0" x="69.0" y="272.0"/><rect fill="#000" height="29.0" stroke="#000" stroke-width="6.0" width="29.0" x="98.0" y="272.0"/><rect fill="#000" height="29.0" stroke="#000" stroke-width="6.0" width="29.0" x="127.0" y="272.0"/><rect fill="#3c84c8" height="29.0" stroke="#000" stroke-width="0.0" width="29.0" x="40.0" y="243.0"/><rect fill="#8ee259" height="19.0" stroke="#000" stroke-width="0.0" width="19.0" x="45.0" y="248.0"/><rect fill="#3c84c8" height="29.0" stroke="#000" stroke-width="0.0" width="29.0" x="69.0" y="243.0"/><rect fill="#8ee259" height="19.0" stroke="#000" stroke-width="0.0" width="19.0" x="74.0" y="248.0"/><rect fill="#3c84c8" height="29.0" stroke="#000" stroke-width="0.0" width="29.0" x="69.0" y="272.0"/><rect fill="#8ee259" height="19.0" stroke="#000" stroke-width="0.0" width="19.0" x="74.0" y="277.0"/><rect fill="#3c84c8" height="29.0" stroke="#000" stroke-width="0.0" width="29.0" x="98.0" y="272.0"/><rect fill="#8ee259" height="19.0" stroke="#000" stroke-width="0.0" width="19.0" x="103.0" y="277.0"/><rect fill="#3c84c8" height="29.0" stroke="#000" stroke-width="0.0" width="29.0" x="127.0" y="272.0"/><rect fill="#8ee259" height="19.0" stroke="#000" stroke-width="0.0" width="19.0" x="132.0" y="277.0"/><rect fill="#000" height="29.0" stroke="#000" stroke-width="6.0" width="29.0" x="69.0" y="185.0"/><rect fill="#000" height="29.0" stroke="#000" stroke-width="6.0" width="29.0" x="98.0" y="185.0"/><rect fill="#000" height="29.0" stroke="#000" stroke-width="6.0" width="29.0" x="98.0" y="214.0"/><rect fill="#000" height="29.0" stroke="#000" stroke-width="6.0" width="29.0" x="127.0" y="214.0"/><rect fill="#000" height="29.0" stroke="#000" stroke-width="6.0" width="29.0" x="98.0" y="243.0"/><rect fill="#1a64cd" height="29.0" stroke="#000" stroke-width="0.0" width="29.0" x="69.0" y="185.0"/><rect fill="#8ee259" height="19.0" stroke="#000" stroke-width="0.0" width="19.0" x="74.0" y="190.0"/><rect fill="#1a64cd" height="29.0" stroke="#000" stroke-width="0.0" width="29.0" x="98.0" y="185.0"/><rect fill="#8ee259" height="19.0" stroke="#000" stroke-width="0.0" width="19.0" x="103.0" y="190.0"/><rect fill="#1a64cd" height="29.0" stroke="#000" stroke-width="0.0" width="29.0" x="98.0" y="214.0"/><rect fill="#8ee259" height="19.0" stroke="#000" stroke-width="0.0" width="19.0" x="103.0" y="219.0"/><rect fill="#1a64cd" height="29.0" stroke="#000" stroke-width="0.0" width="29.0" x="127.0" y="214.0"/><rect fill="#8ee259" height="19.0" stroke="#000" stroke-width="0.0" width="19.0" x="132.0" y="219.0"/><rect fill="#1a64cd" height="29.0" stroke="#000" stroke-width="0.0" width="29.0" x="98.0" y="243.0"/><rect fill="#8ee259" height="19.0" stroke="#000" stroke-width="0.0" width="19.0" x="103.0" y="248.0"/><rect fill="#000" height="29.0" stroke="#000" stroke-width="6.0" width="29.0" x="272.0" y="243.0"/><rect fill="#000" height="29.0" stroke="#000" stroke-width="6.0" width="29.0" x="301.0" y="243.0"/><rect fill="#000" height="29.0" stroke="#000" stroke-width="6.0" width="29.0" x="243.0" y="272.0"/><rect fill="#000" height="29.0" stroke="#000" stroke-width="6.0" width="29.0" x="272.0" y="272.0"/><rect fill="#000" height="29.0" stroke="#000" stroke-width="6.0" width="29.0" x="301.0" y="272.0"/><rect fill="#488a2f" height="29.0" stroke="#000" stroke-width="0.0" width="29.0" x="272.0" y="243.0"/><rect fill="#8ee259" height="19.0" stroke="#000" stroke-width="0.0" width="19.0" x="277.0" y="248.0"/><rect fill="#488a2f" height="29.0" stroke="#000" stroke-width="0.0" width="29.0" x="301.0" y="243.0"/><rect fill="#8ee259" height="19.0" stroke="#000" stroke-width="0.0" width="19.0" x="306.0" y="248.0"/><rect fill="#488a2f" height="29.0" stroke="#000" stroke-width="0.0" width="29.0" x="243.0" y="272.0"/><rect fill="#8ee259" height="19.0" stroke="#000" stroke-width="0.0" width="19.0" x="248.0" y="277.0"/><rect fill="#488a2f" height="29.0" stroke="#000" stroke-width="0.0" width="29.0" x="272.0" y="272.0"/><rect fill="#8ee259" height="19.0" stroke="#000" stroke-width="0.0" width="19.0" x="277.0" y="277.0"/><rect fill="#488a2f" height="29.0" stroke="#000" stroke-width="0.0" width="29.0" x="301.0" y="272.0"/><rect fill="#8ee259" height="19.0" stroke="#000" stroke-width="0.0" width="19.0" x="306.0" y="277.0"/><rect fill="#000" height="29.0" stroke="#000" stroke-width="6.0" width="29.0" x="272.0" y="127.0"/><rect fill="#000" height="29.0" stroke="#000" stroke-width="6.0" width="29.0" x="214.0" y="156.0"/><rect fill="#000" height="29.0" stroke="#000" stroke-width="6.0" width="29.0" x="243.0" y="156.0"/><rect fill="#000" height="29.0" stroke="#000" stroke-width="6.0" width="29.0" x="272.0" y="156.0"/><rect fill="#000" height="29.0" stroke="#000" stroke-width="6.0" width="29.0" x="214.0" y="185.0"/><rect fill="#2d5602" height="29.0" stroke="#000" stroke-width="0.0" width="29.0" x="272.0" y="127.0"/><rect fill="#8ee259" height="19.0" stroke="#000" stroke-width="0.0" width="19.0" x="277.0" y="132.0"/><rect fill="#2d5602" height="29.0" stroke="#000" stroke-width="0.0" width="29.0" x="214.0" y="156.0"/><rect fill="#8ee259" height="19.0" stroke="#000" stroke-width="0.0" width="19.0" x="219.0" y="161.0"/><rect fill="#2d5602" height="29.0" stroke="#000" stroke-width="0.0" width="29.0" x="243.0" y="156.0"/><rect fill="#8ee259" height="19.0" stroke="#000" stroke-width="0.0" width="19.0" x="248.0" y="161.0"/><rect fill="#2d5602" height="29.0" stroke="#000" stroke-width="0.0" width="29.0" x="272.0" y="156.0"/><rect fill="#8ee259" height="19.0" stroke="#000" stroke-width="0.0" width="19.0" x="277.0" y="161.0"/><rect fill="#2d5602" height="29.0" stroke="#000" stroke-width="0.0" width="29.0" x="214.0" y="185.0"/><rect fill="#8ee259" height="19.0" stroke="#000" stroke-width="0.0" width="19.0" x="219.0" y="190.0"/><rect fill="#000" height="29.0" stroke="#000" stroke-width="6.0" width="29.0" x="156.0" y="98.0"/><rect fill="#000" height="29.0" stroke="#000" stroke-width="6.0" width="29.0" x="185.0" y="98.0"/><rect fill="#000" height="29.0" stroke="#000" stroke-width="6.0" width="29.0" x="214.0" y="98.0"/><rect fill="#000" height="29.0" stroke="#000" stroke-width="6.0" width="29.0" x="243.0" y="98.0"/><rect fill="#000" height="29.0" stroke="#000" stroke-width="6.0" width="29.0" x="214.0" y="127.0"/><rect fill="#a93f30" height="29.0" stroke="#000" stroke-width="0.0" width="29.0" x="156.0" y="98.0"/><rect fill="#8ee259" height="19.0" stroke="#000" stroke-width="0.0" width="19.0" x="161.0" y="103.0"/><rect fill="#a93f30" height="29.0" stroke="#000" stroke-width="0.0" width="29.0" x="185.0" y="98.0"/><rect fill="#8ee259" height="19.0" stroke="#000" stroke-width="0.0" width="19.0" x="190.0" y="103.0"/><rect fill="#a93f30" height="29.0" stroke="#000" stroke-width="0.0" width="29.0" x="214.0" y="98.0"/><rect fill="#8ee259" height="19.0" stroke="#000" stroke-width="0.0" width="19.0" x="219.0" y="103.0"/><rect fill="#a93f30" height="29.0" stroke="#000" stroke-width="0.0" width="29.0" x="243.0" y="98.0"/><rect fill="#8ee259" height="19.0" stroke="#000" stroke-width="0.0" width="19.0" x="248.0" y="103.0"/><rect fill="#a93f30" height="29.0" stroke="#000" stroke-width="0.0" width="29.0" x="214.0" y="127.0"/><rect fill="#8ee259" height="19.0" stroke="#000" stroke-width="0.0" width="19.0" x="219.0" y="132.0"/><rect fill="#000" height="29.0" stroke="#000" stroke-width="6.0" width="29.0" x="69.0" y="98.0"/><rect fill="#000" height="29.0" stroke="#000" stroke-width="6.0" width="29.0" x="98.0" y="98.0"/><rect fill="#000" height="29.0" stroke="#000" stroke-width="6.0" width="29.0" x="127.0" y="98.0"/><rect fill="#000" height="29.0" stroke="#000" stroke-width="6.0" width="29.0" x="98.0" y="127.0"/><rect fill="#000" height="29.0" stroke="#000" stroke-width="6.0" width="29.0" x="98.0" y="156.0"/><rect fill="#9b420f" height="29.0" stroke="#000" stroke-width="0.0" width="29.0" x="69.0" y="98.0"/><rect fill="#8ee259" height="19.0" stroke="#000" stroke-width="0.0" width="19.0" x="74.0" y="103.0"/><rect fill="#9b420f" height="29.0" stroke="#000" stroke-width="0.0" width="29.0" x="98.0" y="98.0"/><rect fill="#8ee259" height="19.0" stroke="#000" stroke-width="0.0" width="19.0" x="103.0" y="103.0"/><rect fill="#9b420f" height="29.0" stroke="#000" stroke-width="0.0" width="29.0" x="127.0" y="98.0"/><rect fill="#8ee259" height="19.0" stroke="#000" stroke-width="0.0" width="19.0" x="132.0" y="103.0"/><rect fill="#9b420f" height="29.0" stroke="#000" stroke-width="0.0" width="29.0" x="98.0" y="127.0"/><rect fill="#8ee259" height="19.0" stroke="#000" stroke-width="0.0" width="19.0" x="103.0" y="132.0"/><rect fill="#9b420f" height="29.0" stroke="#000" stroke-width="0.0" width="29.0" x="98.0" y="156.0"/><rect fill="#8ee259" height="19.0" stroke="#000" stroke-width="0.0" width="19.0" x="103.0" y="161.0"/><rect fill="#000" height="29.0" stroke="#000" stroke-width="6.0" width="29.0" x="272.0" y="185.0"/><rect fill="#000" height="29.0" stroke="#000" stroke-width="6.0" width="29.0" x="301.0" y="185.0"/><rect fill="#000" height="29.0" stroke="#000" stroke-width="6.0" width="29.0" x="330.0" y="185.0"/><rect fill="#000" height="29.0" stroke="#000" stroke-width="6.0" width="29.0" x="330.0" y="214.0"/><rect fill="#000" height="29.0" stroke="#000" stroke-width="6.0" width="29.0" x="330.0" y="243.0"/><rect fill="#59cecc" height="29.0" stroke="#000" stroke-width="0.0" width="29.0" x="272.0" y="185.0"/><rect fill="#8ee259" height="19.0" stroke="#000" stroke-width="0.0" width="19.0" x="277.0" y="190.0"/><rect fill="#59cecc" height="29.0" stroke="#000" stroke-width="0.0" width="29.0" x="301.0" y="185.0"/><rect fill="#8ee259" height="19.0" stroke="#000" stroke-width="0.0" width="19.0" x="306.0" y="190.0"/><rect fill="#59cecc" height="29.0" stroke="#000" stroke-width="0.0" width="29.0" x="330.0" y="185.0"/><rect fill="#8ee259" height="19.0" stroke="#000" stroke-width="0.0" width="19.0" x="335.0" y="190.0"/><rect fill="#59cecc" height="29.0" stroke="#000" stroke-width="0.0" width="29.0" x="330.0" y="214.0"/><rect fill="#8ee259" height="19.0" stroke="#000" stroke-width="0.0" width="19.0" x="335.0" y="219.0"/><rect fill="#59cecc" height="29.0" stroke="#000" stroke-width="0.0" width="29.0" x="330.0" y="243.0"/><rect fill="#8ee259" height="19.0" stroke="#000" stroke-width="0.0" width="19.0" x="335.0" y="248.0"/><rect fill="#000" height="29.0" stroke="#000" stroke-width="6.0" width="29.0" x="272.0" y="98.0"/><rect fill="#000" height="29.0" stroke="#000" stroke-width="6.0" width="29.0" x="301.0" y="98.0"/><rect fill="#000" height="29.0" stroke="#000" stroke-width="6.0" width="29.0" x="301.0" y="127.0"/><rect fill="#000" height="29.0" stroke="#000" stroke-width="6.0" width="29.0" x="330.0" y="127.0"/><rect fill="#000" height="29.0" stroke="#000" stroke-width="6.0" width="29.0" x="330.0" y="156.0"/><rect fill="#e14eab" height="29.0" stroke="#000" stroke-width="0.0" width="29.0" x="272.0" y="98.0"/><rect fill="#8ee259" height="19.0" stroke="#000" stroke-width="0.0" width="19.0" x="277.0" y="103.0"/><rect fill="#e14eab" height="29.0" stroke="#000" stroke-width="0.0" width="29.0" x="301.0" y="98.0"/><rect fill="#8ee259" height="19.0" stroke="#000" stroke-width="0.0" width="19.0" x="306.0" y="103.0"/><rect fill="#e14eab" height="29.0" stroke="#000" stroke-width="0.0" width="29.0" x="301.0" y="127.0"/><rect fill="#8ee259" height="19.0" stroke="#000" stroke-width="0.0" width="19.0" x="306.0" y="132.0"/><rect fill="#e14eab" height="29.0" stroke="#000" stroke-width="0.0" width="29.0" x="330.0" y="127.0"/><rect fill="#8ee259" height="19.0" stroke="#000" stroke-width="0.0" width="19.0" x="335.0" y="132.0"/><rect fill="#e14eab" height="29.0" stroke="#000" stroke-width="0.0" width="29.0" x="330.0" y="156.0"/><rect fill="#8ee259" height="19.0" stroke="#000" stroke-width="0.0" width="19.0" x="335.0" y="161.0"/><rect fill="#000" height="29.0" stroke="#000" stroke-width="6.0" width="29.0" x="156.0" y="127.0"/><rect fill="#000" height="29.0" stroke="#000" stroke-width="6.0" width="29.0" x="127.0" y="156.0"/><rect fill="#000" height="29.0" stroke="#000" stroke-width="6.0" width="29.0" x="156.0" y="156.0"/><rect fill="#000" height="29.0" stroke="#000" stroke-width="6.0" width="29.0" x="185.0" y="156.0"/><rect fill="#000" height="29.0" stroke="#000" stroke-width="6.0" width="29.0" x="156.0" y="185.0"/><rect fill="#48c2a3" height="29.0" stroke="#000" stroke-width="0.0" width="29.0" x="156.0" y="127.0"/><rect fill="#8ee259" height="19.0" stroke="#000" stroke-width="0.0" width="19.0" x="161.0" y="132.0"/><rect fill="#48c2a3" height="29.0" stroke="#000" stroke-width="0.0" width="29.0" x="127.0" y="156.0"/><rect fill="#8ee259" height="19.0" stroke="#000" stroke-width="0.0" width="19.0" x="132.0" y="161.0"/><rect fill="#48c2a3" height="29.0" stroke="#000" stroke-width="0.0" width="29.0" x="156.0" y="156.0"/><rect fill="#8ee259" height="19.0" stroke="#000" stroke-width="0.0" width="19.0" x="161.0" y="161.0"/><rect fill="#48c2a3" height="29.0" stroke="#000" stroke-width="0.0" width="29.0" x="185.0" y="156.0"/><rect fill="#8ee259" height="19.0" stroke="#000" stroke-width="0.0" width="19.0" x="190.0" y="161.0"/><rect fill="#48c2a3" height="29.0" stroke="#000" stroke-width="0.0" width="29.0" x="156.0" y="185.0"/><rect fill="#8ee259" height="19.0" stroke="#000" stroke-width="0.0" width="19.0" x="161.0" y="190.0"/><rect fill="#000" height="29.0" stroke="#000" stroke-width="6.0" width="29.0" x="156.0" y="243.0"/><rect fill="#000" height="29.0" stroke="#000" stroke-width="6.0" width="29.0" x="214.0" y="243.0"/><rect fill="#000" height="29.0" stroke="#000" stroke-width="6.0" width="29.0" x="156.0" y="272.0"/><rect fill="#000" height="29.0" stroke="#000" stroke-width="6.0" width="29.0" x="185.0" y="272.0"/><rect fill="#000" height="29.0" stroke="#000" stroke-width="6.0" width="29.0" x="214.0" y="272.0"/><rect fill="#acd899" height="29.0" stroke="#000" stroke-width="0.0" width="29.0" x="156.0" y="243.0"/><rect fill="#8ee259" height="19.0" stroke="#000" stroke-width="0.0" width="19.0" x="161.0" y="248.0"/><rect fill="#acd899" height="29.0" stroke="#000" stroke-width="0.0" width="29.0" x="214.0" y="243.0"/><rect fill="#8ee259" height="19.0" stroke="#000" stroke-width="0.0" width="19.0" x="219.0" y="248.0"/><rect fill="#acd899" height="29.0" stroke="#000" stroke-width="0.0" width="29.0" x="156.0" y="272.0"/><rect fill="#8ee259" height="19.0" stroke="#000" stroke-width="0.0" width="19.0" x="161.0" y="277.0"/><rect fill="#acd899" height="29.0" stroke="#000" stroke-width="0.0" width="29.0" x="185.0" y="272.0"/><rect fill="#8ee259" height="19.0" stroke="#000" stroke-width="0.0" width="19.0" x="190.0" y="277.0"/><rect fill="#acd899" height="29.0" stroke="#000" stroke-width="0.0" width="29.0" x="214.0" y="272.0"/><rect fill="#8ee259" height="19.0" stroke="#000" stroke-width="0.0" width="19.0" x="219.0" y="277.0"/></svg>