<?xml version="1.0" ?><!DOCTYPE svg  PUBLIC '-//W3C//DTD SVG 1.1//EN'  'http://www.w3.org/Graphics/SVG/1.1/DTD/svg11.dtd'><svg height="422.000" viewBox="-11.000 -11.000 423.000 422.000" width="423.000" xmlns="http://www.w3.org/2000/svg"><rect fill="#007fff" height="400.0" stroke="#000" stroke-width="0.0" width="400.0" x="0.0" y="0.0"/><rect fill="#000" height="400.0" stroke="#000" stroke-width="0.0" width="0.0" x="400.0" y="0.0"/><rect fill="#a4d689" height="21.0" stroke="#000" stroke-width="6.0" width="21.0" x="40.0" y="158.0"/><rect fill="#a4d689" height="21.0" stroke="#000" stroke-width="6.0" width="21.0" x="61.0" y="158.0"/><rect fill="#a4d689" height="21.0" stroke="#000" stroke-width="6.0" width="21.0" x="82.0" y="158.0"/><rect fill="#a4d689" height="21.0" stroke="#000" stroke-width="6.0" width="21.0" x="103.0" y="158.0"/><rect fill="#a4d689" height="21.0" stroke="#000" stroke-width="6.0" width="21.0" x="124.0" y="158.0"/><rect fill="#a4d689" height="21.0" stroke="#000" stroke-width="6.0" width="21.0" x="145.0" y="158.0"/><rect fill="#a4d689" height="21.0" stroke="#000" stroke-width="6.0" width="21.0" x="166.0" y="158.0"/><rect fill="#a4d689" height="21.0" stroke="#000" stroke-width="6.0" width="21.0" x="187.0" y="158.0"/><rect fill="#a4d689" height="21.0" stroke="#000" stroke-width="6.0" width="21.0" x="208.0" y="158.0"/><rect fill="#a4d689" height="21.0" stroke="#000" stroke-width="6.0" width="21.0" x="229.0" y="158.0"/><rect fill="#a4d689" height="21.0" stroke="#000" stroke-width="6.0" width="21.0" x="250.0" y="158.0"/><rect fill="#a4d689" height="21.0" stroke="#000" stroke-width="6.0" width="21.0" x="271.0" y="158.0"/><rect fill="#a4d689" height="21.0" stroke="#000" stroke-width="6.0" width="21.0" x="292.0" y="158.0"/><rect fill="#a4d689" height="21.0" stroke="#000" stroke-width="6.0" width="21.0" x="313.0" y="158.0"/><rect fill="#a4d689" height="21.0" stroke="#000" stroke-width="6.0" width="21.0" x="334.0" y="158.0"/><rect fill="#a4d689" height="21.0" stroke="#000" stroke-width="6.0" width="21.0" x="40.0" y="179.0"/><rect fill="#a4d689" height="21.0" stroke="#000" stroke-width="6.0" width="21.0" x="61.0" y="179.0"/><rect fill="#a4d689" height="21.0" stroke="#000" stroke-width="6.0" width="21.0" x="82.0" y="179.0"/><rect fill="#a4d689" height="21.0" stroke="#000" stroke-width="6.0" width="21.0" x="103.0" y="179.0"/><rect fill="#a4d689" height="21.0" stroke="#000" stroke-width="6.0" width="21.0" x="124.0" y="179.0"/><rect fill="#a4d689" height="21.0" stroke="#000" stroke-width="6.0" width="21.0" x="145.0" y="179.0"/><rect fill="#a4d689" height="21.0" stroke="#000" stroke-width="6.0" width="21.0" x="166.0" y="179.0"/><rect fill="#a4d689" height="21.0" stroke="#000" stroke-width="6.0" width="21.0" x="187.0" y="179.0"/><rect fill="#a4d689" height="21.0" stroke="#000" stroke-width="6.0" width="21.0" x="208.0" y="179.0"/><rect fill="#a4d689" height="21.0" stroke="#000" stroke-width="6.0" width="21.0" x="229.0" y="179.0"/><rect fill="#a4d689" height="21.0" stroke="#000" stroke-width="6.0" width="21.0" x="250.0" y="179.0"/><rect fill="#a4d689" height="21.0" stroke="#000" stroke-width="6.0" width="21.0" x="271.0" y="179.0"/><rect fill="#a4d689" height="21.0" stroke="#000" stroke-width="6.0" width="21.0" x="292.0" y="179.0"/><rect fill="#a4d689" height="21.0" stroke="#000" stroke-width="6.0" width="21.0" x="313.0" y="179.0"/><rect fill="#a4d689" height="21.0" stroke="#000" stroke-width="6.0" width="21.0" x="334.0" y="179.0"/><rect fill="#a4d689" height="21.0" stroke="#000" stroke-width="6.0" width="21.0" x="40.0" y="200.0"/><rect fill="#a4d689" height="21.0" stroke="#000" stroke-width="6.0" width="21.0" x="61.0" y="200.0"/><rect fill="#a4d689" height="21.0" stroke="#000" stroke-width="6.0" width="21.0" x="82.0" y="200.0"/><rect fill="#a4d689" height="21.0" stroke="#000" stroke-width="6.0" width="21.0" x="103.0" y="200.0"/><rect fill="#a4d689" height="21.0" stroke="#000" stroke-width="6.0" width="21.0" x="124.0" y="200.0"/><rect fill="#a4d689" height="21.0" stroke="#000" stroke-width="6.0" width="21.0" x="145.0" y="200.0"/><rect fill="#a4d689" height="21.0" stroke="#000" stroke-width="6.0" width="21.0" x="166.0" y="200.0"/><rect fill="#a4d689" height="21.0" stroke="#000" stroke-width="6.0" width="21.0" x="187.0" y="200.0"/><rect fill="#a4d689" height="21.0" stroke="#000" stroke-width="6.0" width="21.0" x="208.0" y="200.0"/><rect fill="#a4d689" height="21.0" stroke="#000" stroke-width="6.0" width="21.0" x="229.0" y="200.0"/><rect fill="#a4d689" height="21.0" stroke="#000" stroke-width="6.0" width="21.0" x="250.0" y="200.0"/><rect fill="#a4d689" height="21.0" stroke="#000" stroke-width="6.0" width="21.0" x="271.0" y="200.0"/><rect fill="#a4d689" height="21.0" stroke="#000" stroke-width="6.0" width="21.0" x="292.0" y="200.0"/><rect fill="#a4d689" height="21.0" stroke="#000" stroke-width="6.0" width="21.0" x="313.0" y="200.0"/><rect fill="#a4d689" height="21.0" stroke="#000" stroke-width="6.0" width="21.0" x="334.0" y="200.0"/><rect fill="#a4d689" height="21.0" stroke="#000" stroke-width="6.0" width="21.0" x="40.0" y="221.0"/><rect fill="#a4d689" height="21.0" stroke="#000" stroke-width="6.0" width="21.0" x="61.0" y="221.0"/><rect fill="#a4d689" height="21.0" stroke="#000" stroke-width="6.0" width="21.0" x="82.0" y="221.0"/><rect fill="#a4d689" height="21.0" stroke="#000" stroke-width="6.0" width="21.0" x="103.0" y="221.0"/><rect fill="#a4d689" height="21.0" stroke="#000" stroke-width="6.0" width="21.0" x="124.0" y="221.0"/><rect fill="#a4d689" height="21.0" stroke="#000" stroke-width="6.0" width="21.0" x="145.0" y="221.0"/><rect fill="#a4d689" height="21.0" stroke="#000" stroke-width="6.0" width="21.0" x="166.0" y="221.0"/><rect fill="#a4d689" height="21.0" stroke="#000" stroke-width="6.0" width="21.0" x="187.0" y="221.0"/><rect fill="#a4d689" height="21.0" stroke="#000" stroke-width="6.0" width="21.0" x="208.0" y="221.0"/><rect fill="#a4d689" height="21.0" stroke="#000" stroke-width="6.0" width="21.0" x="229.0" y="221.0"/><rect fill="#a4d689" height="21.0" stroke="#000" stroke-width="6.0" width="21.0" x="250.0" y="221.0"/><rect fill="#a4d689" height="21.0" stroke="#000" stroke-width="6.0" width="21.0" x="271.0" y="221.0"/><rect fill="#a4d689" height="21.0" stroke="#000" stroke-width="6.0" width="21.0" x="292.0" y="221.0"/><rect fill="#a4d689" height="21.0" stroke="#000" stroke-width="6.0" width="21.0" x="313.0" y="221.0"/><rect fill="#a4d689" height="21.0" stroke="#000" stroke-width="6.0" width="21.0" x="334.0" y="221.0"/><rect fill="#000" height="21.0" stroke="#000" stroke-width="6.0" width="21.0" x="103.0" y="158.0"/><rect fill="#000" height="21.0" stroke="#000" stroke-width="6.0" width="21.0" x="124.0" y="158.0"/><rect fill="#000" height="21.0" stroke="#000" stroke-width="6.0" width="21.0" x="145.0" y="158.0"/><rect fill="#000" height="21.0" stroke="#000" stroke-width="6.0" width="21.0" x="166.0" y="158.0"/><rect fill="#000" height="21.0" stroke="#000" stroke-width="6.0" width="21.0" x="124.0" y="179.0"/><rect fill="#c016b1" height="21.0" stroke="#000" stroke-width="0.0" width="21.0" x="103.0" y="158.0"/><rect fill="#a4d689" height="13.0" stroke="#000" stroke-width="0.0" width="13.0" x="107.0" y="162.0"/><rect fill="#c016b1" height="21.0" stroke="#000" stroke-width="0.0" width="21.0" x="124.0" y="158.0"/><rect fill="#a4d689" height="13.0" stroke="#000" stroke-width="0.0" width="13.0" x="128.0" y="162.0"/><rect fill="#c016b1" height="21.0" stroke="#000" stroke-width="0.0" width="21.0" x="145.0" y="158.0"/><rect fill="#a4d689" height="13.0" stroke="#000" stroke-width="0.0" width="13.0" x="149.0" y="162.0"/><rect fill="#c016b1" height="21.0" stroke="#000" stroke-width="0.0" width="21.0" x="166.0" y="158.0"/><rect fill="#a4d689" height="13.0" stroke="#000" stroke-width="0.0" width="13.0" x="170.0" y="162.0"/><rect fill="#c016b1" height="21.0" stroke="#000" stroke-width="0.0" width="21.0" x="124.0" y="179.0"/><rect fill="#a4d689" height="13.0" stroke="#000" stroke-width="0.0" width="13.0" x="128.0" y="183.0"/><rect fill="#000" height="21.0" stroke="#000" stroke-width="6.0" width="21.0" x="145.0" y="179.0"/><rect fill="#000" height="21.0" stroke="#000" stroke-width="6.0" width="21.0" x="103.0" y="200.0"/><rect fill="#000" height="21.0" stroke="#000" stroke-width="6.0" width="21.0" x="124.0" y="200.0"/><rect fill="#000" height="21.0" stroke="#000" stroke-width="6.0" width="21.0" x="145.0" y="200.0"/><rect fill="#000" height="21.0" stroke="#000" stroke-width="6.0" width="21.0" x="145.0" y="221.0"/><rect fill="#9a7056" height="21.0" stroke="#000" stroke-width="0.0" width="21.0" x="145.0" y="179.0"/><rect fill="#a4d689" height="13.0" stroke="#000" stroke-width="0.0" width="13.0" x="149.0" y="183.0"/><rect fill="#9a7056" height="21.0" stroke="#000" stroke-width="0.0" width="21.0" x="103.0" y="200.0"/><rect fill="#a4d689" height="13.0" stroke="#000" stroke-width="0.0" width="13.0" x="107.0" y="204.0"/><rect fill="#9a7056" height="21.0" stroke="#000" stroke-width="0.0" width="21.0" x="124.0" y="200.0"/><rect fill="#a4d689" height="13.0" stroke="#000" stroke-width="0.0" width="13.0" x="128.0" y="204.0"/><rect fill="#9a7056" height="21.0" stroke="#000" stroke-width="0.0" width="21.0" x="145.0" y="200.0"/><rect fill="#a4d689" height="13.0" stroke="#000" stroke-width="0.0" width="13.0" x="149.0" y="204.0"/><rect fill="#9a7056" height="21.0" stroke="#000" stroke-width="0.0" width="21.0" x="145.0" y="221.0"/><rect fill="#a4d689" height="13.0" stroke="#000" stroke-width="0.0" width="13.0" x="149.0" y="225.0"/><rect fill="#000" height="21.0" stroke="#000" stroke-width="6.0" width="21.0" x="334.0" y="179.0"/><rect fill="#000" height="21.0" stroke="#000" stroke-width="6.0" width="21.0" x="334.0" y="200.0"/><rect fill="#000" height="21.0" stroke="#000" stroke-width="6.0" width="21.0" x="292.0" y="221.0"/><rect fill="#000" height="21.0" stroke="#000" stroke-width="6.0" width="21.0" x="313.0" y="221.0"/><rect fill="#000" height="21.0" stroke="#000" stroke-width="6.0" width="21.0" x="334.0" y="221.0"/><rect fill="#202207" height="21.0" stroke="#000" stroke-width="0.0" width="21.0" x="334.0" y="179.0"/><rect fill="#a4d689" height="13.0" stroke="#000" stroke-width="0.0" width="13.0" x="338.0" y="183.0"/><rect fill="#202207" height="21.0" stroke="#000" stroke-width="0.0" width="21.0" x="334.0" y="200.0"/><rect fill="#a4d689" height="13.0" stroke="#000" stroke-width="0.0" width="13.0" x="338.0" y="204.0"/><rect fill="#202207" height="21.0" stroke="#000" stroke-width="0.0" width="21.0" x="292.0" y="221.0"/><rect fill="#a4d689" height="13.0" stroke="#000" stroke-width="0.0" width="13.0" x="296.0" y="225.0"/><rect fill="#202207" height="21.0" stroke="#000" stroke-width="0.0" width="21.0" x="313.0" y="221.0"/><rect fill="#a4d689" height="13.0" stroke="#000" stroke-width="0.0" width="13.0" x="317.0" y="225.0"/><rect fill="#202207" height="21.0" stroke="#000" stroke-width="0.0" width="21.0" x="334.0" y="221.0"/><rect fill="#a4d689" height="13.0" stroke="#000" stroke-width="0.0" width="13.0" x="338.0" y="225.0"/><rect fill="#000" height="21.0" stroke="#000" stroke-width="6.0" width="21.0" x="208.0" y="158.0"/><rect fill="#000" height="21.0" stroke="#000" stroke-width="6.0" width="21.0" x="229.0" y="158.0"/><rect fill="#000" height="21.0" stroke="#000" stroke-width="6.0" width="21.0" x="229.0" y="179.0"/><rect fill="#000" height="21.0" stroke="#000" stroke-width="6.0" width="21.0" x="250.0" y="179.0"/><rect fill="#000" height="21.0" stroke="#000" stroke-width="6.0" width="21.0" x="250.0" y="200.0"/><rect fill="#bcb60d" height="21.0" stroke="#000" stroke-width="0.0" width="21.0" x="208.0" y="158.0"/><rect fill="#a4d689" height="13.0" stroke="#000" stroke-width="0.0" width="13.0" x="212.0" y="162.0"/><rect fill="#bcb60d" height="21.0" stroke="#000" stroke-width="0.0" width="21.0" x="229.0" y="158.0"/><rect fill="#a4d689" height="13.0" stroke="#000" stroke-width="0.0" width="13.0" x="233.0" y="162.0"/><rect fill="#bcb60d" height="21.0" stroke="#000" stroke-width="0.0" width="21.0" x="229.0" y="179.0"/><rect fill="#a4d689" height="13.0" stroke="#000" stroke-width="0.0" width="13.0" x="233.0" y="183.0"/><rect fill="#bcb60d" height="21.0" stroke="#000" stroke-width="0.0" width="21.0" x="250.0" y="179.0"/><rect fill="#a4d689" height="13.0" stroke="#000" stroke-width="0.0" width="13.0" x="254.0" y="183.0"/><rect fill="#bcb60d" height="21.0" stroke="#000" stroke-width="0.0" width="21.0" x="250.0" y="200.0"/><rect fill="#a4d689" height="13.0" stroke="#000" stroke-width="0.0" width="13.0" x="254.0" y="204.0"/><rect fill="#000" height="21.0" stroke="#000" stroke-width="6.0" width="21.0" x="82.0" y="158.0"/><rect fill="#000" height="21.0" stroke="#000" stroke-width="6.0" width="21.0" x="61.0" y="179.0"/><rect fill="#000" height="21.0" stroke="#000" stroke-width="6.0" width="21.0" x="82.0" y="179.0"/><rect fill="#000" height="21.0" stroke="#000" stroke-width="6.0" width="21.0" x="103.0" y="179.0"/><rect fill="#000" height="21.0" stroke="#000" stroke-width="6.0" width="21.0" x="82.0" y="200.0"/><rect fill="#ff657a" height="21.0" stroke="#000" stroke-width="0.0" width="21.0" x="82.0" y="158.0"/><rect fill="#a4d689" height="13.0" stroke="#000" stroke-width="0.0" width="13.0" x="86.0" y="162.0"/><rect fill="#ff657a" height="21.0" stroke="#000" stroke-width="0.0" width="21.0" x="61.0" y="179.0"/><rect fill="#a4d689" height="13.0" stroke="#000" stroke-width="0.0" width="13.0" x="65.0" y="183.0"/><rect fill="#ff657a" height="21.0" stroke="#000" stroke-width="0.0" width="21.0" x="82.0" y="179.0"/><rect fill="#a4d689" height="13.0" stroke="#000" stroke-width="0.0" width="13.0" x="86.0" y="183.0"/><rect fill="#ff657a" height="21.0" stroke="#000" stroke-width="0.0" width="21.0" x="103.0" y="179.0"/><rect fill="#a4d689" height="13.0" stroke="#000" stroke-width="0.0" width="13.0" x="107.0" y="183.0"/><rect fill="#ff657a" height="21.0" stroke="#000" stroke-width="0.0" width="21.0" x="82.0" y="200.0"/><rect fill="#a4d689" height="13.0" stroke="#000" stroke-width="0.0" width="13.0" x="86.0" y="204.0"/><rect fill="#000" height="21.0" stroke="#000" stroke-width="6.0" width="21.0" x="40.0" y="158.0"/><rect fill="#000" height="21.0" stroke="#000" stroke-width="6.0" width="21.0" x="61.0" y="158.0"/><rect fill="#000" height="21.0" stroke="#000" stroke-width="6.0" width="21.0" x="40.0" y="179.0"/><rect fill="#000" height="21.0" stroke="#000" stroke-width="6.0" width="21.0" x="40.0" y="200.0"/><rect fill="#000" height="21.0" stroke="#000" stroke-width="6.0" width="21.0" x="61.0" y="200.0"/><rect fill="#7eed91" height="21.0" stroke="#000" stroke-width="0.0" width="21.0" x="40.0" y="158.0"/><rect fill="#a4d689" height="13.0" stroke="#000" stroke-width="0.0" width="13.0" x="44.0" y="162.0"/><rect fill="#7eed91" height="21.0" stroke="#000" stroke-width="0.0" width="21.0" x="61.0" y="158.0"/><rect fill="#a4d689" height="13.0" stroke="#000" stroke-width="0.0" width="13.0" x="65.0" y="162.0"/><rect fill="#7eed91" height="21.0" stroke="#000" stroke-width="0.0" width="21.0" x="40.0" y="179.0"/><rect fill="#a4d689" height="13.0" stroke="#000" stroke-width="0.0" width="13.0" x="44.0" y="183.0"/><rect fill="#7eed91" height="21.0" stroke="#000" stroke-width="0.0" width="21.0" x="40.0" y="200.0"/><rect fill="#a4d689" height="13.0" stroke="#000" stroke-width="0.0" width="13.0" x="44.0" y="204.0"/><rect fill="#7eed91" height="21.0" stroke="#000" stroke-width="0.0" width="21.0" x="61.0" y="200.0"/><rect fill="#a4d689" height="13.0" stroke="#000" stroke-width="0.0" width="13.0" x="65.0" y="204.0"/><rect fill="#000" height="21.0" stroke="#000" stroke-width="6.0" width="21.0" x="40.0" y="221.0"/><rect fill="#000" height="21.0" stroke="#000" stroke-width="6.0" width="21.0" x="61.0" y="221.0"/><rect fill="#000" height="21.0" stroke="#000" stroke-width="6.0" width="21.0" x="82.0" y="221.0"/><rect fill="#000" height="21.0" stroke="#000" stroke-width="6.0" width="21.0" x="103.0" y="221.0"/><rect fill="#000" height="21.0" stroke="#000" stroke-width="6.0" width="21.0" x="124.0" y="221.0"/><rect fill="#68e886" height="21.0" stroke="#000" stroke-width="0.0" width="21.0" x="40.0" y="221.0"/><rect fill="#a4d689" height="13.0" stroke="#000" stroke-width="0.0" width="13.0" x="44.0" y="225.0"/><rect fill="#68e886" height="21.0" stroke="#000" stroke-width="0.0" width="21.0" x="61.0" y="221.0"/><rect fill="#a4d689" height="13.0" stroke="#000" stroke-width="0.0" width="13.0" x="65.0" y="225.0"/><rect fill="#68e886" height="21.0" stroke="#000" stroke-width="0.0" width="21.0" x="82.0" y="221.0"/><rect fill="#a4d689" height="13.0" stroke="#000" stroke-width="0.0" width="13.0" x="86.0" y="225.0"/><rect fill="#68e886" height="21.0" stroke="#000" stroke-width="0.0" width="21.0" x="103.0" y="221.0"/><rect fill="#a4d689" height="13.0" stroke="#000" stroke-width="0.0" width="13.0" x="107.0" y="225.0"/><rect fill="#68e886" height="21.0" stroke="#000" stroke-width="0.0" width="21.0" x="124.0" y="221.0"/><rect fill="#a4d689" height="13.0" stroke="#000" stroke-width="0.0" width="13.0" x="128.0" y="225.0"/><rect fill="#000" height="21.0" stroke="#000" stroke-width="6.0" width="21.0" x="271.0" y="200.0"/><rect fill="#000" height="21.0" stroke="#000" stroke-width="6.0" width="21.0" x="208.0" y="221.0"/><rect fill="#000" height="21.0" stroke="#000" stroke-width="6.0" width="21.0" x="229.0" y="221.0"/><rect fill="#000" height="21.0" stroke="#000" stroke-width="6.0" width="21.0" x="250.0" y="221.0"/><rect fill="#000" height="21.0" stroke="#000" stroke-width="6.0" width="21.0" x="271.0" y="221.0"/><rect fill="#416b4d" height="21.0" stroke="#000" stroke-width="0.0" width="21.0" x="271.0" y="200.0"/><rect fill="#a4d689" height="13.0" stroke="#000" stroke-width="0.0" width="13.0" x="275.0" y="204.0"/><rect fill="#416b4d" height="21.0" stroke="#000" stroke-width="0.0" width="21.0" x="208.0" y="221.0"/><rect fill="#a4d689" height="13.0" stroke="#000" stroke-width="0.0" width="13.0" x="212.0" y="225.0"/><rect fill="#416b4d" height="21.0" stroke="#000" stroke-width="0.0" width="21.0" x="229.0" y="221.0"/><rect fill="#a4d689" height="13.0" stroke="#000" stroke-width="0.0" width="13.0" x="233.0" y="225.0"/><rect fill="#416b4d" height="21.0" stroke="#000" stroke-width="0.0" width="21.0" x="250.0" y="221.0"/><rect fill="#a4d689" height="13.0" stroke="#000" stroke-width="0.0" width="13.0" x="254.0" y="225.0"/><rect fill="#416b4d" height="21.0" stroke="#000" stroke-width="0.0" width="21.0" x="271.0" y="221.0"/><rect fill="#a4d689" height="13.0" stroke="#000" stroke-width="0.0" width="13.0" x="275.0" y="225.0"/><rect fill="#000" height="21.0" stroke="#000" stroke-width="6.0" width="21.0" x="187.0" y="158.0"/><rect fill="#000" height="21.0" stroke="#000" stroke-width="6.0" width="21.0" x="166.0" y="179.0"/><rect fill="#000" height="21.0" stroke="#000" stroke-width="6.0" width="21.0" x="187.0" y="179.0"/><rect fill="#000" height="21.0" stroke="#000" stroke-width="6.0" width="21.0" x="166.0" y="200.0"/><rect fill="#000" height="21.0" stroke="#000" stroke-width="6.0" width="21.0" x="166.0" y="221.0"/><rect fill="#f803be" height="21.0" stroke="#000" stroke-width="0.0" width="21.0" x="187.0" y="158.0"/><rect fill="#a4d689" height="13.0" stroke="#000" stroke-width="0.0" width="13.0" x="191.0" y="162.0"/><rect fill="#f803be" height="21.0" stroke="#000" stroke-width="0.0" width="21.0" x="166.0" y="179.0"/><rect fill="#a4d689" height="13.0" stroke="#000" stroke-width="0.0" width="13.0" x="170.0" y="183.0"/><rect fill="#f803be" height="21.0" stroke="#000" stroke-width="0.0" width="21.0" x="187.0" y="179.0"/><rect fill="#a4d689" height="13.0" stroke="#000" stroke-width="0.0" width="13.0" x="191.0" y="183.0"/><rect fill="#f803be" height="21.0" stroke="#000" stroke-width="0.0" width="21.0" x="166.0" y="200.0"/><rect fill="#a4d689" height="13.0" stroke="#000" stroke-width="0.0" width="13.0" x="170.0" y="204.0"/><rect fill="#f803be" height="21.0" stroke="#000" stroke-width="0.0" width="21.0" x="166.0" y="221.0"/><rect fill="#a4d689" height="13.0" stroke="#000" stroke-width="0.0" width="13.0" x="170.0" y="225.0"/><rect fill="#000" height="21.0" stroke="#000" stroke-width="6.0" width="21.0" x="208.0" y="179.0"/><rect fill="#000" height="21.0" stroke="#000" stroke-width="6.0" width="21.0" x="187.0" y="200.0"/><rect fill="#000" height="21.0" stroke="#000" stroke-width="6.0" width="21.0" x="208.0" y="200.0"/><rect fill="#000" height="21.0" stroke="#000" stroke-width="6.0" width="21.0" x="229.0" y="200.0"/><rect fill="#000" height="21.0" stroke="#000" stroke-width="6.0" width="21.0" x="187.0" y="221.0"/><rect fill="#41a7d2" height="21.0" stroke="#000" stroke-width="0.0" width="21.0" x="208.0" y="179.0"/><rect fill="#a4d689" height="13.0" stroke="#000" stroke-width="0.0" width="13.0" x="212.0" y="183.0"/><rect fill="#41a7d2" height="21.0" stroke="#000" stroke-width="0.0" width="21.0" x="187.0" y="200.0"/><rect fill="#a4d689" height="13.0" stroke="#000" stroke-width="0.0" width="13.0" x="191.0" y="204.0"/><rect fill="#41a7d2" height="21.0" stroke="#000" stroke-width="0.0" width="21.0" x="208.0" y="200.0"/><rect fill="#a4d689" height="13.0" stroke="#000" stroke-width="0.0" width="13.0" x="212.0" y="204.0"/><rect fill="#41a7d2" height="21.0" stroke="#000" stroke-width="0.0" width="21.0" x="229.0" y="200.0"/><rect fill="#a4d689" height="13.0" stroke="#000" stroke-width="0.0" width="13.0" x="233.0" y="204.0"/><rect fill="#41a7d2" height="21.0" stroke="#000" stroke-width="0.0" width="21.0" x="187.0" y="221.0"/><rect fill="#a4d689" height="13.0" stroke="#000" stroke-width="0.0" width="13.0" x="191.0" y="225.0"/><rect fill="#000" height="21.0" stroke="#000" stroke-width="6.0" width="21.0" x="250.0" y="158.0"/><rect fill="#000" height="21.0" stroke="#000" stroke-width="6.0" width="21.0" x="271.0" y="158.0"/><rect fill="#000" height="21.0" stroke="#000" stroke-width="6.0" width="21.0" x="292.0" y="158.0"/><rect fill="#000" height="21.0" stroke="#000" stroke-width="6.0" width="21.0" x="271.0" y="179.0"/><rect fill="#000" height="21.0" stroke="#000" stroke-width="6.0" width="21.0" x="292.0" y="179.0"/><rect fill="#fada73" height="21.0" stroke="#000" stroke-width="0.0" width="21.0" x="250.0" y="158.0"/><rect fill="#a4d689" height="13.0" stroke="#000" stroke-width="0.0" width="13.0" x="254.0" y="162.0"/><rect fill="#fada73" height="21.0" stroke="#000" stroke-width="0.0" width="21.0" x="271.0" y="158.0"/><rect fill="#a4d689" height="13.0" stroke="#000" stroke-width="0.0" width="13.0" x="275.0" y="162.0"/><rect fill="#fada73" height="21.0" stroke="#000" stroke-width="0.0" width="21.0" x="292.0" y="158.0"/><rect fill="#a4d689" height="13.0" stroke="#000" stroke-width="0.0" width="13.0" x="296.0" y="162.0"/><rect fill="#fada73" height="21.0" stroke="#000" stroke-width="0.0" width="21.0" x="271.0" y="179.0"/><rect fill="#a4d689" height="13.0" stroke="#000" stroke-width="0.0" width="13.0" x="275.0" y="183.0"/><rect fill="#fada73" height="21.0" stroke="#000" stroke-width="0.0" width="21.0" x="292.0" y="179.0"/><rect fill="#a4d689" height="13.0" stroke="#000" stroke-width="0.0" width="13.0" x="296.0" y="183.0"/><rect fill="#000" height="21.0" stroke="#000" stroke-width="6.0" width="21.0" x="313.0" y="158.0"/><rect fill="#000" height="21.0" stroke="#000" stroke-width="6.0" width="21.0" x="334.0" y="158.0"/><rect fill="#000" height="21.0" stroke="#000" stroke-width="6.0" width="21.0" x="313.0" y="179.0"/><rect fill="#000" height="21.0" stroke="#000" stroke-width="6.0" width="21.0" x="292.0" y="200.0"/><rect fill="#000" height="21.0" stroke="#000" stroke-width="6.0" width="21.0" x="313.0" y="200.0"/><rect fill="#1dd483" height="21.0" stroke="#000" stroke-width="0.0" width="21.0" x="313.0" y="158.0"/><rect fill="#a4d689" height="13.0" stroke="#000" stroke-width="0.0" width="13.0" x="317.0" y="162.0"/><rect fill="#1dd483" height="21.0" stroke="#000" stroke-width="0.0" width="21.0" x="334.0" y="158.0"/><rect fill="#a4d689" height="13.0" stroke="#000" stroke-width="0.0" width="13.0" x="338.0" y="162.0"/><rect fill="#1dd483" height="21.0" stroke="#000" stroke-width="0.0" width="21.0" x="313.0" y="179.0"/><rect fill="#a4d689" height="13.0" stroke="#000" stroke-width="0.0" width="13.0" x="317.0" y="183.0"/><rect fill="#1dd483" height="21.0" stroke="#000" stroke-width="0.0" width="21.0" x="292.0" y="200.0"/><rect fill="#a4d689" height="13.0" stroke="#000" stroke-width="0.0" width="13.0" x="296.0" y="204.0"/><rect fill="#1dd483" height="21.0" stroke="#000" stroke-width="0.0" width="21.0" x="313.0" y="200.0"/><rect fill="#a4d689" height="13.0" stroke="#000" stroke-width="0.0" width="13.0" x="317.0" y="204.0"/></svg>