<?xml version="1.0" ?><!DOCTYPE svg  PUBLIC '-//W3C//DTD SVG 1.1//EN'  'http://www.w3.org/Graphics/SVG/1.1/DTD/svg11.dtd'><svg height="422.000" viewBox="-11.000 -11.000 423.000 422.000" width="423.000" xmlns="http://www.w3.org/2000/svg"><rect fill="#007fff" height="400.0" stroke="#000" stroke-width="0.0" width="400.0" x="0.0" y="0.0"/><rect fill="#000" height="400.0" stroke="#000" stroke-width="0.0" width="0.0" x="400.0" y="0.0"/><rect fill="#8b618a" height="160.0" stroke="#000" stroke-width="6.0" width="160.0" x="40.0" y="40.0"/><rect fill="#8b618a" height="160.0" stroke="#000" stroke-width="6.0" width="160.0" x="200.0" y="40.0"/><rect fill="#8b618a" height="160.0" stroke="#000" stroke-width="6.0" width="160.0" x="40.0" y="200.0"/><rect fill="#000" height="160.0" stroke="#000" stroke-width="6.0" width="160.0" x="200.0" y="200.0"/><rect fill="#000" height="160.0" stroke="#000" stroke-width="6.0" width="160.0" x="200.0" y="40.0"/><rect fill="#53dd81" height="160.0" stroke="#000" stroke-width="0.0" width="160.0" x="200.0" y="40.0"/><rect fill="#8b618a" height="96.0" stroke="#000" stroke-width="0.0" width="96.0" x="232.0" y="72.0"/><rect fill="#000" height="160.0" stroke="#000" stroke-width="6.0" width="160.0" x="40.0" y="200.0"/><rect fill="#cdec42" height="160.0" stroke="#000" stroke-width="0.0" width="160.0" x="40.0" y="200.0"/><rect fill="#8b618a" height="96.0" stroke="#000" stroke-width="0.0" width="96.0" x="72.0" y="232.0"/><rect fill="#000" height="160.0" stroke="#000" stroke-width="6.0" width="160.0" x="40.0" y="40.0"/><rect fill="#38d872" height="160.0" stroke="#000" stroke-width="0.0" width="160.0" x="40.0" y="40.0"/><rect fill="#8b618a" height="96.0" stroke="#000" stroke-width="0.0" width="96.0" x="72.0" y="72.0"/></svg>