<?xml version="1.0" ?><!DOCTYPE svg  PUBLIC '-//W3C//DTD SVG 1.1//EN'  'http://www.w3.org/Graphics/SVG/1.1/DTD/svg11.dtd'><svg height="422.000" viewBox="-11.000 -11.000 423.000 422.000" width="423.000" xmlns="http://www.w3.org/2000/svg"><rect fill="#007fff" height="400.0" stroke="#000" stroke-width="0.0" width="400.0" x="0.0" y="0.0"/><rect fill="#000" height="400.0" stroke="#000" stroke-width="0.0" width="0.0" x="400.0" y="0.0"/><rect fill="#173a4c" height="40.0" stroke="#000" stroke-width="6.0" width="40.0" x="40.0" y="40.0"/><rect fill="#173a4c" height="40.0" stroke="#000" stroke-width="6.0" width="40.0" x="80.0" y="40.0"/><rect fill="#173a4c" height="40.0" stroke="#000" stroke-width="6.0" width="40.0" x="120.0" y="40.0"/><rect fill="#173a4c" height="40.0" stroke="#000" stroke-width="6.0" width="40.0" x="160.0" y="40.0"/><rect fill="#173a4c" height="40.0" stroke="#000" stroke-width="6.0" width="40.0" x="200.0" y="40.0"/><rect fill="#173a4c" height="40.0" stroke="#000" stroke-width="6.0" width="40.0" x="240.0" y="40.0"/><rect fill="#173a4c" height="40.0" stroke="#000" stroke-width="6.0" width="40.0" x="280.0" y="40.0"/><rect fill="#173a4c" height="40.0" stroke="#000" stroke-width="6.0" width="40.0" x="320.0" y="40.0"/><rect fill="#173a4c" height="40.0" stroke="#000" stroke-width="6.0" width="40.0" x="40.0" y="80.0"/><rect fill="#173a4c" height="40.0" stroke="#000" stroke-width="6.0" width="40.0" x="80.0" y="80.0"/><rect fill="#173a4c" height="40.0" stroke="#000" stroke-width="6.0" width="40.0" x="120.0" y="80.0"/><rect fill="#173a4c" height="40.0" stroke="#000" stroke-width="6.0" width="40.0" x="160.0" y="80.0"/><rect fill="#173a4c" height="40.0" stroke="#000" stroke-width="6.0" width="40.0" x="200.0" y="80.0"/><rect fill="#173a4c" height="40.0" stroke="#000" stroke-width="6.0" width="40.0" x="240.0" y="80.0"/><rect fill="#173a4c" height="40.0" stroke="#000" stroke-width="6.0" width="40.0" x="280.0" y="80.0"/><rect fill="#173a4c" height="40.0" stroke="#000" stroke-width="6.0" width="40.0" x="320.0" y="80.0"/><rect fill="#173a4c" height="40.0" stroke="#000" stroke-width="6.0" width="40.0" x="40.0" y="120.0"/><rect fill="#173a4c" height="40.0" stroke="#000" stroke-width="6.0" width="40.0" x="80.0" y="120.0"/><rect fill="#173a4c" height="40.0" stroke="#000" stroke-width="6.0" width="40.0" x="120.0" y="120.0"/><rect fill="#173a4c" height="40.0" stroke="#000" stroke-width="6.0" width="40.0" x="160.0" y="120.0"/><rect fill="#173a4c" height="40.0" stroke="#000" stroke-width="6.0" width="40.0" x="200.0" y="120.0"/><rect fill="#173a4c" height="40.0" stroke="#000" stroke-width="6.0" width="40.0" x="240.0" y="120.0"/><rect fill="#173a4c" height="40.0" stroke="#000" stroke-width="6.0" width="40.0" x="280.0" y="120.0"/><rect fill="#173a4c" height="40.0" stroke="#000" stroke-width="6.0" width="40.0" x="320.0" y="120.0"/><rect fill="#173a4c" height="40.0" stroke="#000" stroke-width="6.0" width="40.0" x="40.0" y="160.0"/><rect fill="#173a4c" height="40.0" stroke="#000" stroke-width="6.0" width="40.0" x="80.0" y="160.0"/><rect fill="#173a4c" height="40.0" stroke="#000" stroke-width="6.0" width="40.0" x="120.0" y="160.0"/><rect fill="#173a4c" height="40.0" stroke="#000" stroke-width="6.0" width="40.0" x="160.0" y="160.0"/><rect fill="#173a4c" height="40.0" stroke="#000" stroke-width="6.0" width="40.0" x="200.0" y="160.0"/><rect fill="#173a4c" height="40.0" stroke="#000" stroke-width="6.0" width="40.0" x="240.0" y="160.0"/><rect fill="#173a4c" height="40.0" stroke="#000" stroke-width="6.0" width="40.0" x="280.0" y="160.0"/><rect fill="#173a4c" height="40.0" stroke="#000" stroke-width="6.0" width="40.0" x="320.0" y="160.0"/><rect fill="#173a4c" height="40.0" stroke="#000" stroke-width="6.0" width="40.0" x="40.0" y="200.0"/><rect fill="#173a4c" height="40.0" stroke="#000" stroke-width="6.0" width="40.0" x="80.0" y="200.0"/><rect fill="#173a4c" height="40.0" stroke="#000" stroke-width="6.0" width="40.0" x="120.0" y="200.0"/><rect fill="#173a4c" height="40.0" stroke="#000" stroke-width="6.0" width="40.0" x="160.0" y="200.0"/><rect fill="#173a4c" height="40.0" stroke="#000" stroke-width="6.0" width="40.0" x="200.0" y="200.0"/><rect fill="#173a4c" height="40.0" stroke="#000" stroke-width="6.0" width="40.0" x="240.0" y="200.0"/><rect fill="#173a4c" height="40.0" stroke="#000" stroke-width="6.0" width="40.0" x="280.0" y="200.0"/><rect fill="#173a4c" height="40.0" stroke="#000" stroke-width="6.0" width="40.0" x="320.0" y="200.0"/><rect fill="#173a4c" height="40.0" stroke="#000" stroke-width="6.0" width="40.0" x="40.0" y="240.0"/><rect fill="#173a4c" height="40.0" stroke="#000" stroke-width="6.0" width="40.0" x="80.0" y="240.0"/><rect fill="#173a4c" height="40.0" stroke="#000" stroke-width="6.0" width="40.0" x="120.0" y="240.0"/><rect fill="#173a4c" height="40.0" stroke="#000" stroke-width="6.0" width="40.0" x="160.0" y="240.0"/><rect fill="#173a4c" height="40.0" stroke="#000" stroke-width="6.0" width="40.0" x="200.0" y="240.0"/><rect fill="#173a4c" height="40.0" stroke="#000" stroke-width="6.0" width="40.0" x="240.0" y="240.0"/><rect fill="#173a4c" height="40.0" stroke="#000" stroke-width="6.0" width="40.0" x="280.0" y="240.0"/><rect fill="#173a4c" height="40.0" stroke="#000" stroke-width="6.0" width="40.0" x="320.0" y="240.0"/><rect fill="#173a4c" height="40.0" stroke="#000" stroke-width="6.0" width="40.0" x="40.0" y="280.0"/><rect fill="#173a4c" height="40.0" stroke="#000" stroke-width="6.0" width="40.0" x="80.0" y="280.0"/><rect fill="#173a4c" height="40.0" stroke="#000" stroke-width="6.0" width="40.0" x="120.0" y="280.0"/><rect fill="#173a4c" height="40.0" stroke="#000" stroke-width="6.0" width="40.0" x="160.0" y="280.0"/><rect fill="#173a4c" height="40.0" stroke="#000" stroke-width="6.0" width="40.0" x="200.0" y="280.0"/><rect fill="#173a4c" height="40.0" stroke="#000" stroke-width="6.0" width="40.0" x="240.0" y="280.0"/><rect fill="#173a4c" height="40.0" stroke="#000" stroke-width="6.0" width="40.0" x="280.0" y="280.0"/><rect fill="#173a4c" height="40.0" stroke="#000" stroke-width="6.0" width="40.0" x="320.0" y="280.0"/><rect fill="#173a4c" height="40.0" stroke="#000" stroke-width="6.0" width="40.0" x="40.0" y="320.0"/><rect fill="#173a4c" height="40.0" stroke="#000" stroke-width="6.0" width="40.0" x="80.0" y="320.0"/><rect fill="#173a4c" height="40.0" stroke="#000" stroke-width="6.0" width="40.0" x="120.0" y="320.0"/><rect fill="#173a4c" height="40.0" stroke="#000" stroke-width="6.0" width="40.0" x="160.0" y="320.0"/><rect fill="#173a4c" height="40.0" stroke="#000" stroke-width="6.0" width="40.0" x="200.0" y="320.0"/><rect fill="#173a4c" height="40.0" stroke="#000" stroke-width="6.0" width="40.0" x="240.0" y="320.0"/><rect fill="#173a4c" height="40.0" stroke="#000" stroke-width="6.0" width="40.0" x="280.0" y="320.0"/><rect fill="#173a4c" height="40.0" stroke="#000" stroke-width="6.0" width="40.0" x="320.0" y="320.0"/><rect fill="#000" height="40.0" stroke="#000" stroke-width="6.0" width="40.0" x="80.0" y="40.0"/><rect fill="#000" height="40.0" stroke="#000" stroke-width="6.0" width="40.0" x="120.0" y="40.0"/><rect fill="#000" height="40.0" stroke="#000" stroke-width="6.0" width="40.0" x="160.0" y="40.0"/><rect fill="#000" height="40.0" stroke="#000" stroke-width="6.0" width="40.0" x="200.0" y="40.0"/><rect fill="#000" height="40.0" stroke="#000" stroke-width="6.0" width="40.0" x="240.0" y="40.0"/><rect fill="#000" height="40.0" stroke="#000" stroke-width="6.0" width="40.0" x="280.0" y="40.0"/><rect fill="#000" height="40.0" stroke="#000" stroke-width="6.0" width="40.0" x="40.0" y="80.0"/><rect fill="#000" height="40.0" stroke="#000" stroke-width="6.0" width="40.0" x="80.0" y="80.0"/><rect fill="#000" height="40.0" stroke="#000" stroke-width="6.0" width="40.0" x="120.0" y="80.0"/><rect fill="#000" height="40.0" stroke="#000" stroke-width="6.0" width="40.0" x="240.0" y="80.0"/><rect fill="#000" height="40.0" stroke="#000" stroke-width="6.0" width="40.0" x="280.0" y="80.0"/><rect fill="#000" height="40.0" stroke="#000" stroke-width="6.0" width="40.0" x="40.0" y="120.0"/><rect fill="#000" height="40.0" stroke="#000" stroke-width="6.0" width="40.0" x="80.0" y="120.0"/><rect fill="#000" height="40.0" stroke="#000" stroke-width="6.0" width="40.0" x="120.0" y="120.0"/><rect fill="#000" height="40.0" stroke="#000" stroke-width="6.0" width="40.0" x="160.0" y="120.0"/><rect fill="#000" height="40.0" stroke="#000" stroke-width="6.0" width="40.0" x="200.0" y="120.0"/><rect fill="#000" height="40.0" stroke="#000" stroke-width="6.0" width="40.0" x="240.0" y="120.0"/><rect fill="#000" height="40.0" stroke="#000" stroke-width="6.0" width="40.0" x="280.0" y="120.0"/><rect fill="#000" height="40.0" stroke="#000" stroke-width="6.0" width="40.0" x="320.0" y="120.0"/><rect fill="#000" height="40.0" stroke="#000" stroke-width="6.0" width="40.0" x="40.0" y="160.0"/><rect fill="#000" height="40.0" stroke="#000" stroke-width="6.0" width="40.0" x="80.0" y="160.0"/><rect fill="#000" height="40.0" stroke="#000" stroke-width="6.0" width="40.0" x="200.0" y="160.0"/><rect fill="#000" height="40.0" stroke="#000" stroke-width="6.0" width="40.0" x="240.0" y="160.0"/><rect fill="#000" height="40.0" stroke="#000" stroke-width="6.0" width="40.0" x="280.0" y="160.0"/><rect fill="#000" height="40.0" stroke="#000" stroke-width="6.0" width="40.0" x="320.0" y="160.0"/><rect fill="#000" height="40.0" stroke="#000" stroke-width="6.0" width="40.0" x="40.0" y="200.0"/><rect fill="#000" height="40.0" stroke="#000" stroke-width="6.0" width="40.0" x="80.0" y="200.0"/><rect fill="#000" height="40.0" stroke="#000" stroke-width="6.0" width="40.0" x="120.0" y="200.0"/><rect fill="#000" height="40.0" stroke="#000" stroke-width="6.0" width="40.0" x="200.0" y="200.0"/><rect fill="#000" height="40.0" stroke="#000" stroke-width="6.0" width="40.0" x="240.0" y="200.0"/><rect fill="#000" height="40.0" stroke="#000" stroke-width="6.0" width="40.0" x="320.0" y="200.0"/><rect fill="#000" height="40.0" stroke="#000" stroke-width="6.0" width="40.0" x="40.0" y="240.0"/><rect fill="#000" height="40.0" stroke="#000" stroke-width="6.0" width="40.0" x="80.0" y="240.0"/><rect fill="#000" height="40.0" stroke="#000" stroke-width="6.0" width="40.0" x="120.0" y="240.0"/><rect fill="#000" height="40.0" stroke="#000" stroke-width="6.0" width="40.0" x="160.0" y="240.0"/><rect fill="#000" height="40.0" stroke="#000" stroke-width="6.0" width="40.0" x="200.0" y="240.0"/><rect fill="#000" height="40.0" stroke="#000" stroke-width="6.0" width="40.0" x="240.0" y="240.0"/><rect fill="#000" height="40.0" stroke="#000" stroke-width="6.0" width="40.0" x="320.0" y="240.0"/><rect fill="#000" height="40.0" stroke="#000" stroke-width="6.0" width="40.0" x="80.0" y="280.0"/><rect fill="#000" height="40.0" stroke="#000" stroke-width="6.0" width="40.0" x="120.0" y="280.0"/><rect fill="#000" height="40.0" stroke="#000" stroke-width="6.0" width="40.0" x="160.0" y="280.0"/><rect fill="#000" height="40.0" stroke="#000" stroke-width="6.0" width="40.0" x="200.0" y="280.0"/><rect fill="#000" height="40.0" stroke="#000" stroke-width="6.0" width="40.0" x="240.0" y="280.0"/><rect fill="#000" height="40.0" stroke="#000" stroke-width="6.0" width="40.0" x="320.0" y="280.0"/><rect fill="#000" height="40.0" stroke="#000" stroke-width="6.0" width="40.0" x="40.0" y="320.0"/><rect fill="#000" height="40.0" stroke="#000" stroke-width="6.0" width="40.0" x="80.0" y="320.0"/><rect fill="#000" height="40.0" stroke="#000" stroke-width="6.0" width="40.0" x="160.0" y="320.0"/><rect fill="#000" height="40.0" stroke="#000" stroke-width="6.0" width="40.0" x="200.0" y="320.0"/><rect fill="#000" height="40.0" stroke="#000" stroke-width="6.0" width="40.0" x="280.0" y="320.0"/><rect fill="#000" height="40.0" stroke="#000" stroke-width="6.0" width="40.0" x="320.0" y="320.0"/><rect fill="#88b658" height="40.0" stroke="#000" stroke-width="0.0" width="40.0" x="80.0" y="40.0"/><rect fill="#173a4c" height="24.0" stroke="#000" stroke-width="0.0" width="24.0" x="88.0" y="48.0"/><rect fill="#88b658" height="40.0" stroke="#000" stroke-width="0.0" width="40.0" x="120.0" y="40.0"/><rect fill="#173a4c" height="24.0" stroke="#000" stroke-width="0.0" width="24.0" x="128.0" y="48.0"/><rect fill="#88b658" height="40.0" stroke="#000" stroke-width="0.0" width="40.0" x="160.0" y="40.0"/><rect fill="#173a4c" height="24.0" stroke="#000" stroke-width="0.0" width="24.0" x="168.0" y="48.0"/><rect fill="#88b658" height="40.0" stroke="#000" stroke-width="0.0" width="40.0" x="200.0" y="40.0"/><rect fill="#173a4c" height="24.0" stroke="#000" stroke-width="0.0" width="24.0" x="208.0" y="48.0"/><rect fill="#88b658" height="40.0" stroke="#000" stroke-width="0.0" width="40.0" x="240.0" y="40.0"/><rect fill="#173a4c" height="24.0" stroke="#000" stroke-width="0.0" width="24.0" x="248.0" y="48.0"/><rect fill="#88b658" height="40.0" stroke="#000" stroke-width="0.0" width="40.0" x="280.0" y="40.0"/><rect fill="#173a4c" height="24.0" stroke="#000" stroke-width="0.0" width="24.0" x="288.0" y="48.0"/><rect fill="#88b658" height="40.0" stroke="#000" stroke-width="0.0" width="40.0" x="40.0" y="80.0"/><rect fill="#173a4c" height="24.0" stroke="#000" stroke-width="0.0" width="24.0" x="48.0" y="88.0"/><rect fill="#88b658" height="40.0" stroke="#000" stroke-width="0.0" width="40.0" x="80.0" y="80.0"/><rect fill="#173a4c" height="24.0" stroke="#000" stroke-width="0.0" width="24.0" x="88.0" y="88.0"/><rect fill="#88b658" height="40.0" stroke="#000" stroke-width="0.0" width="40.0" x="120.0" y="80.0"/><rect fill="#173a4c" height="24.0" stroke="#000" stroke-width="0.0" width="24.0" x="128.0" y="88.0"/><rect fill="#88b658" height="40.0" stroke="#000" stroke-width="0.0" width="40.0" x="240.0" y="80.0"/><rect fill="#173a4c" height="24.0" stroke="#000" stroke-width="0.0" width="24.0" x="248.0" y="88.0"/><rect fill="#88b658" height="40.0" stroke="#000" stroke-width="0.0" width="40.0" x="280.0" y="80.0"/><rect fill="#173a4c" height="24.0" stroke="#000" stroke-width="0.0" width="24.0" x="288.0" y="88.0"/><rect fill="#88b658" height="40.0" stroke="#000" stroke-width="0.0" width="40.0" x="40.0" y="120.0"/><rect fill="#173a4c" height="24.0" stroke="#000" stroke-width="0.0" width="24.0" x="48.0" y="128.0"/><rect fill="#88b658" height="40.0" stroke="#000" stroke-width="0.0" width="40.0" x="80.0" y="120.0"/><rect fill="#173a4c" height="24.0" stroke="#000" stroke-width="0.0" width="24.0" x="88.0" y="128.0"/><rect fill="#88b658" height="40.0" stroke="#000" stroke-width="0.0" width="40.0" x="120.0" y="120.0"/><rect fill="#173a4c" height="24.0" stroke="#000" stroke-width="0.0" width="24.0" x="128.0" y="128.0"/><rect fill="#88b658" height="40.0" stroke="#000" stroke-width="0.0" width="40.0" x="160.0" y="120.0"/><rect fill="#173a4c" height="24.0" stroke="#000" stroke-width="0.0" width="24.0" x="168.0" y="128.0"/><rect fill="#88b658" height="40.0" stroke="#000" stroke-width="0.0" width="40.0" x="200.0" y="120.0"/><rect fill="#173a4c" height="24.0" stroke="#000" stroke-width="0.0" width="24.0" x="208.0" y="128.0"/><rect fill="#88b658" height="40.0" stroke="#000" stroke-width="0.0" width="40.0" x="240.0" y="120.0"/><rect fill="#173a4c" height="24.0" stroke="#000" stroke-width="0.0" width="24.0" x="248.0" y="128.0"/><rect fill="#88b658" height="40.0" stroke="#000" stroke-width="0.0" width="40.0" x="280.0" y="120.0"/><rect fill="#173a4c" height="24.0" stroke="#000" stroke-width="0.0" width="24.0" x="288.0" y="128.0"/><rect fill="#88b658" height="40.0" stroke="#000" stroke-width="0.0" width="40.0" x="320.0" y="120.0"/><rect fill="#173a4c" height="24.0" stroke="#000" stroke-width="0.0" width="24.0" x="328.0" y="128.0"/><rect fill="#88b658" height="40.0" stroke="#000" stroke-width="0.0" width="40.0" x="40.0" y="160.0"/><rect fill="#173a4c" height="24.0" stroke="#000" stroke-width="0.0" width="24.0" x="48.0" y="168.0"/><rect fill="#88b658" height="40.0" stroke="#000" stroke-width="0.0" width="40.0" x="80.0" y="160.0"/><rect fill="#173a4c" height="24.0" stroke="#000" stroke-width="0.0" width="24.0" x="88.0" y="168.0"/><rect fill="#88b658" height="40.0" stroke="#000" stroke-width="0.0" width="40.0" x="200.0" y="160.0"/><rect fill="#173a4c" height="24.0" stroke="#000" stroke-width="0.0" width="24.0" x="208.0" y="168.0"/><rect fill="#88b658" height="40.0" stroke="#000" stroke-width="0.0" width="40.0" x="240.0" y="160.0"/><rect fill="#173a4c" height="24.0" stroke="#000" stroke-width="0.0" width="24.0" x="248.0" y="168.0"/><rect fill="#88b658" height="40.0" stroke="#000" stroke-width="0.0" width="40.0" x="280.0" y="160.0"/><rect fill="#173a4c" height="24.0" stroke="#000" stroke-width="0.0" width="24.0" x="288.0" y="168.0"/><rect fill="#88b658" height="40.0" stroke="#000" stroke-width="0.0" width="40.0" x="320.0" y="160.0"/><rect fill="#173a4c" height="24.0" stroke="#000" stroke-width="0.0" width="24.0" x="328.0" y="168.0"/><rect fill="#88b658" height="40.0" stroke="#000" stroke-width="0.0" width="40.0" x="40.0" y="200.0"/><rect fill="#173a4c" height="24.0" stroke="#000" stroke-width="0.0" width="24.0" x="48.0" y="208.0"/><rect fill="#88b658" height="40.0" stroke="#000" stroke-width="0.0" width="40.0" x="80.0" y="200.0"/><rect fill="#173a4c" height="24.0" stroke="#000" stroke-width="0.0" width="24.0" x="88.0" y="208.0"/><rect fill="#88b658" height="40.0" stroke="#000" stroke-width="0.0" width="40.0" x="120.0" y="200.0"/><rect fill="#173a4c" height="24.0" stroke="#000" stroke-width="0.0" width="24.0" x="128.0" y="208.0"/><rect fill="#88b658" height="40.0" stroke="#000" stroke-width="0.0" width="40.0" x="200.0" y="200.0"/><rect fill="#173a4c" height="24.0" stroke="#000" stroke-width="0.0" width="24.0" x="208.0" y="208.0"/><rect fill="#88b658" height="40.0" stroke="#000" stroke-width="0.0" width="40.0" x="240.0" y="200.0"/><rect fill="#173a4c" height="24.0" stroke="#000" stroke-width="0.0" width="24.0" x="248.0" y="208.0"/><rect fill="#88b658" height="40.0" stroke="#000" stroke-width="0.0" width="40.0" x="320.0" y="200.0"/><rect fill="#173a4c" height="24.0" stroke="#000" stroke-width="0.0" width="24.0" x="328.0" y="208.0"/><rect fill="#88b658" height="40.0" stroke="#000" stroke-width="0.0" width="40.0" x="40.0" y="240.0"/><rect fill="#173a4c" height="24.0" stroke="#000" stroke-width="0.0" width="24.0" x="48.0" y="248.0"/><rect fill="#88b658" height="40.0" stroke="#000" stroke-width="0.0" width="40.0" x="80.0" y="240.0"/><rect fill="#173a4c" height="24.0" stroke="#000" stroke-width="0.0" width="24.0" x="88.0" y="248.0"/><rect fill="#88b658" height="40.0" stroke="#000" stroke-width="0.0" width="40.0" x="120.0" y="240.0"/><rect fill="#173a4c" height="24.0" stroke="#000" stroke-width="0.0" width="24.0" x="128.0" y="248.0"/><rect fill="#88b658" height="40.0" stroke="#000" stroke-width="0.0" width="40.0" x="160.0" y="240.0"/><rect fill="#173a4c" height="24.0" stroke="#000" stroke-width="0.0" width="24.0" x="168.0" y="248.0"/><rect fill="#88b658" height="40.0" stroke="#000" stroke-width="0.0" width="40.0" x="200.0" y="240.0"/><rect fill="#173a4c" height="24.0" stroke="#000" stroke-width="0.0" width="24.0" x="208.0" y="248.0"/><rect fill="#88b658" height="40.0" stroke="#000" stroke-width="0.0" width="40.0" x="240.0" y="240.0"/><rect fill="#173a4c" height="24.0" stroke="#000" stroke-width="0.0" width="24.0" x="248.0" y="248.0"/><rect fill="#88b658" height="40.0" stroke="#000" stroke-width="0.0" width="40.0" x="320.0" y="240.0"/><rect fill="#173a4c" height="24.0" stroke="#000" stroke-width="0.0" width="24.0" x="328.0" y="248.0"/><rect fill="#88b658" height="40.0" stroke="#000" stroke-width="0.0" width="40.0" x="80.0" y="280.0"/><rect fill="#173a4c" height="24.0" stroke="#000" stroke-width="0.0" width="24.0" x="88.0" y="288.0"/><rect fill="#88b658" height="40.0" stroke="#000" stroke-width="0.0" width="40.0" x="120.0" y="280.0"/><rect fill="#173a4c" height="24.0" stroke="#000" stroke-width="0.0" width="24.0" x="128.0" y="288.0"/><rect fill="#88b658" height="40.0" stroke="#000" stroke-width="0.0" width="40.0" x="160.0" y="280.0"/><rect fill="#173a4c" height="24.0" stroke="#000" stroke-width="0.0" width="24.0" x="168.0" y="288.0"/><rect fill="#88b658" height="40.0" stroke="#000" stroke-width="0.0" width="40.0" x="200.0" y="280.0"/><rect fill="#173a4c" height="24.0" stroke="#000" stroke-width="0.0" width="24.0" x="208.0" y="288.0"/><rect fill="#88b658" height="40.0" stroke="#000" stroke-width="0.0" width="40.0" x="240.0" y="280.0"/><rect fill="#173a4c" height="24.0" stroke="#000" stroke-width="0.0" width="24.0" x="248.0" y="288.0"/><rect fill="#88b658" height="40.0" stroke="#000" stroke-width="0.0" width="40.0" x="320.0" y="280.0"/><rect fill="#173a4c" height="24.0" stroke="#000" stroke-width="0.0" width="24.0" x="328.0" y="288.0"/><rect fill="#88b658" height="40.0" stroke="#000" stroke-width="0.0" width="40.0" x="40.0" y="320.0"/><rect fill="#173a4c" height="24.0" stroke="#000" stroke-width="0.0" width="24.0" x="48.0" y="328.0"/><rect fill="#88b658" height="40.0" stroke="#000" stroke-width="0.0" width="40.0" x="80.0" y="320.0"/><rect fill="#173a4c" height="24.0" stroke="#000" stroke-width="0.0" width="24.0" x="88.0" y="328.0"/><rect fill="#88b658" height="40.0" stroke="#000" stroke-width="0.0" width="40.0" x="160.0" y="320.0"/><rect fill="#173a4c" height="24.0" stroke="#000" stroke-width="0.0" width="24.0" x="168.0" y="328.0"/><rect fill="#88b658" height="40.0" stroke="#000" stroke-width="0.0" width="40.0" x="200.0" y="320.0"/><rect fill="#173a4c" height="24.0" stroke="#000" stroke-width="0.0" width="24.0" x="208.0" y="328.0"/><rect fill="#88b658" height="40.0" stroke="#000" stroke-width="0.0" width="40.0" x="280.0" y="320.0"/><rect fill="#173a4c" height="24.0" stroke="#000" stroke-width="0.0" width="24.0" x="288.0" y="328.0"/><rect fill="#88b658" height="40.0" stroke="#000" stroke-width="0.0" width="40.0" x="320.0" y="320.0"/><rect fill="#173a4c" height="24.0" stroke="#000" stroke-width="0.0" width="24.0" x="328.0" y="328.0"/><rect fill="#000" height="40.0" stroke="#000" stroke-width="6.0" width="40.0" x="120.0" y="320.0"/><rect fill="#e1c5ab" height="40.0" stroke="#000" stroke-width="0.0" width="40.0" x="120.0" y="320.0"/><rect fill="#173a4c" height="24.0" stroke="#000" stroke-width="0.0" width="24.0" x="128.0" y="328.0"/><rect fill="#000" height="40.0" stroke="#000" stroke-width="6.0" width="40.0" x="160.0" y="80.0"/><rect fill="#000" height="40.0" stroke="#000" stroke-width="6.0" width="40.0" x="200.0" y="80.0"/><rect fill="#36e015" height="40.0" stroke="#000" stroke-width="0.0" width="40.0" x="160.0" y="80.0"/><rect fill="#173a4c" height="24.0" stroke="#000" stroke-width="0.0" width="24.0" x="168.0" y="88.0"/><rect fill="#36e015" height="40.0" stroke="#000" stroke-width="0.0" width="40.0" x="200.0" y="80.0"/><rect fill="#173a4c" height="24.0" stroke="#000" stroke-width="0.0" width="24.0" x="208.0" y="88.0"/><rect fill="#000" height="40.0" stroke="#000" stroke-width="6.0" width="40.0" x="320.0" y="40.0"/><rect fill="#000" height="40.0" stroke="#000" stroke-width="6.0" width="40.0" x="320.0" y="80.0"/><rect fill="#bc9ce2" height="40.0" stroke="#000" stroke-width="0.0" width="40.0" x="320.0" y="40.0"/><rect fill="#173a4c" height="24.0" stroke="#000" stroke-width="0.0" width="24.0" x="328.0" y="48.0"/><rect fill="#bc9ce2" height="40.0" stroke="#000" stroke-width="0.0" width="40.0" x="320.0" y="80.0"/><rect fill="#173a4c" height="24.0" stroke="#000" stroke-width="0.0" width="24.0" x="328.0" y="88.0"/><rect fill="#000" height="40.0" stroke="#000" stroke-width="6.0" width="40.0" x="240.0" y="320.0"/><rect fill="#e1d8eb" height="40.0" stroke="#000" stroke-width="0.0" width="40.0" x="240.0" y="320.0"/><rect fill="#173a4c" height="24.0" stroke="#000" stroke-width="0.0" width="24.0" x="248.0" y="328.0"/><rect fill="#000" height="40.0" stroke="#000" stroke-width="6.0" width="40.0" x="280.0" y="200.0"/><rect fill="#000" height="40.0" stroke="#000" stroke-width="6.0" width="40.0" x="280.0" y="240.0"/><rect fill="#000" height="40.0" stroke="#000" stroke-width="6.0" width="40.0" x="280.0" y="280.0"/><rect fill="#5de1bf" height="40.0" stroke="#000" stroke-width="0.0" width="40.0" x="280.0" y="200.0"/><rect fill="#173a4c" height="24.0" stroke="#000" stroke-width="0.0" width="24.0" x="288.0" y="208.0"/><rect fill="#5de1bf" height="40.0" stroke="#000" stroke-width="0.0" width="40.0" x="280.0" y="240.0"/><rect fill="#173a4c" height="24.0" stroke="#000" stroke-width="0.0" width="24.0" x="288.0" y="248.0"/><rect fill="#5de1bf" height="40.0" stroke="#000" stroke-width="0.0" width="40.0" x="280.0" y="280.0"/><rect fill="#173a4c" height="24.0" stroke="#000" stroke-width="0.0" width="24.0" x="288.0" y="288.0"/><rect fill="#000" height="40.0" stroke="#000" stroke-width="6.0" width="40.0" x="120.0" y="160.0"/><rect fill="#000" height="40.0" stroke="#000" stroke-width="6.0" width="40.0" x="160.0" y="160.0"/><rect fill="#000" height="40.0" stroke="#000" stroke-width="6.0" width="40.0" x="160.0" y="200.0"/><rect fill="#046607" height="40.0" stroke="#000" stroke-width="0.0" width="40.0" x="120.0" y="160.0"/><rect fill="#173a4c" height="24.0" stroke="#000" stroke-width="0.0" width="24.0" x="128.0" y="168.0"/><rect fill="#046607" height="40.0" stroke="#000" stroke-width="0.0" width="40.0" x="160.0" y="160.0"/><rect fill="#173a4c" height="24.0" stroke="#000" stroke-width="0.0" width="24.0" x="168.0" y="168.0"/><rect fill="#046607" height="40.0" stroke="#000" stroke-width="0.0" width="40.0" x="160.0" y="200.0"/><rect fill="#173a4c" height="24.0" stroke="#000" stroke-width="0.0" width="24.0" x="168.0" y="208.0"/><rect fill="#000" height="40.0" stroke="#000" stroke-width="6.0" width="40.0" x="40.0" y="280.0"/><rect fill="#dff4c1" height="40.0" stroke="#000" stroke-width="0.0" width="40.0" x="40.0" y="280.0"/><rect fill="#173a4c" height="24.0" stroke="#000" stroke-width="0.0" width="24.0" x="48.0" y="288.0"/><rect fill="#000" height="40.0" stroke="#000" stroke-width="6.0" width="40.0" x="40.0" y="40.0"/><rect fill="#83bef8" height="40.0" stroke="#000" stroke-width="0.0" width="40.0" x="40.0" y="40.0"/><rect fill="#173a4c" height="24.0" stroke="#000" stroke-width="0.0" width="24.0" x="48.0" y="48.0"/></svg>