<?xml version="1.0" ?><!DOCTYPE svg  PUBLIC '-//W3C//DTD SVG 1.1//EN'  'http://www.w3.org/Graphics/SVG/1.1/DTD/svg11.dtd'><svg height="422.000" viewBox="-11.000 -11.000 423.000 422.000" width="423.000" xmlns="http://www.w3.org/2000/svg"><rect fill="#007fff" height="400.0" stroke="#000" stroke-width="0.0" width="400.0" x="0.0" y="0.0"/><rect fill="#000" height="400.0" stroke="#000" stroke-width="0.0" width="0.0" x="400.0" y="0.0"/><rect fill="#f4ad60" height="80.0" stroke="#000" stroke-width="6.0" width="80.0" x="40.0" y="120.0"/><rect fill="#0d7545" height="80.0" stroke="#000" stroke-width="6.0" width="80.0" x="120.0" y="120.0"/><rect fill="#0d7545" height="80.0" stroke="#000" stroke-width="6.0" width="80.0" x="200.0" y="120.0"/><rect fill="#f4ad60" height="80.0" stroke="#000" stroke-width="6.0" width="80.0" x="280.0" y="120.0"/><rect fill="#0d7545" height="80.0" stroke="#000" stroke-width="6.0" width="80.0" x="40.0" y="200.0"/><rect fill="#f4ad60" height="80.0" stroke="#000" stroke-width="6.0" width="80.0" x="120.0" y="200.0"/><rect fill="#0d7545" height="80.0" stroke="#000" stroke-width="6.0" width="80.0" x="200.0" y="200.0"/><rect fill="#f4ad60" height="80.0" stroke="#000" stroke-width="6.0" width="80.0" x="280.0" y="200.0"/><rect fill="#000" height="80.0" stroke="#000" stroke-width="6.0" width="80.0" x="200.0" y="120.0"/><rect fill="#000" height="80.0" stroke="#000" stroke-width="6.0" width="80.0" x="280.0" y="120.0"/><rect fill="#000" height="80.0" stroke="#000" stroke-width="6.0" width="80.0" x="280.0" y="200.0"/><rect fill="#d27834" height="80.0" stroke="#000" stroke-width="0.0" width="80.0" x="200.0" y="120.0"/><rect fill="#0d7545" height="48.0" stroke="#000" stroke-width="0.0" width="48.0" x="216.0" y="136.0"/><rect fill="#d27834" height="80.0" stroke="#000" stroke-width="0.0" width="80.0" x="280.0" y="120.0"/><rect fill="#f4ad60" height="48.0" stroke="#000" stroke-width="0.0" width="48.0" x="296.0" y="136.0"/><rect fill="#d27834" height="80.0" stroke="#000" stroke-width="0.0" width="80.0" x="280.0" y="200.0"/><rect fill="#f4ad60" height="48.0" stroke="#000" stroke-width="0.0" width="48.0" x="296.0" y="216.0"/><rect fill="#000" height="80.0" stroke="#000" stroke-width="6.0" width="80.0" x="40.0" y="120.0"/><rect fill="#000" height="80.0" stroke="#000" stroke-width="6.0" width="80.0" x="40.0" y="200.0"/><rect fill="#000" height="80.0" stroke="#000" stroke-width="6.0" width="80.0" x="120.0" y="200.0"/><rect fill="#000" height="80.0" stroke="#000" stroke-width="6.0" width="80.0" x="200.0" y="200.0"/><rect fill="#448e73" height="80.0" stroke="#000" stroke-width="0.0" width="80.0" x="40.0" y="120.0"/><rect fill="#f4ad60" height="48.0" stroke="#000" stroke-width="0.0" width="48.0" x="56.0" y="136.0"/><rect fill="#448e73" height="80.0" stroke="#000" stroke-width="0.0" width="80.0" x="40.0" y="200.0"/><rect fill="#0d7545" height="48.0" stroke="#000" stroke-width="0.0" width="48.0" x="56.0" y="216.0"/><rect fill="#448e73" height="80.0" stroke="#000" stroke-width="0.0" width="80.0" x="120.0" y="200.0"/><rect fill="#f4ad60" height="48.0" stroke="#000" stroke-width="0.0" width="48.0" x="136.0" y="216.0"/><rect fill="#448e73" height="80.0" stroke="#000" stroke-width="0.0" width="80.0" x="200.0" y="200.0"/><rect fill="#0d7545" height="48.0" stroke="#000" stroke-width="0.0" width="48.0" x="216.0" y="216.0"/><rect fill="#000" height="80.0" stroke="#000" stroke-width="6.0" width="80.0" x="120.0" y="120.0"/><rect fill="#1a637e" height="80.0" stroke="#000" stroke-width="0.0" width="80.0" x="120.0" y="120.0"/><rect fill="#0d7545" height="48.0" stroke="#000" stroke-width="0.0" width="48.0" x="136.0" y="136.0"/></svg>