<?xml version="1.0" ?><!DOCTYPE svg  PUBLIC '-//W3C//DTD SVG 1.1//EN'  'http://www.w3.org/Graphics/SVG/1.1/DTD/svg11.dtd'><svg height="422.000" viewBox="-11.000 -11.000 423.000 422.000" width="423.000" xmlns="http://www.w3.org/2000/svg"><rect fill="#007fff" height="400.0" stroke="#000" stroke-width="0.0" width="400.0" x="0.0" y="0.0"/><rect fill="#000" height="400.0" stroke="#000" stroke-width="0.0" width="0.0" x="400.0" y="0.0"/><rect fill="#57f3b2" height="16.0" stroke="#000" stroke-width="6.0" width="16.0" x="40.0" y="176.0"/><rect fill="#57f3b2" height="16.0" stroke="#000" stroke-width="6.0" width="16.0" x="56.0" y="176.0"/><rect fill="#57f3b2" height="16.0" stroke="#000" stroke-width="6.0" width="16.0" x="72.0" y="176.0"/><rect fill="#57f3b2" height="16.0" stroke="#000" stroke-width="6.0" width="16.0" x="88.0" y="176.0"/><rect fill="#57f3b2" height="16.0" stroke="#000" stroke-width="6.0" width="16.0" x="104.0" y="176.0"/><rect fill="#57f3b2" height="16.0" stroke="#000" stroke-width="6.0" width="16.0" x="120.0" y="176.0"/><rect fill="#57f3b2" height="16.0" stroke="#000" stroke-width="6.0" width="16.0" x="136.0" y="176.0"/><rect fill="#57f3b2" height="16.0" stroke="#000" stroke-width="6.0" width="16.0" x="152.0" y="176.0"/><rect fill="#57f3b2" height="16.0" stroke="#000" stroke-width="6.0" width="16.0" x="168.0" y="176.0"/><rect fill="#57f3b2" height="16.0" stroke="#000" stroke-width="6.0" width="16.0" x="184.0" y="176.0"/><rect fill="#57f3b2" height="16.0" stroke="#000" stroke-width="6.0" width="16.0" x="200.0" y="176.0"/><rect fill="#57f3b2" height="16.0" stroke="#000" stroke-width="6.0" width="16.0" x="216.0" y="176.0"/><rect fill="#57f3b2" height="16.0" stroke="#000" stroke-width="6.0" width="16.0" x="232.0" y="176.0"/><rect fill="#57f3b2" height="16.0" stroke="#000" stroke-width="6.0" width="16.0" x="248.0" y="176.0"/><rect fill="#57f3b2" height="16.0" stroke="#000" stroke-width="6.0" width="16.0" x="264.0" y="176.0"/><rect fill="#57f3b2" height="16.0" stroke="#000" stroke-width="6.0" width="16.0" x="280.0" y="176.0"/><rect fill="#57f3b2" height="16.0" stroke="#000" stroke-width="6.0" width="16.0" x="296.0" y="176.0"/><rect fill="#57f3b2" height="16.0" stroke="#000" stroke-width="6.0" width="16.0" x="312.0" y="176.0"/><rect fill="#57f3b2" height="16.0" stroke="#000" stroke-width="6.0" width="16.0" x="328.0" y="176.0"/><rect fill="#57f3b2" height="16.0" stroke="#000" stroke-width="6.0" width="16.0" x="344.0" y="176.0"/><rect fill="#57f3b2" height="16.0" stroke="#000" stroke-width="6.0" width="16.0" x="40.0" y="192.0"/><rect fill="#57f3b2" height="16.0" stroke="#000" stroke-width="6.0" width="16.0" x="56.0" y="192.0"/><rect fill="#57f3b2" height="16.0" stroke="#000" stroke-width="6.0" width="16.0" x="72.0" y="192.0"/><rect fill="#57f3b2" height="16.0" stroke="#000" stroke-width="6.0" width="16.0" x="88.0" y="192.0"/><rect fill="#57f3b2" height="16.0" stroke="#000" stroke-width="6.0" width="16.0" x="104.0" y="192.0"/><rect fill="#57f3b2" height="16.0" stroke="#000" stroke-width="6.0" width="16.0" x="120.0" y="192.0"/><rect fill="#57f3b2" height="16.0" stroke="#000" stroke-width="6.0" width="16.0" x="136.0" y="192.0"/><rect fill="#57f3b2" height="16.0" stroke="#000" stroke-width="6.0" width="16.0" x="152.0" y="192.0"/><rect fill="#57f3b2" height="16.0" stroke="#000" stroke-width="6.0" width="16.0" x="168.0" y="192.0"/><rect fill="#57f3b2" height="16.0" stroke="#000" stroke-width="6.0" width="16.0" x="184.0" y="192.0"/><rect fill="#57f3b2" height="16.0" stroke="#000" stroke-width="6.0" width="16.0" x="200.0" y="192.0"/><rect fill="#57f3b2" height="16.0" stroke="#000" stroke-width="6.0" width="16.0" x="216.0" y="192.0"/><rect fill="#57f3b2" height="16.0" stroke="#000" stroke-width="6.0" width="16.0" x="232.0" y="192.0"/><rect fill="#57f3b2" height="16.0" stroke="#000" stroke-width="6.0" width="16.0" x="248.0" y="192.0"/><rect fill="#57f3b2" height="16.0" stroke="#000" stroke-width="6.0" width="16.0" x="264.0" y="192.0"/><rect fill="#57f3b2" height="16.0" stroke="#000" stroke-width="6.0" width="16.0" x="280.0" y="192.0"/><rect fill="#57f3b2" height="16.0" stroke="#000" stroke-width="6.0" width="16.0" x="296.0" y="192.0"/><rect fill="#57f3b2" height="16.0" stroke="#000" stroke-width="6.0" width="16.0" x="312.0" y="192.0"/><rect fill="#57f3b2" height="16.0" stroke="#000" stroke-width="6.0" width="16.0" x="328.0" y="192.0"/><rect fill="#57f3b2" height="16.0" stroke="#000" stroke-width="6.0" width="16.0" x="344.0" y="192.0"/><rect fill="#57f3b2" height="16.0" stroke="#000" stroke-width="6.0" width="16.0" x="40.0" y="208.0"/><rect fill="#57f3b2" height="16.0" stroke="#000" stroke-width="6.0" width="16.0" x="56.0" y="208.0"/><rect fill="#57f3b2" height="16.0" stroke="#000" stroke-width="6.0" width="16.0" x="72.0" y="208.0"/><rect fill="#57f3b2" height="16.0" stroke="#000" stroke-width="6.0" width="16.0" x="88.0" y="208.0"/><rect fill="#57f3b2" height="16.0" stroke="#000" stroke-width="6.0" width="16.0" x="104.0" y="208.0"/><rect fill="#57f3b2" height="16.0" stroke="#000" stroke-width="6.0" width="16.0" x="120.0" y="208.0"/><rect fill="#57f3b2" height="16.0" stroke="#000" stroke-width="6.0" width="16.0" x="136.0" y="208.0"/><rect fill="#57f3b2" height="16.0" stroke="#000" stroke-width="6.0" width="16.0" x="152.0" y="208.0"/><rect fill="#57f3b2" height="16.0" stroke="#000" stroke-width="6.0" width="16.0" x="168.0" y="208.0"/><rect fill="#57f3b2" height="16.0" stroke="#000" stroke-width="6.0" width="16.0" x="184.0" y="208.0"/><rect fill="#57f3b2" height="16.0" stroke="#000" stroke-width="6.0" width="16.0" x="200.0" y="208.0"/><rect fill="#57f3b2" height="16.0" stroke="#000" stroke-width="6.0" width="16.0" x="216.0" y="208.0"/><rect fill="#57f3b2" height="16.0" stroke="#000" stroke-width="6.0" width="16.0" x="232.0" y="208.0"/><rect fill="#57f3b2" height="16.0" stroke="#000" stroke-width="6.0" width="16.0" x="248.0" y="208.0"/><rect fill="#57f3b2" height="16.0" stroke="#000" stroke-width="6.0" width="16.0" x="264.0" y="208.0"/><rect fill="#57f3b2" height="16.0" stroke="#000" stroke-width="6.0" width="16.0" x="280.0" y="208.0"/><rect fill="#57f3b2" height="16.0" stroke="#000" stroke-width="6.0" width="16.0" x="296.0" y="208.0"/><rect fill="#57f3b2" height="16.0" stroke="#000" stroke-width="6.0" width="16.0" x="312.0" y="208.0"/><rect fill="#57f3b2" height="16.0" stroke="#000" stroke-width="6.0" width="16.0" x="328.0" y="208.0"/><rect fill="#57f3b2" height="16.0" stroke="#000" stroke-width="6.0" width="16.0" x="344.0" y="208.0"/><rect fill="#000" height="16.0" stroke="#000" stroke-width="6.0" width="16.0" x="184.0" y="192.0"/><rect fill="#000" height="16.0" stroke="#000" stroke-width="6.0" width="16.0" x="152.0" y="208.0"/><rect fill="#000" height="16.0" stroke="#000" stroke-width="6.0" width="16.0" x="168.0" y="208.0"/><rect fill="#000" height="16.0" stroke="#000" stroke-width="6.0" width="16.0" x="184.0" y="208.0"/><rect fill="#000" height="16.0" stroke="#000" stroke-width="6.0" width="16.0" x="200.0" y="208.0"/><rect fill="#3d3d8b" height="16.0" stroke="#000" stroke-width="0.0" width="16.0" x="184.0" y="192.0"/><rect fill="#57f3b2" height="10.0" stroke="#000" stroke-width="0.0" width="10.0" x="187.0" y="195.0"/><rect fill="#3d3d8b" height="16.0" stroke="#000" stroke-width="0.0" width="16.0" x="152.0" y="208.0"/><rect fill="#57f3b2" height="10.0" stroke="#000" stroke-width="0.0" width="10.0" x="155.0" y="211.0"/><rect fill="#3d3d8b" height="16.0" stroke="#000" stroke-width="0.0" width="16.0" x="168.0" y="208.0"/><rect fill="#57f3b2" height="10.0" stroke="#000" stroke-width="0.0" width="10.0" x="171.0" y="211.0"/><rect fill="#3d3d8b" height="16.0" stroke="#000" stroke-width="0.0" width="16.0" x="184.0" y="208.0"/><rect fill="#57f3b2" height="10.0" stroke="#000" stroke-width="0.0" width="10.0" x="187.0" y="211.0"/><rect fill="#3d3d8b" height="16.0" stroke="#000" stroke-width="0.0" width="16.0" x="200.0" y="208.0"/><rect fill="#57f3b2" height="10.0" stroke="#000" stroke-width="0.0" width="10.0" x="203.0" y="211.0"/><rect fill="#000" height="16.0" stroke="#000" stroke-width="6.0" width="16.0" x="216.0" y="176.0"/><rect fill="#000" height="16.0" stroke="#000" stroke-width="6.0" width="16.0" x="232.0" y="176.0"/><rect fill="#000" height="16.0" stroke="#000" stroke-width="6.0" width="16.0" x="248.0" y="176.0"/><rect fill="#000" height="16.0" stroke="#000" stroke-width="6.0" width="16.0" x="232.0" y="192.0"/><rect fill="#000" height="16.0" stroke="#000" stroke-width="6.0" width="16.0" x="232.0" y="208.0"/><rect fill="#f85666" height="16.0" stroke="#000" stroke-width="0.0" width="16.0" x="216.0" y="176.0"/><rect fill="#57f3b2" height="10.0" stroke="#000" stroke-width="0.0" width="10.0" x="219.0" y="179.0"/><rect fill="#f85666" height="16.0" stroke="#000" stroke-width="0.0" width="16.0" x="232.0" y="176.0"/><rect fill="#57f3b2" height="10.0" stroke="#000" stroke-width="0.0" width="10.0" x="235.0" y="179.0"/><rect fill="#f85666" height="16.0" stroke="#000" stroke-width="0.0" width="16.0" x="248.0" y="176.0"/><rect fill="#57f3b2" height="10.0" stroke="#000" stroke-width="0.0" width="10.0" x="251.0" y="179.0"/><rect fill="#f85666" height="16.0" stroke="#000" stroke-width="0.0" width="16.0" x="232.0" y="192.0"/><rect fill="#57f3b2" height="10.0" stroke="#000" stroke-width="0.0" width="10.0" x="235.0" y="195.0"/><rect fill="#f85666" height="16.0" stroke="#000" stroke-width="0.0" width="16.0" x="232.0" y="208.0"/><rect fill="#57f3b2" height="10.0" stroke="#000" stroke-width="0.0" width="10.0" x="235.0" y="211.0"/><rect fill="#000" height="16.0" stroke="#000" stroke-width="6.0" width="16.0" x="344.0" y="176.0"/><rect fill="#000" height="16.0" stroke="#000" stroke-width="6.0" width="16.0" x="344.0" y="192.0"/><rect fill="#000" height="16.0" stroke="#000" stroke-width="6.0" width="16.0" x="312.0" y="208.0"/><rect fill="#000" height="16.0" stroke="#000" stroke-width="6.0" width="16.0" x="328.0" y="208.0"/><rect fill="#000" height="16.0" stroke="#000" stroke-width="6.0" width="16.0" x="344.0" y="208.0"/><rect fill="#6634ca" height="16.0" stroke="#000" stroke-width="0.0" width="16.0" x="344.0" y="176.0"/><rect fill="#57f3b2" height="10.0" stroke="#000" stroke-width="0.0" width="10.0" x="347.0" y="179.0"/><rect fill="#6634ca" height="16.0" stroke="#000" stroke-width="0.0" width="16.0" x="344.0" y="192.0"/><rect fill="#57f3b2" height="10.0" stroke="#000" stroke-width="0.0" width="10.0" x="347.0" y="195.0"/><rect fill="#6634ca" height="16.0" stroke="#000" stroke-width="0.0" width="16.0" x="312.0" y="208.0"/><rect fill="#57f3b2" height="10.0" stroke="#000" stroke-width="0.0" width="10.0" x="315.0" y="211.0"/><rect fill="#6634ca" height="16.0" stroke="#000" stroke-width="0.0" width="16.0" x="328.0" y="208.0"/><rect fill="#57f3b2" height="10.0" stroke="#000" stroke-width="0.0" width="10.0" x="331.0" y="211.0"/><rect fill="#6634ca" height="16.0" stroke="#000" stroke-width="0.0" width="16.0" x="344.0" y="208.0"/><rect fill="#57f3b2" height="10.0" stroke="#000" stroke-width="0.0" width="10.0" x="347.0" y="211.0"/><rect fill="#000" height="16.0" stroke="#000" stroke-width="6.0" width="16.0" x="184.0" y="176.0"/><rect fill="#000" height="16.0" stroke="#000" stroke-width="6.0" width="16.0" x="200.0" y="176.0"/><rect fill="#000" height="16.0" stroke="#000" stroke-width="6.0" width="16.0" x="200.0" y="192.0"/><rect fill="#000" height="16.0" stroke="#000" stroke-width="6.0" width="16.0" x="216.0" y="192.0"/><rect fill="#000" height="16.0" stroke="#000" stroke-width="6.0" width="16.0" x="216.0" y="208.0"/><rect fill="#02af91" height="16.0" stroke="#000" stroke-width="0.0" width="16.0" x="184.0" y="176.0"/><rect fill="#57f3b2" height="10.0" stroke="#000" stroke-width="0.0" width="10.0" x="187.0" y="179.0"/><rect fill="#02af91" height="16.0" stroke="#000" stroke-width="0.0" width="16.0" x="200.0" y="176.0"/><rect fill="#57f3b2" height="10.0" stroke="#000" stroke-width="0.0" width="10.0" x="203.0" y="179.0"/><rect fill="#02af91" height="16.0" stroke="#000" stroke-width="0.0" width="16.0" x="200.0" y="192.0"/><rect fill="#57f3b2" height="10.0" stroke="#000" stroke-width="0.0" width="10.0" x="203.0" y="195.0"/><rect fill="#02af91" height="16.0" stroke="#000" stroke-width="0.0" width="16.0" x="216.0" y="192.0"/><rect fill="#57f3b2" height="10.0" stroke="#000" stroke-width="0.0" width="10.0" x="219.0" y="195.0"/><rect fill="#02af91" height="16.0" stroke="#000" stroke-width="0.0" width="16.0" x="216.0" y="208.0"/><rect fill="#57f3b2" height="10.0" stroke="#000" stroke-width="0.0" width="10.0" x="219.0" y="211.0"/><rect fill="#000" height="16.0" stroke="#000" stroke-width="6.0" width="16.0" x="72.0" y="176.0"/><rect fill="#000" height="16.0" stroke="#000" stroke-width="6.0" width="16.0" x="56.0" y="192.0"/><rect fill="#000" height="16.0" stroke="#000" stroke-width="6.0" width="16.0" x="72.0" y="192.0"/><rect fill="#000" height="16.0" stroke="#000" stroke-width="6.0" width="16.0" x="88.0" y="192.0"/><rect fill="#000" height="16.0" stroke="#000" stroke-width="6.0" width="16.0" x="72.0" y="208.0"/><rect fill="#6d1eb4" height="16.0" stroke="#000" stroke-width="0.0" width="16.0" x="72.0" y="176.0"/><rect fill="#57f3b2" height="10.0" stroke="#000" stroke-width="0.0" width="10.0" x="75.0" y="179.0"/><rect fill="#6d1eb4" height="16.0" stroke="#000" stroke-width="0.0" width="16.0" x="56.0" y="192.0"/><rect fill="#57f3b2" height="10.0" stroke="#000" stroke-width="0.0" width="10.0" x="59.0" y="195.0"/><rect fill="#6d1eb4" height="16.0" stroke="#000" stroke-width="0.0" width="16.0" x="72.0" y="192.0"/><rect fill="#57f3b2" height="10.0" stroke="#000" stroke-width="0.0" width="10.0" x="75.0" y="195.0"/><rect fill="#6d1eb4" height="16.0" stroke="#000" stroke-width="0.0" width="16.0" x="88.0" y="192.0"/><rect fill="#57f3b2" height="10.0" stroke="#000" stroke-width="0.0" width="10.0" x="91.0" y="195.0"/><rect fill="#6d1eb4" height="16.0" stroke="#000" stroke-width="0.0" width="16.0" x="72.0" y="208.0"/><rect fill="#57f3b2" height="10.0" stroke="#000" stroke-width="0.0" width="10.0" x="75.0" y="211.0"/><rect fill="#000" height="16.0" stroke="#000" stroke-width="6.0" width="16.0" x="40.0" y="176.0"/><rect fill="#000" height="16.0" stroke="#000" stroke-width="6.0" width="16.0" x="56.0" y="176.0"/><rect fill="#000" height="16.0" stroke="#000" stroke-width="6.0" width="16.0" x="40.0" y="192.0"/><rect fill="#000" height="16.0" stroke="#000" stroke-width="6.0" width="16.0" x="40.0" y="208.0"/><rect fill="#000" height="16.0" stroke="#000" stroke-width="6.0" width="16.0" x="56.0" y="208.0"/><rect fill="#1839bf" height="16.0" stroke="#000" stroke-width="0.0" width="16.0" x="40.0" y="176.0"/><rect fill="#57f3b2" height="10.0" stroke="#000" stroke-width="0.0" width="10.0" x="43.0" y="179.0"/><rect fill="#1839bf" height="16.0" stroke="#000" stroke-width="0.0" width="16.0" x="56.0" y="176.0"/><rect fill="#57f3b2" height="10.0" stroke="#000" stroke-width="0.0" width="10.0" x="59.0" y="179.0"/><rect fill="#1839bf" height="16.0" stroke="#000" stroke-width="0.0" width="16.0" x="40.0" y="192.0"/><rect fill="#57f3b2" height="10.0" stroke="#000" stroke-width="0.0" width="10.0" x="43.0" y="195.0"/><rect fill="#1839bf" height="16.0" stroke="#000" stroke-width="0.0" width="16.0" x="40.0" y="208.0"/><rect fill="#57f3b2" height="10.0" stroke="#000" stroke-width="0.0" width="10.0" x="43.0" y="211.0"/><rect fill="#1839bf" height="16.0" stroke="#000" stroke-width="0.0" width="16.0" x="56.0" y="208.0"/><rect fill="#57f3b2" height="10.0" stroke="#000" stroke-width="0.0" width="10.0" x="59.0" y="211.0"/><rect fill="#000" height="16.0" stroke="#000" stroke-width="6.0" width="16.0" x="88.0" y="176.0"/><rect fill="#000" height="16.0" stroke="#000" stroke-width="6.0" width="16.0" x="104.0" y="176.0"/><rect fill="#000" height="16.0" stroke="#000" stroke-width="6.0" width="16.0" x="120.0" y="176.0"/><rect fill="#000" height="16.0" stroke="#000" stroke-width="6.0" width="16.0" x="136.0" y="176.0"/><rect fill="#000" height="16.0" stroke="#000" stroke-width="6.0" width="16.0" x="152.0" y="176.0"/><rect fill="#4f7b06" height="16.0" stroke="#000" stroke-width="0.0" width="16.0" x="88.0" y="176.0"/><rect fill="#57f3b2" height="10.0" stroke="#000" stroke-width="0.0" width="10.0" x="91.0" y="179.0"/><rect fill="#4f7b06" height="16.0" stroke="#000" stroke-width="0.0" width="16.0" x="104.0" y="176.0"/><rect fill="#57f3b2" height="10.0" stroke="#000" stroke-width="0.0" width="10.0" x="107.0" y="179.0"/><rect fill="#4f7b06" height="16.0" stroke="#000" stroke-width="0.0" width="16.0" x="120.0" y="176.0"/><rect fill="#57f3b2" height="10.0" stroke="#000" stroke-width="0.0" width="10.0" x="123.0" y="179.0"/><rect fill="#4f7b06" height="16.0" stroke="#000" stroke-width="0.0" width="16.0" x="136.0" y="176.0"/><rect fill="#57f3b2" height="10.0" stroke="#000" stroke-width="0.0" width="10.0" x="139.0" y="179.0"/><rect fill="#4f7b06" height="16.0" stroke="#000" stroke-width="0.0" width="16.0" x="152.0" y="176.0"/><rect fill="#57f3b2" height="10.0" stroke="#000" stroke-width="0.0" width="10.0" x="155.0" y="179.0"/><rect fill="#000" height="16.0" stroke="#000" stroke-width="6.0" width="16.0" x="280.0" y="176.0"/><rect fill="#000" height="16.0" stroke="#000" stroke-width="6.0" width="16.0" x="296.0" y="176.0"/><rect fill="#000" height="16.0" stroke="#000" stroke-width="6.0" width="16.0" x="312.0" y="176.0"/><rect fill="#000" height="16.0" stroke="#000" stroke-width="6.0" width="16.0" x="328.0" y="176.0"/><rect fill="#000" height="16.0" stroke="#000" stroke-width="6.0" width="16.0" x="328.0" y="192.0"/><rect fill="#ab078a" height="16.0" stroke="#000" stroke-width="0.0" width="16.0" x="280.0" y="176.0"/><rect fill="#57f3b2" height="10.0" stroke="#000" stroke-width="0.0" width="10.0" x="283.0" y="179.0"/><rect fill="#ab078a" height="16.0" stroke="#000" stroke-width="0.0" width="16.0" x="296.0" y="176.0"/><rect fill="#57f3b2" height="10.0" stroke="#000" stroke-width="0.0" width="10.0" x="299.0" y="179.0"/><rect fill="#ab078a" height="16.0" stroke="#000" stroke-width="0.0" width="16.0" x="312.0" y="176.0"/><rect fill="#57f3b2" height="10.0" stroke="#000" stroke-width="0.0" width="10.0" x="315.0" y="179.0"/><rect fill="#ab078a" height="16.0" stroke="#000" stroke-width="0.0" width="16.0" x="328.0" y="176.0"/><rect fill="#57f3b2" height="10.0" stroke="#000" stroke-width="0.0" width="10.0" x="331.0" y="179.0"/><rect fill="#ab078a" height="16.0" stroke="#000" stroke-width="0.0" width="16.0" x="328.0" y="192.0"/><rect fill="#57f3b2" height="10.0" stroke="#000" stroke-width="0.0" width="10.0" x="331.0" y="195.0"/><rect fill="#000" height="16.0" stroke="#000" stroke-width="6.0" width="16.0" x="296.0" y="192.0"/><rect fill="#000" height="16.0" stroke="#000" stroke-width="6.0" width="16.0" x="312.0" y="192.0"/><rect fill="#000" height="16.0" stroke="#000" stroke-width="6.0" width="16.0" x="264.0" y="208.0"/><rect fill="#000" height="16.0" stroke="#000" stroke-width="6.0" width="16.0" x="280.0" y="208.0"/><rect fill="#000" height="16.0" stroke="#000" stroke-width="6.0" width="16.0" x="296.0" y="208.0"/><rect fill="#ce0d82" height="16.0" stroke="#000" stroke-width="0.0" width="16.0" x="296.0" y="192.0"/><rect fill="#57f3b2" height="10.0" stroke="#000" stroke-width="0.0" width="10.0" x="299.0" y="195.0"/><rect fill="#ce0d82" height="16.0" stroke="#000" stroke-width="0.0" width="16.0" x="312.0" y="192.0"/><rect fill="#57f3b2" height="10.0" stroke="#000" stroke-width="0.0" width="10.0" x="315.0" y="195.0"/><rect fill="#ce0d82" height="16.0" stroke="#000" stroke-width="0.0" width="16.0" x="264.0" y="208.0"/><rect fill="#57f3b2" height="10.0" stroke="#000" stroke-width="0.0" width="10.0" x="267.0" y="211.0"/><rect fill="#ce0d82" height="16.0" stroke="#000" stroke-width="0.0" width="16.0" x="280.0" y="208.0"/><rect fill="#57f3b2" height="10.0" stroke="#000" stroke-width="0.0" width="10.0" x="283.0" y="211.0"/><rect fill="#ce0d82" height="16.0" stroke="#000" stroke-width="0.0" width="16.0" x="296.0" y="208.0"/><rect fill="#57f3b2" height="10.0" stroke="#000" stroke-width="0.0" width="10.0" x="299.0" y="211.0"/><rect fill="#000" height="16.0" stroke="#000" stroke-width="6.0" width="16.0" x="264.0" y="176.0"/><rect fill="#000" height="16.0" stroke="#000" stroke-width="6.0" width="16.0" x="248.0" y="192.0"/><rect fill="#000" height="16.0" stroke="#000" stroke-width="6.0" width="16.0" x="264.0" y="192.0"/><rect fill="#000" height="16.0" stroke="#000" stroke-width="6.0" width="16.0" x="280.0" y="192.0"/><rect fill="#000" height="16.0" stroke="#000" stroke-width="6.0" width="16.0" x="248.0" y="208.0"/><rect fill="#1d273a" height="16.0" stroke="#000" stroke-width="0.0" width="16.0" x="264.0" y="176.0"/><rect fill="#57f3b2" height="10.0" stroke="#000" stroke-width="0.0" width="10.0" x="267.0" y="179.0"/><rect fill="#1d273a" height="16.0" stroke="#000" stroke-width="0.0" width="16.0" x="248.0" y="192.0"/><rect fill="#57f3b2" height="10.0" stroke="#000" stroke-width="0.0" width="10.0" x="251.0" y="195.0"/><rect fill="#1d273a" height="16.0" stroke="#000" stroke-width="0.0" width="16.0" x="264.0" y="192.0"/><rect fill="#57f3b2" height="10.0" stroke="#000" stroke-width="0.0" width="10.0" x="267.0" y="195.0"/><rect fill="#1d273a" height="16.0" stroke="#000" stroke-width="0.0" width="16.0" x="280.0" y="192.0"/><rect fill="#57f3b2" height="10.0" stroke="#000" stroke-width="0.0" width="10.0" x="283.0" y="195.0"/><rect fill="#1d273a" height="16.0" stroke="#000" stroke-width="0.0" width="16.0" x="248.0" y="208.0"/><rect fill="#57f3b2" height="10.0" stroke="#000" stroke-width="0.0" width="10.0" x="251.0" y="211.0"/><rect fill="#000" height="16.0" stroke="#000" stroke-width="6.0" width="16.0" x="104.0" y="192.0"/><rect fill="#000" height="16.0" stroke="#000" stroke-width="6.0" width="16.0" x="120.0" y="192.0"/><rect fill="#000" height="16.0" stroke="#000" stroke-width="6.0" width="16.0" x="88.0" y="208.0"/><rect fill="#000" height="16.0" stroke="#000" stroke-width="6.0" width="16.0" x="104.0" y="208.0"/><rect fill="#000" height="16.0" stroke="#000" stroke-width="6.0" width="16.0" x="120.0" y="208.0"/><rect fill="#be43ed" height="16.0" stroke="#000" stroke-width="0.0" width="16.0" x="104.0" y="192.0"/><rect fill="#57f3b2" height="10.0" stroke="#000" stroke-width="0.0" width="10.0" x="107.0" y="195.0"/><rect fill="#be43ed" height="16.0" stroke="#000" stroke-width="0.0" width="16.0" x="120.0" y="192.0"/><rect fill="#57f3b2" height="10.0" stroke="#000" stroke-width="0.0" width="10.0" x="123.0" y="195.0"/><rect fill="#be43ed" height="16.0" stroke="#000" stroke-width="0.0" width="16.0" x="88.0" y="208.0"/><rect fill="#57f3b2" height="10.0" stroke="#000" stroke-width="0.0" width="10.0" x="91.0" y="211.0"/><rect fill="#be43ed" height="16.0" stroke="#000" stroke-width="0.0" width="16.0" x="104.0" y="208.0"/><rect fill="#57f3b2" height="10.0" stroke="#000" stroke-width="0.0" width="10.0" x="107.0" y="211.0"/><rect fill="#be43ed" height="16.0" stroke="#000" stroke-width="0.0" width="16.0" x="120.0" y="208.0"/><rect fill="#57f3b2" height="10.0" stroke="#000" stroke-width="0.0" width="10.0" x="123.0" y="211.0"/><rect fill="#000" height="16.0" stroke="#000" stroke-width="6.0" width="16.0" x="168.0" y="176.0"/><rect fill="#000" height="16.0" stroke="#000" stroke-width="6.0" width="16.0" x="136.0" y="192.0"/><rect fill="#000" height="16.0" stroke="#000" stroke-width="6.0" width="16.0" x="152.0" y="192.0"/><rect fill="#000" height="16.0" stroke="#000" stroke-width="6.0" width="16.0" x="168.0" y="192.0"/><rect fill="#000" height="16.0" stroke="#000" stroke-width="6.0" width="16.0" x="136.0" y="208.0"/><rect fill="#ada848" height="16.0" stroke="#000" stroke-width="0.0" width="16.0" x="168.0" y="176.0"/><rect fill="#57f3b2" height="10.0" stroke="#000" stroke-width="0.0" width="10.0" x="171.0" y="179.0"/><rect fill="#ada848" height="16.0" stroke="#000" stroke-width="0.0" width="16.0" x="136.0" y="192.0"/><rect fill="#57f3b2" height="10.0" stroke="#000" stroke-width="0.0" width="10.0" x="139.0" y="195.0"/><rect fill="#ada848" height="16.0" stroke="#000" stroke-width="0.0" width="16.0" x="152.0" y="192.0"/><rect fill="#57f3b2" height="10.0" stroke="#000" stroke-width="0.0" width="10.0" x="155.0" y="195.0"/><rect fill="#ada848" height="16.0" stroke="#000" stroke-width="0.0" width="16.0" x="168.0" y="192.0"/><rect fill="#57f3b2" height="10.0" stroke="#000" stroke-width="0.0" width="10.0" x="171.0" y="195.0"/><rect fill="#ada848" height="16.0" stroke="#000" stroke-width="0.0" width="16.0" x="136.0" y="208.0"/><rect fill="#57f3b2" height="10.0" stroke="#000" stroke-width="0.0" width="10.0" x="139.0" y="211.0"/></svg>