<?xml version="1.0" ?><!DOCTYPE svg  PUBLIC '-//W3C//DTD SVG 1.1//EN'  'http://www.w3.org/Graphics/SVG/1.1/DTD/svg11.dtd'><svg height="422.000" viewBox="-11.000 -11.000 423.000 422.000" width="423.000" xmlns="http://www.w3.org/2000/svg"><rect fill="#007fff" height="400.0" stroke="#000" stroke-width="0.0" width="400.0" x="0.0" y="0.0"/><rect fill="#000" height="400.0" stroke="#000" stroke-width="0.0" width="0.0" x="400.0" y="0.0"/><rect fill="#01aad6" height="26.0" stroke="#000" stroke-width="6.0" width="26.0" x="40.0" y="135.0"/><rect fill="#01aad6" height="26.0" stroke="#000" stroke-width="6.0" width="26.0" x="66.0" y="135.0"/><rect fill="#01aad6" height="26.0" stroke="#000" stroke-width="6.0" width="26.0" x="92.0" y="135.0"/><rect fill="#01aad6" height="26.0" stroke="#000" stroke-width="6.0" width="26.0" x="118.0" y="135.0"/><rect fill="#01aad6" height="26.0" stroke="#000" stroke-width="6.0" width="26.0" x="144.0" y="135.0"/><rect fill="#01aad6" height="26.0" stroke="#000" stroke-width="6.0" width="26.0" x="170.0" y="135.0"/><rect fill="#01aad6" height="26.0" stroke="#000" stroke-width="6.0" width="26.0" x="196.0" y="135.0"/><rect fill="#01aad6" height="26.0" stroke="#000" stroke-width="6.0" width="26.0" x="222.0" y="135.0"/><rect fill="#01aad6" height="26.0" stroke="#000" stroke-width="6.0" width="26.0" x="248.0" y="135.0"/><rect fill="#01aad6" height="26.0" stroke="#000" stroke-width="6.0" width="26.0" x="274.0" y="135.0"/><rect fill="#01aad6" height="26.0" stroke="#000" stroke-width="6.0" width="26.0" x="300.0" y="135.0"/><rect fill="#01aad6" height="26.0" stroke="#000" stroke-width="6.0" width="26.0" x="326.0" y="135.0"/><rect fill="#01aad6" height="26.0" stroke="#000" stroke-width="6.0" width="26.0" x="40.0" y="161.0"/><rect fill="#01aad6" height="26.0" stroke="#000" stroke-width="6.0" width="26.0" x="66.0" y="161.0"/><rect fill="#01aad6" height="26.0" stroke="#000" stroke-width="6.0" width="26.0" x="92.0" y="161.0"/><rect fill="#01aad6" height="26.0" stroke="#000" stroke-width="6.0" width="26.0" x="118.0" y="161.0"/><rect fill="#01aad6" height="26.0" stroke="#000" stroke-width="6.0" width="26.0" x="144.0" y="161.0"/><rect fill="#01aad6" height="26.0" stroke="#000" stroke-width="6.0" width="26.0" x="170.0" y="161.0"/><rect fill="#01aad6" height="26.0" stroke="#000" stroke-width="6.0" width="26.0" x="196.0" y="161.0"/><rect fill="#01aad6" height="26.0" stroke="#000" stroke-width="6.0" width="26.0" x="222.0" y="161.0"/><rect fill="#01aad6" height="26.0" stroke="#000" stroke-width="6.0" width="26.0" x="248.0" y="161.0"/><rect fill="#01aad6" height="26.0" stroke="#000" stroke-width="6.0" width="26.0" x="274.0" y="161.0"/><rect fill="#01aad6" height="26.0" stroke="#000" stroke-width="6.0" width="26.0" x="300.0" y="161.0"/><rect fill="#01aad6" height="26.0" stroke="#000" stroke-width="6.0" width="26.0" x="326.0" y="161.0"/><rect fill="#01aad6" height="26.0" stroke="#000" stroke-width="6.0" width="26.0" x="40.0" y="187.0"/><rect fill="#01aad6" height="26.0" stroke="#000" stroke-width="6.0" width="26.0" x="66.0" y="187.0"/><rect fill="#01aad6" height="26.0" stroke="#000" stroke-width="6.0" width="26.0" x="92.0" y="187.0"/><rect fill="#01aad6" height="26.0" stroke="#000" stroke-width="6.0" width="26.0" x="118.0" y="187.0"/><rect fill="#01aad6" height="26.0" stroke="#000" stroke-width="6.0" width="26.0" x="144.0" y="187.0"/><rect fill="#01aad6" height="26.0" stroke="#000" stroke-width="6.0" width="26.0" x="170.0" y="187.0"/><rect fill="#01aad6" height="26.0" stroke="#000" stroke-width="6.0" width="26.0" x="196.0" y="187.0"/><rect fill="#01aad6" height="26.0" stroke="#000" stroke-width="6.0" width="26.0" x="222.0" y="187.0"/><rect fill="#01aad6" height="26.0" stroke="#000" stroke-width="6.0" width="26.0" x="248.0" y="187.0"/><rect fill="#01aad6" height="26.0" stroke="#000" stroke-width="6.0" width="26.0" x="274.0" y="187.0"/><rect fill="#01aad6" height="26.0" stroke="#000" stroke-width="6.0" width="26.0" x="300.0" y="187.0"/><rect fill="#01aad6" height="26.0" stroke="#000" stroke-width="6.0" width="26.0" x="326.0" y="187.0"/><rect fill="#01aad6" height="26.0" stroke="#000" stroke-width="6.0" width="26.0" x="40.0" y="213.0"/><rect fill="#01aad6" height="26.0" stroke="#000" stroke-width="6.0" width="26.0" x="66.0" y="213.0"/><rect fill="#01aad6" height="26.0" stroke="#000" stroke-width="6.0" width="26.0" x="92.0" y="213.0"/><rect fill="#01aad6" height="26.0" stroke="#000" stroke-width="6.0" width="26.0" x="118.0" y="213.0"/><rect fill="#01aad6" height="26.0" stroke="#000" stroke-width="6.0" width="26.0" x="144.0" y="213.0"/><rect fill="#01aad6" height="26.0" stroke="#000" stroke-width="6.0" width="26.0" x="170.0" y="213.0"/><rect fill="#01aad6" height="26.0" stroke="#000" stroke-width="6.0" width="26.0" x="196.0" y="213.0"/><rect fill="#01aad6" height="26.0" stroke="#000" stroke-width="6.0" width="26.0" x="222.0" y="213.0"/><rect fill="#01aad6" height="26.0" stroke="#000" stroke-width="6.0" width="26.0" x="248.0" y="213.0"/><rect fill="#01aad6" height="26.0" stroke="#000" stroke-width="6.0" width="26.0" x="274.0" y="213.0"/><rect fill="#01aad6" height="26.0" stroke="#000" stroke-width="6.0" width="26.0" x="300.0" y="213.0"/><rect fill="#01aad6" height="26.0" stroke="#000" stroke-width="6.0" width="26.0" x="326.0" y="213.0"/><rect fill="#01aad6" height="26.0" stroke="#000" stroke-width="6.0" width="26.0" x="40.0" y="239.0"/><rect fill="#01aad6" height="26.0" stroke="#000" stroke-width="6.0" width="26.0" x="66.0" y="239.0"/><rect fill="#01aad6" height="26.0" stroke="#000" stroke-width="6.0" width="26.0" x="92.0" y="239.0"/><rect fill="#01aad6" height="26.0" stroke="#000" stroke-width="6.0" width="26.0" x="118.0" y="239.0"/><rect fill="#01aad6" height="26.0" stroke="#000" stroke-width="6.0" width="26.0" x="144.0" y="239.0"/><rect fill="#01aad6" height="26.0" stroke="#000" stroke-width="6.0" width="26.0" x="170.0" y="239.0"/><rect fill="#01aad6" height="26.0" stroke="#000" stroke-width="6.0" width="26.0" x="196.0" y="239.0"/><rect fill="#01aad6" height="26.0" stroke="#000" stroke-width="6.0" width="26.0" x="222.0" y="239.0"/><rect fill="#01aad6" height="26.0" stroke="#000" stroke-width="6.0" width="26.0" x="248.0" y="239.0"/><rect fill="#01aad6" height="26.0" stroke="#000" stroke-width="6.0" width="26.0" x="274.0" y="239.0"/><rect fill="#01aad6" height="26.0" stroke="#000" stroke-width="6.0" width="26.0" x="300.0" y="239.0"/><rect fill="#01aad6" height="26.0" stroke="#000" stroke-width="6.0" width="26.0" x="326.0" y="239.0"/><rect fill="#000" height="26.0" stroke="#000" stroke-width="6.0" width="26.0" x="118.0" y="135.0"/><rect fill="#000" height="26.0" stroke="#000" stroke-width="6.0" width="26.0" x="144.0" y="135.0"/><rect fill="#000" height="26.0" stroke="#000" stroke-width="6.0" width="26.0" x="170.0" y="135.0"/><rect fill="#000" height="26.0" stroke="#000" stroke-width="6.0" width="26.0" x="196.0" y="135.0"/><rect fill="#000" height="26.0" stroke="#000" stroke-width="6.0" width="26.0" x="222.0" y="135.0"/><rect fill="#0697b8" height="26.0" stroke="#000" stroke-width="0.0" width="26.0" x="118.0" y="135.0"/><rect fill="#01aad6" height="16.0" stroke="#000" stroke-width="0.0" width="16.0" x="123.0" y="140.0"/><rect fill="#0697b8" height="26.0" stroke="#000" stroke-width="0.0" width="26.0" x="144.0" y="135.0"/><rect fill="#01aad6" height="16.0" stroke="#000" stroke-width="0.0" width="16.0" x="149.0" y="140.0"/><rect fill="#0697b8" height="26.0" stroke="#000" stroke-width="0.0" width="26.0" x="170.0" y="135.0"/><rect fill="#01aad6" height="16.0" stroke="#000" stroke-width="0.0" width="16.0" x="175.0" y="140.0"/><rect fill="#0697b8" height="26.0" stroke="#000" stroke-width="0.0" width="26.0" x="196.0" y="135.0"/><rect fill="#01aad6" height="16.0" stroke="#000" stroke-width="0.0" width="16.0" x="201.0" y="140.0"/><rect fill="#0697b8" height="26.0" stroke="#000" stroke-width="0.0" width="26.0" x="222.0" y="135.0"/><rect fill="#01aad6" height="16.0" stroke="#000" stroke-width="0.0" width="16.0" x="227.0" y="140.0"/><rect fill="#000" height="26.0" stroke="#000" stroke-width="6.0" width="26.0" x="40.0" y="135.0"/><rect fill="#000" height="26.0" stroke="#000" stroke-width="6.0" width="26.0" x="66.0" y="135.0"/><rect fill="#000" height="26.0" stroke="#000" stroke-width="6.0" width="26.0" x="40.0" y="161.0"/><rect fill="#000" height="26.0" stroke="#000" stroke-width="6.0" width="26.0" x="40.0" y="187.0"/><rect fill="#000" height="26.0" stroke="#000" stroke-width="6.0" width="26.0" x="40.0" y="213.0"/><rect fill="#be85dd" height="26.0" stroke="#000" stroke-width="0.0" width="26.0" x="40.0" y="135.0"/><rect fill="#01aad6" height="16.0" stroke="#000" stroke-width="0.0" width="16.0" x="45.0" y="140.0"/><rect fill="#be85dd" height="26.0" stroke="#000" stroke-width="0.0" width="26.0" x="66.0" y="135.0"/><rect fill="#01aad6" height="16.0" stroke="#000" stroke-width="0.0" width="16.0" x="71.0" y="140.0"/><rect fill="#be85dd" height="26.0" stroke="#000" stroke-width="0.0" width="26.0" x="40.0" y="161.0"/><rect fill="#01aad6" height="16.0" stroke="#000" stroke-width="0.0" width="16.0" x="45.0" y="166.0"/><rect fill="#be85dd" height="26.0" stroke="#000" stroke-width="0.0" width="26.0" x="40.0" y="187.0"/><rect fill="#01aad6" height="16.0" stroke="#000" stroke-width="0.0" width="16.0" x="45.0" y="192.0"/><rect fill="#be85dd" height="26.0" stroke="#000" stroke-width="0.0" width="26.0" x="40.0" y="213.0"/><rect fill="#01aad6" height="16.0" stroke="#000" stroke-width="0.0" width="16.0" x="45.0" y="218.0"/><rect fill="#000" height="26.0" stroke="#000" stroke-width="6.0" width="26.0" x="248.0" y="135.0"/><rect fill="#000" height="26.0" stroke="#000" stroke-width="6.0" width="26.0" x="274.0" y="135.0"/><rect fill="#000" height="26.0" stroke="#000" stroke-width="6.0" width="26.0" x="300.0" y="135.0"/><rect fill="#000" height="26.0" stroke="#000" stroke-width="6.0" width="26.0" x="222.0" y="161.0"/><rect fill="#000" height="26.0" stroke="#000" stroke-width="6.0" width="26.0" x="248.0" y="161.0"/><rect fill="#c9118d" height="26.0" stroke="#000" stroke-width="0.0" width="26.0" x="248.0" y="135.0"/><rect fill="#01aad6" height="16.0" stroke="#000" stroke-width="0.0" width="16.0" x="253.0" y="140.0"/><rect fill="#c9118d" height="26.0" stroke="#000" stroke-width="0.0" width="26.0" x="274.0" y="135.0"/><rect fill="#01aad6" height="16.0" stroke="#000" stroke-width="0.0" width="16.0" x="279.0" y="140.0"/><rect fill="#c9118d" height="26.0" stroke="#000" stroke-width="0.0" width="26.0" x="300.0" y="135.0"/><rect fill="#01aad6" height="16.0" stroke="#000" stroke-width="0.0" width="16.0" x="305.0" y="140.0"/><rect fill="#c9118d" height="26.0" stroke="#000" stroke-width="0.0" width="26.0" x="222.0" y="161.0"/><rect fill="#01aad6" height="16.0" stroke="#000" stroke-width="0.0" width="16.0" x="227.0" y="166.0"/><rect fill="#c9118d" height="26.0" stroke="#000" stroke-width="0.0" width="26.0" x="248.0" y="161.0"/><rect fill="#01aad6" height="16.0" stroke="#000" stroke-width="0.0" width="16.0" x="253.0" y="166.0"/><rect fill="#000" height="26.0" stroke="#000" stroke-width="6.0" width="26.0" x="66.0" y="187.0"/><rect fill="#000" height="26.0" stroke="#000" stroke-width="6.0" width="26.0" x="66.0" y="213.0"/><rect fill="#000" height="26.0" stroke="#000" stroke-width="6.0" width="26.0" x="92.0" y="213.0"/><rect fill="#000" height="26.0" stroke="#000" stroke-width="6.0" width="26.0" x="40.0" y="239.0"/><rect fill="#000" height="26.0" stroke="#000" stroke-width="6.0" width="26.0" x="66.0" y="239.0"/><rect fill="#233471" height="26.0" stroke="#000" stroke-width="0.0" width="26.0" x="66.0" y="187.0"/><rect fill="#01aad6" height="16.0" stroke="#000" stroke-width="0.0" width="16.0" x="71.0" y="192.0"/><rect fill="#233471" height="26.0" stroke="#000" stroke-width="0.0" width="26.0" x="66.0" y="213.0"/><rect fill="#01aad6" height="16.0" stroke="#000" stroke-width="0.0" width="16.0" x="71.0" y="218.0"/><rect fill="#233471" height="26.0" stroke="#000" stroke-width="0.0" width="26.0" x="92.0" y="213.0"/><rect fill="#01aad6" height="16.0" stroke="#000" stroke-width="0.0" width="16.0" x="97.0" y="218.0"/><rect fill="#233471" height="26.0" stroke="#000" stroke-width="0.0" width="26.0" x="40.0" y="239.0"/><rect fill="#01aad6" height="16.0" stroke="#000" stroke-width="0.0" width="16.0" x="45.0" y="244.0"/><rect fill="#233471" height="26.0" stroke="#000" stroke-width="0.0" width="26.0" x="66.0" y="239.0"/><rect fill="#01aad6" height="16.0" stroke="#000" stroke-width="0.0" width="16.0" x="71.0" y="244.0"/><rect fill="#000" height="26.0" stroke="#000" stroke-width="6.0" width="26.0" x="248.0" y="213.0"/><rect fill="#000" height="26.0" stroke="#000" stroke-width="6.0" width="26.0" x="274.0" y="213.0"/><rect fill="#000" height="26.0" stroke="#000" stroke-width="6.0" width="26.0" x="248.0" y="239.0"/><rect fill="#000" height="26.0" stroke="#000" stroke-width="6.0" width="26.0" x="274.0" y="239.0"/><rect fill="#000" height="26.0" stroke="#000" stroke-width="6.0" width="26.0" x="300.0" y="239.0"/><rect fill="#ae2306" height="26.0" stroke="#000" stroke-width="0.0" width="26.0" x="248.0" y="213.0"/><rect fill="#01aad6" height="16.0" stroke="#000" stroke-width="0.0" width="16.0" x="253.0" y="218.0"/><rect fill="#ae2306" height="26.0" stroke="#000" stroke-width="0.0" width="26.0" x="274.0" y="213.0"/><rect fill="#01aad6" height="16.0" stroke="#000" stroke-width="0.0" width="16.0" x="279.0" y="218.0"/><rect fill="#ae2306" height="26.0" stroke="#000" stroke-width="0.0" width="26.0" x="248.0" y="239.0"/><rect fill="#01aad6" height="16.0" stroke="#000" stroke-width="0.0" width="16.0" x="253.0" y="244.0"/><rect fill="#ae2306" height="26.0" stroke="#000" stroke-width="0.0" width="26.0" x="274.0" y="239.0"/><rect fill="#01aad6" height="16.0" stroke="#000" stroke-width="0.0" width="16.0" x="279.0" y="244.0"/><rect fill="#ae2306" height="26.0" stroke="#000" stroke-width="0.0" width="26.0" x="300.0" y="239.0"/><rect fill="#01aad6" height="16.0" stroke="#000" stroke-width="0.0" width="16.0" x="305.0" y="244.0"/><rect fill="#000" height="26.0" stroke="#000" stroke-width="6.0" width="26.0" x="222.0" y="187.0"/><rect fill="#000" height="26.0" stroke="#000" stroke-width="6.0" width="26.0" x="248.0" y="187.0"/><rect fill="#000" height="26.0" stroke="#000" stroke-width="6.0" width="26.0" x="222.0" y="213.0"/><rect fill="#000" height="26.0" stroke="#000" stroke-width="6.0" width="26.0" x="196.0" y="239.0"/><rect fill="#000" height="26.0" stroke="#000" stroke-width="6.0" width="26.0" x="222.0" y="239.0"/><rect fill="#2d0ebb" height="26.0" stroke="#000" stroke-width="0.0" width="26.0" x="222.0" y="187.0"/><rect fill="#01aad6" height="16.0" stroke="#000" stroke-width="0.0" width="16.0" x="227.0" y="192.0"/><rect fill="#2d0ebb" height="26.0" stroke="#000" stroke-width="0.0" width="26.0" x="248.0" y="187.0"/><rect fill="#01aad6" height="16.0" stroke="#000" stroke-width="0.0" width="16.0" x="253.0" y="192.0"/><rect fill="#2d0ebb" height="26.0" stroke="#000" stroke-width="0.0" width="26.0" x="222.0" y="213.0"/><rect fill="#01aad6" height="16.0" stroke="#000" stroke-width="0.0" width="16.0" x="227.0" y="218.0"/><rect fill="#2d0ebb" height="26.0" stroke="#000" stroke-width="0.0" width="26.0" x="196.0" y="239.0"/><rect fill="#01aad6" height="16.0" stroke="#000" stroke-width="0.0" width="16.0" x="201.0" y="244.0"/><rect fill="#2d0ebb" height="26.0" stroke="#000" stroke-width="0.0" width="26.0" x="222.0" y="239.0"/><rect fill="#01aad6" height="16.0" stroke="#000" stroke-width="0.0" width="16.0" x="227.0" y="244.0"/><rect fill="#000" height="26.0" stroke="#000" stroke-width="6.0" width="26.0" x="144.0" y="213.0"/><rect fill="#000" height="26.0" stroke="#000" stroke-width="6.0" width="26.0" x="92.0" y="239.0"/><rect fill="#000" height="26.0" stroke="#000" stroke-width="6.0" width="26.0" x="118.0" y="239.0"/><rect fill="#000" height="26.0" stroke="#000" stroke-width="6.0" width="26.0" x="144.0" y="239.0"/><rect fill="#000" height="26.0" stroke="#000" stroke-width="6.0" width="26.0" x="170.0" y="239.0"/><rect fill="#aae9d2" height="26.0" stroke="#000" stroke-width="0.0" width="26.0" x="144.0" y="213.0"/><rect fill="#01aad6" height="16.0" stroke="#000" stroke-width="0.0" width="16.0" x="149.0" y="218.0"/><rect fill="#aae9d2" height="26.0" stroke="#000" stroke-width="0.0" width="26.0" x="92.0" y="239.0"/><rect fill="#01aad6" height="16.0" stroke="#000" stroke-width="0.0" width="16.0" x="97.0" y="244.0"/><rect fill="#aae9d2" height="26.0" stroke="#000" stroke-width="0.0" width="26.0" x="118.0" y="239.0"/><rect fill="#01aad6" height="16.0" stroke="#000" stroke-width="0.0" width="16.0" x="123.0" y="244.0"/><rect fill="#aae9d2" height="26.0" stroke="#000" stroke-width="0.0" width="26.0" x="144.0" y="239.0"/><rect fill="#01aad6" height="16.0" stroke="#000" stroke-width="0.0" width="16.0" x="149.0" y="244.0"/><rect fill="#aae9d2" height="26.0" stroke="#000" stroke-width="0.0" width="26.0" x="170.0" y="239.0"/><rect fill="#01aad6" height="16.0" stroke="#000" stroke-width="0.0" width="16.0" x="175.0" y="244.0"/><rect fill="#000" height="26.0" stroke="#000" stroke-width="6.0" width="26.0" x="326.0" y="135.0"/><rect fill="#000" height="26.0" stroke="#000" stroke-width="6.0" width="26.0" x="274.0" y="161.0"/><rect fill="#000" height="26.0" stroke="#000" stroke-width="6.0" width="26.0" x="300.0" y="161.0"/><rect fill="#000" height="26.0" stroke="#000" stroke-width="6.0" width="26.0" x="326.0" y="161.0"/><rect fill="#000" height="26.0" stroke="#000" stroke-width="6.0" width="26.0" x="326.0" y="187.0"/><rect fill="#cb0da6" height="26.0" stroke="#000" stroke-width="0.0" width="26.0" x="326.0" y="135.0"/><rect fill="#01aad6" height="16.0" stroke="#000" stroke-width="0.0" width="16.0" x="331.0" y="140.0"/><rect fill="#cb0da6" height="26.0" stroke="#000" stroke-width="0.0" width="26.0" x="274.0" y="161.0"/><rect fill="#01aad6" height="16.0" stroke="#000" stroke-width="0.0" width="16.0" x="279.0" y="166.0"/><rect fill="#cb0da6" height="26.0" stroke="#000" stroke-width="0.0" width="26.0" x="300.0" y="161.0"/><rect fill="#01aad6" height="16.0" stroke="#000" stroke-width="0.0" width="16.0" x="305.0" y="166.0"/><rect fill="#cb0da6" height="26.0" stroke="#000" stroke-width="0.0" width="26.0" x="326.0" y="161.0"/><rect fill="#01aad6" height="16.0" stroke="#000" stroke-width="0.0" width="16.0" x="331.0" y="166.0"/><rect fill="#cb0da6" height="26.0" stroke="#000" stroke-width="0.0" width="26.0" x="326.0" y="187.0"/><rect fill="#01aad6" height="16.0" stroke="#000" stroke-width="0.0" width="16.0" x="331.0" y="192.0"/><rect fill="#000" height="26.0" stroke="#000" stroke-width="6.0" width="26.0" x="144.0" y="161.0"/><rect fill="#000" height="26.0" stroke="#000" stroke-width="6.0" width="26.0" x="170.0" y="161.0"/><rect fill="#000" height="26.0" stroke="#000" stroke-width="6.0" width="26.0" x="196.0" y="161.0"/><rect fill="#000" height="26.0" stroke="#000" stroke-width="6.0" width="26.0" x="196.0" y="187.0"/><rect fill="#000" height="26.0" stroke="#000" stroke-width="6.0" width="26.0" x="196.0" y="213.0"/><rect fill="#20fc80" height="26.0" stroke="#000" stroke-width="0.0" width="26.0" x="144.0" y="161.0"/><rect fill="#01aad6" height="16.0" stroke="#000" stroke-width="0.0" width="16.0" x="149.0" y="166.0"/><rect fill="#20fc80" height="26.0" stroke="#000" stroke-width="0.0" width="26.0" x="170.0" y="161.0"/><rect fill="#01aad6" height="16.0" stroke="#000" stroke-width="0.0" width="16.0" x="175.0" y="166.0"/><rect fill="#20fc80" height="26.0" stroke="#000" stroke-width="0.0" width="26.0" x="196.0" y="161.0"/><rect fill="#01aad6" height="16.0" stroke="#000" stroke-width="0.0" width="16.0" x="201.0" y="166.0"/><rect fill="#20fc80" height="26.0" stroke="#000" stroke-width="0.0" width="26.0" x="196.0" y="187.0"/><rect fill="#01aad6" height="16.0" stroke="#000" stroke-width="0.0" width="16.0" x="201.0" y="192.0"/><rect fill="#20fc80" height="26.0" stroke="#000" stroke-width="0.0" width="26.0" x="196.0" y="213.0"/><rect fill="#01aad6" height="16.0" stroke="#000" stroke-width="0.0" width="16.0" x="201.0" y="218.0"/><rect fill="#000" height="26.0" stroke="#000" stroke-width="6.0" width="26.0" x="274.0" y="187.0"/><rect fill="#000" height="26.0" stroke="#000" stroke-width="6.0" width="26.0" x="300.0" y="187.0"/><rect fill="#000" height="26.0" stroke="#000" stroke-width="6.0" width="26.0" x="300.0" y="213.0"/><rect fill="#000" height="26.0" stroke="#000" stroke-width="6.0" width="26.0" x="326.0" y="213.0"/><rect fill="#000" height="26.0" stroke="#000" stroke-width="6.0" width="26.0" x="326.0" y="239.0"/><rect fill="#0015d0" height="26.0" stroke="#000" stroke-width="0.0" width="26.0" x="274.0" y="187.0"/><rect fill="#01aad6" height="16.0" stroke="#000" stroke-width="0.0" width="16.0" x="279.0" y="192.0"/><rect fill="#0015d0" height="26.0" stroke="#000" stroke-width="0.0" width="26.0" x="300.0" y="187.0"/><rect fill="#01aad6" height="16.0" stroke="#000" stroke-width="0.0" width="16.0" x="305.0" y="192.0"/><rect fill="#0015d0" height="26.0" stroke="#000" stroke-width="0.0" width="26.0" x="300.0" y="213.0"/><rect fill="#01aad6" height="16.0" stroke="#000" stroke-width="0.0" width="16.0" x="305.0" y="218.0"/><rect fill="#0015d0" height="26.0" stroke="#000" stroke-width="0.0" width="26.0" x="326.0" y="213.0"/><rect fill="#01aad6" height="16.0" stroke="#000" stroke-width="0.0" width="16.0" x="331.0" y="218.0"/><rect fill="#0015d0" height="26.0" stroke="#000" stroke-width="0.0" width="26.0" x="326.0" y="239.0"/><rect fill="#01aad6" height="16.0" stroke="#000" stroke-width="0.0" width="16.0" x="331.0" y="244.0"/><rect fill="#000" height="26.0" stroke="#000" stroke-width="6.0" width="26.0" x="92.0" y="135.0"/><rect fill="#000" height="26.0" stroke="#000" stroke-width="6.0" width="26.0" x="66.0" y="161.0"/><rect fill="#000" height="26.0" stroke="#000" stroke-width="6.0" width="26.0" x="92.0" y="161.0"/><rect fill="#000" height="26.0" stroke="#000" stroke-width="6.0" width="26.0" x="118.0" y="161.0"/><rect fill="#000" height="26.0" stroke="#000" stroke-width="6.0" width="26.0" x="92.0" y="187.0"/><rect fill="#9f7f03" height="26.0" stroke="#000" stroke-width="0.0" width="26.0" x="92.0" y="135.0"/><rect fill="#01aad6" height="16.0" stroke="#000" stroke-width="0.0" width="16.0" x="97.0" y="140.0"/><rect fill="#9f7f03" height="26.0" stroke="#000" stroke-width="0.0" width="26.0" x="66.0" y="161.0"/><rect fill="#01aad6" height="16.0" stroke="#000" stroke-width="0.0" width="16.0" x="71.0" y="166.0"/><rect fill="#9f7f03" height="26.0" stroke="#000" stroke-width="0.0" width="26.0" x="92.0" y="161.0"/><rect fill="#01aad6" height="16.0" stroke="#000" stroke-width="0.0" width="16.0" x="97.0" y="166.0"/><rect fill="#9f7f03" height="26.0" stroke="#000" stroke-width="0.0" width="26.0" x="118.0" y="161.0"/><rect fill="#01aad6" height="16.0" stroke="#000" stroke-width="0.0" width="16.0" x="123.0" y="166.0"/><rect fill="#9f7f03" height="26.0" stroke="#000" stroke-width="0.0" width="26.0" x="92.0" y="187.0"/><rect fill="#01aad6" height="16.0" stroke="#000" stroke-width="0.0" width="16.0" x="97.0" y="192.0"/><rect fill="#000" height="26.0" stroke="#000" stroke-width="6.0" width="26.0" x="118.0" y="187.0"/><rect fill="#000" height="26.0" stroke="#000" stroke-width="6.0" width="26.0" x="144.0" y="187.0"/><rect fill="#000" height="26.0" stroke="#000" stroke-width="6.0" width="26.0" x="170.0" y="187.0"/><rect fill="#000" height="26.0" stroke="#000" stroke-width="6.0" width="26.0" x="118.0" y="213.0"/><rect fill="#000" height="26.0" stroke="#000" stroke-width="6.0" width="26.0" x="170.0" y="213.0"/><rect fill="#df5ab2" height="26.0" stroke="#000" stroke-width="0.0" width="26.0" x="118.0" y="187.0"/><rect fill="#01aad6" height="16.0" stroke="#000" stroke-width="0.0" width="16.0" x="123.0" y="192.0"/><rect fill="#df5ab2" height="26.0" stroke="#000" stroke-width="0.0" width="26.0" x="144.0" y="187.0"/><rect fill="#01aad6" height="16.0" stroke="#000" stroke-width="0.0" width="16.0" x="149.0" y="192.0"/><rect fill="#df5ab2" height="26.0" stroke="#000" stroke-width="0.0" width="26.0" x="170.0" y="187.0"/><rect fill="#01aad6" height="16.0" stroke="#000" stroke-width="0.0" width="16.0" x="175.0" y="192.0"/><rect fill="#df5ab2" height="26.0" stroke="#000" stroke-width="0.0" width="26.0" x="118.0" y="213.0"/><rect fill="#01aad6" height="16.0" stroke="#000" stroke-width="0.0" width="16.0" x="123.0" y="218.0"/><rect fill="#df5ab2" height="26.0" stroke="#000" stroke-width="0.0" width="26.0" x="170.0" y="213.0"/><rect fill="#01aad6" height="16.0" stroke="#000" stroke-width="0.0" width="16.0" x="175.0" y="218.0"/></svg>