<?xml version="1.0" ?><!DOCTYPE svg  PUBLIC '-//W3C//DTD SVG 1.1//EN'  'http://www.w3.org/Graphics/SVG/1.1/DTD/svg11.dtd'><svg height="422.000" viewBox="-11.000 -11.000 423.000 422.000" width="423.000" xmlns="http://www.w3.org/2000/svg"><rect fill="#007fff" height="400.0" stroke="#000" stroke-width="0.0" width="400.0" x="0.0" y="0.0"/><rect fill="#000" height="400.0" stroke="#000" stroke-width="0.0" width="0.0" x="400.0" y="0.0"/><rect fill="#0d32d2" height="32.0" stroke="#000" stroke-width="6.0" width="32.0" x="40.0" y="104.0"/><rect fill="#0d32d2" height="32.0" stroke="#000" stroke-width="6.0" width="32.0" x="72.0" y="104.0"/><rect fill="#0d32d2" height="32.0" stroke="#000" stroke-width="6.0" width="32.0" x="104.0" y="104.0"/><rect fill="#0d32d2" height="32.0" stroke="#000" stroke-width="6.0" width="32.0" x="136.0" y="104.0"/><rect fill="#0d32d2" height="32.0" stroke="#000" stroke-width="6.0" width="32.0" x="168.0" y="104.0"/><rect fill="#0d32d2" height="32.0" stroke="#000" stroke-width="6.0" width="32.0" x="200.0" y="104.0"/><rect fill="#0d32d2" height="32.0" stroke="#000" stroke-width="6.0" width="32.0" x="232.0" y="104.0"/><rect fill="#0d32d2" height="32.0" stroke="#000" stroke-width="6.0" width="32.0" x="264.0" y="104.0"/><rect fill="#0d32d2" height="32.0" stroke="#000" stroke-width="6.0" width="32.0" x="296.0" y="104.0"/><rect fill="#0d32d2" height="32.0" stroke="#000" stroke-width="6.0" width="32.0" x="328.0" y="104.0"/><rect fill="#0d32d2" height="32.0" stroke="#000" stroke-width="6.0" width="32.0" x="40.0" y="136.0"/><rect fill="#0d32d2" height="32.0" stroke="#000" stroke-width="6.0" width="32.0" x="72.0" y="136.0"/><rect fill="#0d32d2" height="32.0" stroke="#000" stroke-width="6.0" width="32.0" x="104.0" y="136.0"/><rect fill="#0d32d2" height="32.0" stroke="#000" stroke-width="6.0" width="32.0" x="136.0" y="136.0"/><rect fill="#0d32d2" height="32.0" stroke="#000" stroke-width="6.0" width="32.0" x="168.0" y="136.0"/><rect fill="#0d32d2" height="32.0" stroke="#000" stroke-width="6.0" width="32.0" x="200.0" y="136.0"/><rect fill="#0d32d2" height="32.0" stroke="#000" stroke-width="6.0" width="32.0" x="232.0" y="136.0"/><rect fill="#0d32d2" height="32.0" stroke="#000" stroke-width="6.0" width="32.0" x="264.0" y="136.0"/><rect fill="#0d32d2" height="32.0" stroke="#000" stroke-width="6.0" width="32.0" x="296.0" y="136.0"/><rect fill="#0d32d2" height="32.0" stroke="#000" stroke-width="6.0" width="32.0" x="328.0" y="136.0"/><rect fill="#0d32d2" height="32.0" stroke="#000" stroke-width="6.0" width="32.0" x="40.0" y="168.0"/><rect fill="#0d32d2" height="32.0" stroke="#000" stroke-width="6.0" width="32.0" x="72.0" y="168.0"/><rect fill="#0d32d2" height="32.0" stroke="#000" stroke-width="6.0" width="32.0" x="104.0" y="168.0"/><rect fill="#0d32d2" height="32.0" stroke="#000" stroke-width="6.0" width="32.0" x="136.0" y="168.0"/><rect fill="#0d32d2" height="32.0" stroke="#000" stroke-width="6.0" width="32.0" x="168.0" y="168.0"/><rect fill="#0d32d2" height="32.0" stroke="#000" stroke-width="6.0" width="32.0" x="200.0" y="168.0"/><rect fill="#0d32d2" height="32.0" stroke="#000" stroke-width="6.0" width="32.0" x="232.0" y="168.0"/><rect fill="#0d32d2" height="32.0" stroke="#000" stroke-width="6.0" width="32.0" x="264.0" y="168.0"/><rect fill="#0d32d2" height="32.0" stroke="#000" stroke-width="6.0" width="32.0" x="296.0" y="168.0"/><rect fill="#0d32d2" height="32.0" stroke="#000" stroke-width="6.0" width="32.0" x="328.0" y="168.0"/><rect fill="#0d32d2" height="32.0" stroke="#000" stroke-width="6.0" width="32.0" x="40.0" y="200.0"/><rect fill="#0d32d2" height="32.0" stroke="#000" stroke-width="6.0" width="32.0" x="72.0" y="200.0"/><rect fill="#0d32d2" height="32.0" stroke="#000" stroke-width="6.0" width="32.0" x="104.0" y="200.0"/><rect fill="#0d32d2" height="32.0" stroke="#000" stroke-width="6.0" width="32.0" x="136.0" y="200.0"/><rect fill="#0d32d2" height="32.0" stroke="#000" stroke-width="6.0" width="32.0" x="168.0" y="200.0"/><rect fill="#0d32d2" height="32.0" stroke="#000" stroke-width="6.0" width="32.0" x="200.0" y="200.0"/><rect fill="#0d32d2" height="32.0" stroke="#000" stroke-width="6.0" width="32.0" x="232.0" y="200.0"/><rect fill="#0d32d2" height="32.0" stroke="#000" stroke-width="6.0" width="32.0" x="264.0" y="200.0"/><rect fill="#0d32d2" height="32.0" stroke="#000" stroke-width="6.0" width="32.0" x="296.0" y="200.0"/><rect fill="#0d32d2" height="32.0" stroke="#000" stroke-width="6.0" width="32.0" x="328.0" y="200.0"/><rect fill="#0d32d2" height="32.0" stroke="#000" stroke-width="6.0" width="32.0" x="40.0" y="232.0"/><rect fill="#0d32d2" height="32.0" stroke="#000" stroke-width="6.0" width="32.0" x="72.0" y="232.0"/><rect fill="#0d32d2" height="32.0" stroke="#000" stroke-width="6.0" width="32.0" x="104.0" y="232.0"/><rect fill="#0d32d2" height="32.0" stroke="#000" stroke-width="6.0" width="32.0" x="136.0" y="232.0"/><rect fill="#0d32d2" height="32.0" stroke="#000" stroke-width="6.0" width="32.0" x="168.0" y="232.0"/><rect fill="#0d32d2" height="32.0" stroke="#000" stroke-width="6.0" width="32.0" x="200.0" y="232.0"/><rect fill="#0d32d2" height="32.0" stroke="#000" stroke-width="6.0" width="32.0" x="232.0" y="232.0"/><rect fill="#0d32d2" height="32.0" stroke="#000" stroke-width="6.0" width="32.0" x="264.0" y="232.0"/><rect fill="#0d32d2" height="32.0" stroke="#000" stroke-width="6.0" width="32.0" x="296.0" y="232.0"/><rect fill="#0d32d2" height="32.0" stroke="#000" stroke-width="6.0" width="32.0" x="328.0" y="232.0"/><rect fill="#0d32d2" height="32.0" stroke="#000" stroke-width="6.0" width="32.0" x="40.0" y="264.0"/><rect fill="#0d32d2" height="32.0" stroke="#000" stroke-width="6.0" width="32.0" x="72.0" y="264.0"/><rect fill="#0d32d2" height="32.0" stroke="#000" stroke-width="6.0" width="32.0" x="104.0" y="264.0"/><rect fill="#0d32d2" height="32.0" stroke="#000" stroke-width="6.0" width="32.0" x="136.0" y="264.0"/><rect fill="#0d32d2" height="32.0" stroke="#000" stroke-width="6.0" width="32.0" x="168.0" y="264.0"/><rect fill="#0d32d2" height="32.0" stroke="#000" stroke-width="6.0" width="32.0" x="200.0" y="264.0"/><rect fill="#0d32d2" height="32.0" stroke="#000" stroke-width="6.0" width="32.0" x="232.0" y="264.0"/><rect fill="#0d32d2" height="32.0" stroke="#000" stroke-width="6.0" width="32.0" x="264.0" y="264.0"/><rect fill="#0d32d2" height="32.0" stroke="#000" stroke-width="6.0" width="32.0" x="296.0" y="264.0"/><rect fill="#0d32d2" height="32.0" stroke="#000" stroke-width="6.0" width="32.0" x="328.0" y="264.0"/><rect fill="#000" height="32.0" stroke="#000" stroke-width="6.0" width="32.0" x="328.0" y="136.0"/><rect fill="#000" height="32.0" stroke="#000" stroke-width="6.0" width="32.0" x="328.0" y="168.0"/><rect fill="#000" height="32.0" stroke="#000" stroke-width="6.0" width="32.0" x="328.0" y="200.0"/><rect fill="#000" height="32.0" stroke="#000" stroke-width="6.0" width="32.0" x="328.0" y="232.0"/><rect fill="#000" height="32.0" stroke="#000" stroke-width="6.0" width="32.0" x="328.0" y="264.0"/><rect fill="#3705e0" height="32.0" stroke="#000" stroke-width="0.0" width="32.0" x="328.0" y="136.0"/><rect fill="#0d32d2" height="20.0" stroke="#000" stroke-width="0.0" width="20.0" x="334.0" y="142.0"/><rect fill="#3705e0" height="32.0" stroke="#000" stroke-width="0.0" width="32.0" x="328.0" y="168.0"/><rect fill="#0d32d2" height="20.0" stroke="#000" stroke-width="0.0" width="20.0" x="334.0" y="174.0"/><rect fill="#3705e0" height="32.0" stroke="#000" stroke-width="0.0" width="32.0" x="328.0" y="200.0"/><rect fill="#0d32d2" height="20.0" stroke="#000" stroke-width="0.0" width="20.0" x="334.0" y="206.0"/><rect fill="#3705e0" height="32.0" stroke="#000" stroke-width="0.0" width="32.0" x="328.0" y="232.0"/><rect fill="#0d32d2" height="20.0" stroke="#000" stroke-width="0.0" width="20.0" x="334.0" y="238.0"/><rect fill="#3705e0" height="32.0" stroke="#000" stroke-width="0.0" width="32.0" x="328.0" y="264.0"/><rect fill="#0d32d2" height="20.0" stroke="#000" stroke-width="0.0" width="20.0" x="334.0" y="270.0"/><rect fill="#000" height="32.0" stroke="#000" stroke-width="6.0" width="32.0" x="40.0" y="104.0"/><rect fill="#000" height="32.0" stroke="#000" stroke-width="6.0" width="32.0" x="72.0" y="104.0"/><rect fill="#000" height="32.0" stroke="#000" stroke-width="6.0" width="32.0" x="40.0" y="136.0"/><rect fill="#000" height="32.0" stroke="#000" stroke-width="6.0" width="32.0" x="40.0" y="168.0"/><rect fill="#000" height="32.0" stroke="#000" stroke-width="6.0" width="32.0" x="40.0" y="200.0"/><rect fill="#f11717" height="32.0" stroke="#000" stroke-width="0.0" width="32.0" x="40.0" y="104.0"/><rect fill="#0d32d2" height="20.0" stroke="#000" stroke-width="0.0" width="20.0" x="46.0" y="110.0"/><rect fill="#f11717" height="32.0" stroke="#000" stroke-width="0.0" width="32.0" x="72.0" y="104.0"/><rect fill="#0d32d2" height="20.0" stroke="#000" stroke-width="0.0" width="20.0" x="78.0" y="110.0"/><rect fill="#f11717" height="32.0" stroke="#000" stroke-width="0.0" width="32.0" x="40.0" y="136.0"/><rect fill="#0d32d2" height="20.0" stroke="#000" stroke-width="0.0" width="20.0" x="46.0" y="142.0"/><rect fill="#f11717" height="32.0" stroke="#000" stroke-width="0.0" width="32.0" x="40.0" y="168.0"/><rect fill="#0d32d2" height="20.0" stroke="#000" stroke-width="0.0" width="20.0" x="46.0" y="174.0"/><rect fill="#f11717" height="32.0" stroke="#000" stroke-width="0.0" width="32.0" x="40.0" y="200.0"/><rect fill="#0d32d2" height="20.0" stroke="#000" stroke-width="0.0" width="20.0" x="46.0" y="206.0"/><rect fill="#000" height="32.0" stroke="#000" stroke-width="6.0" width="32.0" x="200.0" y="136.0"/><rect fill="#000" height="32.0" stroke="#000" stroke-width="6.0" width="32.0" x="232.0" y="136.0"/><rect fill="#000" height="32.0" stroke="#000" stroke-width="6.0" width="32.0" x="136.0" y="168.0"/><rect fill="#000" height="32.0" stroke="#000" stroke-width="6.0" width="32.0" x="168.0" y="168.0"/><rect fill="#000" height="32.0" stroke="#000" stroke-width="6.0" width="32.0" x="200.0" y="168.0"/><rect fill="#72304e" height="32.0" stroke="#000" stroke-width="0.0" width="32.0" x="200.0" y="136.0"/><rect fill="#0d32d2" height="20.0" stroke="#000" stroke-width="0.0" width="20.0" x="206.0" y="142.0"/><rect fill="#72304e" height="32.0" stroke="#000" stroke-width="0.0" width="32.0" x="232.0" y="136.0"/><rect fill="#0d32d2" height="20.0" stroke="#000" stroke-width="0.0" width="20.0" x="238.0" y="142.0"/><rect fill="#72304e" height="32.0" stroke="#000" stroke-width="0.0" width="32.0" x="136.0" y="168.0"/><rect fill="#0d32d2" height="20.0" stroke="#000" stroke-width="0.0" width="20.0" x="142.0" y="174.0"/><rect fill="#72304e" height="32.0" stroke="#000" stroke-width="0.0" width="32.0" x="168.0" y="168.0"/><rect fill="#0d32d2" height="20.0" stroke="#000" stroke-width="0.0" width="20.0" x="174.0" y="174.0"/><rect fill="#72304e" height="32.0" stroke="#000" stroke-width="0.0" width="32.0" x="200.0" y="168.0"/><rect fill="#0d32d2" height="20.0" stroke="#000" stroke-width="0.0" width="20.0" x="206.0" y="174.0"/><rect fill="#000" height="32.0" stroke="#000" stroke-width="6.0" width="32.0" x="264.0" y="136.0"/><rect fill="#000" height="32.0" stroke="#000" stroke-width="6.0" width="32.0" x="232.0" y="168.0"/><rect fill="#000" height="32.0" stroke="#000" stroke-width="6.0" width="32.0" x="264.0" y="168.0"/><rect fill="#000" height="32.0" stroke="#000" stroke-width="6.0" width="32.0" x="264.0" y="200.0"/><rect fill="#000" height="32.0" stroke="#000" stroke-width="6.0" width="32.0" x="296.0" y="200.0"/><rect fill="#630336" height="32.0" stroke="#000" stroke-width="0.0" width="32.0" x="264.0" y="136.0"/><rect fill="#0d32d2" height="20.0" stroke="#000" stroke-width="0.0" width="20.0" x="270.0" y="142.0"/><rect fill="#630336" height="32.0" stroke="#000" stroke-width="0.0" width="32.0" x="232.0" y="168.0"/><rect fill="#0d32d2" height="20.0" stroke="#000" stroke-width="0.0" width="20.0" x="238.0" y="174.0"/><rect fill="#630336" height="32.0" stroke="#000" stroke-width="0.0" width="32.0" x="264.0" y="168.0"/><rect fill="#0d32d2" height="20.0" stroke="#000" stroke-width="0.0" width="20.0" x="270.0" y="174.0"/><rect fill="#630336" height="32.0" stroke="#000" stroke-width="0.0" width="32.0" x="264.0" y="200.0"/><rect fill="#0d32d2" height="20.0" stroke="#000" stroke-width="0.0" width="20.0" x="270.0" y="206.0"/><rect fill="#630336" height="32.0" stroke="#000" stroke-width="0.0" width="32.0" x="296.0" y="200.0"/><rect fill="#0d32d2" height="20.0" stroke="#000" stroke-width="0.0" width="20.0" x="302.0" y="206.0"/><rect fill="#000" height="32.0" stroke="#000" stroke-width="6.0" width="32.0" x="40.0" y="232.0"/><rect fill="#000" height="32.0" stroke="#000" stroke-width="6.0" width="32.0" x="72.0" y="232.0"/><rect fill="#000" height="32.0" stroke="#000" stroke-width="6.0" width="32.0" x="40.0" y="264.0"/><rect fill="#000" height="32.0" stroke="#000" stroke-width="6.0" width="32.0" x="72.0" y="264.0"/><rect fill="#000" height="32.0" stroke="#000" stroke-width="6.0" width="32.0" x="104.0" y="264.0"/><rect fill="#b77685" height="32.0" stroke="#000" stroke-width="0.0" width="32.0" x="40.0" y="232.0"/><rect fill="#0d32d2" height="20.0" stroke="#000" stroke-width="0.0" width="20.0" x="46.0" y="238.0"/><rect fill="#b77685" height="32.0" stroke="#000" stroke-width="0.0" width="32.0" x="72.0" y="232.0"/><rect fill="#0d32d2" height="20.0" stroke="#000" stroke-width="0.0" width="20.0" x="78.0" y="238.0"/><rect fill="#b77685" height="32.0" stroke="#000" stroke-width="0.0" width="32.0" x="40.0" y="264.0"/><rect fill="#0d32d2" height="20.0" stroke="#000" stroke-width="0.0" width="20.0" x="46.0" y="270.0"/><rect fill="#b77685" height="32.0" stroke="#000" stroke-width="0.0" width="32.0" x="72.0" y="264.0"/><rect fill="#0d32d2" height="20.0" stroke="#000" stroke-width="0.0" width="20.0" x="78.0" y="270.0"/><rect fill="#b77685" height="32.0" stroke="#000" stroke-width="0.0" width="32.0" x="104.0" y="264.0"/><rect fill="#0d32d2" height="20.0" stroke="#000" stroke-width="0.0" width="20.0" x="110.0" y="270.0"/><rect fill="#000" height="32.0" stroke="#000" stroke-width="6.0" width="32.0" x="232.0" y="200.0"/><rect fill="#000" height="32.0" stroke="#000" stroke-width="6.0" width="32.0" x="232.0" y="232.0"/><rect fill="#000" height="32.0" stroke="#000" stroke-width="6.0" width="32.0" x="264.0" y="232.0"/><rect fill="#000" height="32.0" stroke="#000" stroke-width="6.0" width="32.0" x="296.0" y="232.0"/><rect fill="#000" height="32.0" stroke="#000" stroke-width="6.0" width="32.0" x="296.0" y="264.0"/><rect fill="#ceb230" height="32.0" stroke="#000" stroke-width="0.0" width="32.0" x="232.0" y="200.0"/><rect fill="#0d32d2" height="20.0" stroke="#000" stroke-width="0.0" width="20.0" x="238.0" y="206.0"/><rect fill="#ceb230" height="32.0" stroke="#000" stroke-width="0.0" width="32.0" x="232.0" y="232.0"/><rect fill="#0d32d2" height="20.0" stroke="#000" stroke-width="0.0" width="20.0" x="238.0" y="238.0"/><rect fill="#ceb230" height="32.0" stroke="#000" stroke-width="0.0" width="32.0" x="264.0" y="232.0"/><rect fill="#0d32d2" height="20.0" stroke="#000" stroke-width="0.0" width="20.0" x="270.0" y="238.0"/><rect fill="#ceb230" height="32.0" stroke="#000" stroke-width="0.0" width="32.0" x="296.0" y="232.0"/><rect fill="#0d32d2" height="20.0" stroke="#000" stroke-width="0.0" width="20.0" x="302.0" y="238.0"/><rect fill="#ceb230" height="32.0" stroke="#000" stroke-width="0.0" width="32.0" x="296.0" y="264.0"/><rect fill="#0d32d2" height="20.0" stroke="#000" stroke-width="0.0" width="20.0" x="302.0" y="270.0"/><rect fill="#000" height="32.0" stroke="#000" stroke-width="6.0" width="32.0" x="136.0" y="104.0"/><rect fill="#000" height="32.0" stroke="#000" stroke-width="6.0" width="32.0" x="168.0" y="104.0"/><rect fill="#000" height="32.0" stroke="#000" stroke-width="6.0" width="32.0" x="200.0" y="104.0"/><rect fill="#000" height="32.0" stroke="#000" stroke-width="6.0" width="32.0" x="232.0" y="104.0"/><rect fill="#000" height="32.0" stroke="#000" stroke-width="6.0" width="32.0" x="168.0" y="136.0"/><rect fill="#1b3d1c" height="32.0" stroke="#000" stroke-width="0.0" width="32.0" x="136.0" y="104.0"/><rect fill="#0d32d2" height="20.0" stroke="#000" stroke-width="0.0" width="20.0" x="142.0" y="110.0"/><rect fill="#1b3d1c" height="32.0" stroke="#000" stroke-width="0.0" width="32.0" x="168.0" y="104.0"/><rect fill="#0d32d2" height="20.0" stroke="#000" stroke-width="0.0" width="20.0" x="174.0" y="110.0"/><rect fill="#1b3d1c" height="32.0" stroke="#000" stroke-width="0.0" width="32.0" x="200.0" y="104.0"/><rect fill="#0d32d2" height="20.0" stroke="#000" stroke-width="0.0" width="20.0" x="206.0" y="110.0"/><rect fill="#1b3d1c" height="32.0" stroke="#000" stroke-width="0.0" width="32.0" x="232.0" y="104.0"/><rect fill="#0d32d2" height="20.0" stroke="#000" stroke-width="0.0" width="20.0" x="238.0" y="110.0"/><rect fill="#1b3d1c" height="32.0" stroke="#000" stroke-width="0.0" width="32.0" x="168.0" y="136.0"/><rect fill="#0d32d2" height="20.0" stroke="#000" stroke-width="0.0" width="20.0" x="174.0" y="142.0"/><rect fill="#000" height="32.0" stroke="#000" stroke-width="6.0" width="32.0" x="264.0" y="104.0"/><rect fill="#000" height="32.0" stroke="#000" stroke-width="6.0" width="32.0" x="296.0" y="104.0"/><rect fill="#000" height="32.0" stroke="#000" stroke-width="6.0" width="32.0" x="328.0" y="104.0"/><rect fill="#000" height="32.0" stroke="#000" stroke-width="6.0" width="32.0" x="296.0" y="136.0"/><rect fill="#000" height="32.0" stroke="#000" stroke-width="6.0" width="32.0" x="296.0" y="168.0"/><rect fill="#fd6308" height="32.0" stroke="#000" stroke-width="0.0" width="32.0" x="264.0" y="104.0"/><rect fill="#0d32d2" height="20.0" stroke="#000" stroke-width="0.0" width="20.0" x="270.0" y="110.0"/><rect fill="#fd6308" height="32.0" stroke="#000" stroke-width="0.0" width="32.0" x="296.0" y="104.0"/><rect fill="#0d32d2" height="20.0" stroke="#000" stroke-width="0.0" width="20.0" x="302.0" y="110.0"/><rect fill="#fd6308" height="32.0" stroke="#000" stroke-width="0.0" width="32.0" x="328.0" y="104.0"/><rect fill="#0d32d2" height="20.0" stroke="#000" stroke-width="0.0" width="20.0" x="334.0" y="110.0"/><rect fill="#fd6308" height="32.0" stroke="#000" stroke-width="0.0" width="32.0" x="296.0" y="136.0"/><rect fill="#0d32d2" height="20.0" stroke="#000" stroke-width="0.0" width="20.0" x="302.0" y="142.0"/><rect fill="#fd6308" height="32.0" stroke="#000" stroke-width="0.0" width="32.0" x="296.0" y="168.0"/><rect fill="#0d32d2" height="20.0" stroke="#000" stroke-width="0.0" width="20.0" x="302.0" y="174.0"/><rect fill="#000" height="32.0" stroke="#000" stroke-width="6.0" width="32.0" x="200.0" y="200.0"/><rect fill="#000" height="32.0" stroke="#000" stroke-width="6.0" width="32.0" x="200.0" y="232.0"/><rect fill="#000" height="32.0" stroke="#000" stroke-width="6.0" width="32.0" x="200.0" y="264.0"/><rect fill="#000" height="32.0" stroke="#000" stroke-width="6.0" width="32.0" x="232.0" y="264.0"/><rect fill="#000" height="32.0" stroke="#000" stroke-width="6.0" width="32.0" x="264.0" y="264.0"/><rect fill="#9ff022" height="32.0" stroke="#000" stroke-width="0.0" width="32.0" x="200.0" y="200.0"/><rect fill="#0d32d2" height="20.0" stroke="#000" stroke-width="0.0" width="20.0" x="206.0" y="206.0"/><rect fill="#9ff022" height="32.0" stroke="#000" stroke-width="0.0" width="32.0" x="200.0" y="232.0"/><rect fill="#0d32d2" height="20.0" stroke="#000" stroke-width="0.0" width="20.0" x="206.0" y="238.0"/><rect fill="#9ff022" height="32.0" stroke="#000" stroke-width="0.0" width="32.0" x="200.0" y="264.0"/><rect fill="#0d32d2" height="20.0" stroke="#000" stroke-width="0.0" width="20.0" x="206.0" y="270.0"/><rect fill="#9ff022" height="32.0" stroke="#000" stroke-width="0.0" width="32.0" x="232.0" y="264.0"/><rect fill="#0d32d2" height="20.0" stroke="#000" stroke-width="0.0" width="20.0" x="238.0" y="270.0"/><rect fill="#9ff022" height="32.0" stroke="#000" stroke-width="0.0" width="32.0" x="264.0" y="264.0"/><rect fill="#0d32d2" height="20.0" stroke="#000" stroke-width="0.0" width="20.0" x="270.0" y="270.0"/><rect fill="#000" height="32.0" stroke="#000" stroke-width="6.0" width="32.0" x="72.0" y="168.0"/><rect fill="#000" height="32.0" stroke="#000" stroke-width="6.0" width="32.0" x="72.0" y="200.0"/><rect fill="#000" height="32.0" stroke="#000" stroke-width="6.0" width="32.0" x="104.0" y="200.0"/><rect fill="#000" height="32.0" stroke="#000" stroke-width="6.0" width="32.0" x="104.0" y="232.0"/><rect fill="#000" height="32.0" stroke="#000" stroke-width="6.0" width="32.0" x="136.0" y="232.0"/><rect fill="#567cf2" height="32.0" stroke="#000" stroke-width="0.0" width="32.0" x="72.0" y="168.0"/><rect fill="#0d32d2" height="20.0" stroke="#000" stroke-width="0.0" width="20.0" x="78.0" y="174.0"/><rect fill="#567cf2" height="32.0" stroke="#000" stroke-width="0.0" width="32.0" x="72.0" y="200.0"/><rect fill="#0d32d2" height="20.0" stroke="#000" stroke-width="0.0" width="20.0" x="78.0" y="206.0"/><rect fill="#567cf2" height="32.0" stroke="#000" stroke-width="0.0" width="32.0" x="104.0" y="200.0"/><rect fill="#0d32d2" height="20.0" stroke="#000" stroke-width="0.0" width="20.0" x="110.0" y="206.0"/><rect fill="#567cf2" height="32.0" stroke="#000" stroke-width="0.0" width="32.0" x="104.0" y="232.0"/><rect fill="#0d32d2" height="20.0" stroke="#000" stroke-width="0.0" width="20.0" x="110.0" y="238.0"/><rect fill="#567cf2" height="32.0" stroke="#000" stroke-width="0.0" width="32.0" x="136.0" y="232.0"/><rect fill="#0d32d2" height="20.0" stroke="#000" stroke-width="0.0" width="20.0" x="142.0" y="238.0"/><rect fill="#000" height="32.0" stroke="#000" stroke-width="6.0" width="32.0" x="104.0" y="104.0"/><rect fill="#000" height="32.0" stroke="#000" stroke-width="6.0" width="32.0" x="72.0" y="136.0"/><rect fill="#000" height="32.0" stroke="#000" stroke-width="6.0" width="32.0" x="104.0" y="136.0"/><rect fill="#000" height="32.0" stroke="#000" stroke-width="6.0" width="32.0" x="136.0" y="136.0"/><rect fill="#000" height="32.0" stroke="#000" stroke-width="6.0" width="32.0" x="104.0" y="168.0"/><rect fill="#24c9e6" height="32.0" stroke="#000" stroke-width="0.0" width="32.0" x="104.0" y="104.0"/><rect fill="#0d32d2" height="20.0" stroke="#000" stroke-width="0.0" width="20.0" x="110.0" y="110.0"/><rect fill="#24c9e6" height="32.0" stroke="#000" stroke-width="0.0" width="32.0" x="72.0" y="136.0"/><rect fill="#0d32d2" height="20.0" stroke="#000" stroke-width="0.0" width="20.0" x="78.0" y="142.0"/><rect fill="#24c9e6" height="32.0" stroke="#000" stroke-width="0.0" width="32.0" x="104.0" y="136.0"/><rect fill="#0d32d2" height="20.0" stroke="#000" stroke-width="0.0" width="20.0" x="110.0" y="142.0"/><rect fill="#24c9e6" height="32.0" stroke="#000" stroke-width="0.0" width="32.0" x="136.0" y="136.0"/><rect fill="#0d32d2" height="20.0" stroke="#000" stroke-width="0.0" width="20.0" x="142.0" y="142.0"/><rect fill="#24c9e6" height="32.0" stroke="#000" stroke-width="0.0" width="32.0" x="104.0" y="168.0"/><rect fill="#0d32d2" height="20.0" stroke="#000" stroke-width="0.0" width="20.0" x="110.0" y="174.0"/><rect fill="#000" height="32.0" stroke="#000" stroke-width="6.0" width="32.0" x="136.0" y="200.0"/><rect fill="#000" height="32.0" stroke="#000" stroke-width="6.0" width="32.0" x="168.0" y="200.0"/><rect fill="#000" height="32.0" stroke="#000" stroke-width="6.0" width="32.0" x="168.0" y="232.0"/><rect fill="#000" height="32.0" stroke="#000" stroke-width="6.0" width="32.0" x="136.0" y="264.0"/><rect fill="#000" height="32.0" stroke="#000" stroke-width="6.0" width="32.0" x="168.0" y="264.0"/><rect fill="#854b83" height="32.0" stroke="#000" stroke-width="0.0" width="32.0" x="136.0" y="200.0"/><rect fill="#0d32d2" height="20.0" stroke="#000" stroke-width="0.0" width="20.0" x="142.0" y="206.0"/><rect fill="#854b83" height="32.0" stroke="#000" stroke-width="0.0" width="32.0" x="168.0" y="200.0"/><rect fill="#0d32d2" height="20.0" stroke="#000" stroke-width="0.0" width="20.0" x="174.0" y="206.0"/><rect fill="#854b83" height="32.0" stroke="#000" stroke-width="0.0" width="32.0" x="168.0" y="232.0"/><rect fill="#0d32d2" height="20.0" stroke="#000" stroke-width="0.0" width="20.0" x="174.0" y="238.0"/><rect fill="#854b83" height="32.0" stroke="#000" stroke-width="0.0" width="32.0" x="136.0" y="264.0"/><rect fill="#0d32d2" height="20.0" stroke="#000" stroke-width="0.0" width="20.0" x="142.0" y="270.0"/><rect fill="#854b83" height="32.0" stroke="#000" stroke-width="0.0" width="32.0" x="168.0" y="264.0"/><rect fill="#0d32d2" height="20.0" stroke="#000" stroke-width="0.0" width="20.0" x="174.0" y="270.0"/></svg>